<?xml version="1.0" encoding="UTF-8"?>
<svg width="105px" height="99px" viewBox="0 0 105 99" version="1.1" xmlns="http://www.w3.org/2000/svg" xmlns:xlink="http://www.w3.org/1999/xlink">
    <title>noun_quiz_117740</title>
    <g id="Page-1" stroke="none" stroke-width="1" fill="none" fill-rule="evenodd">
        <g id="noun_quiz_117740" transform="translate(3.000000, 2.000000)">
            <g id="Group">
                <g transform="translate(15.230769, 15.267857)" fill="#000000" fill-rule="nonzero">
                    <g>
                        <path d="M18.5307692,24.9375 L0.253846154,24.9375 L0.253846154,0.508928571 L18.5307692,0.508928571 L18.5307692,24.9375 Z M3.04615385,21.375 L15.8653846,21.375 L15.8653846,4.24107143 L3.04615385,4.24107143 L3.04615385,21.375 Z" id="Shape"></path>
                        <rect id="Rectangle" x="29.1923077" y="11.0267857" width="38.9653846" height="3.5625"></rect>
                        <rect id="Rectangle" x="29.1923077" y="1.69642857" width="38.9653846" height="3.5625"></rect>
                        <rect id="Rectangle" x="29.1923077" y="20.1875" width="38.9653846" height="3.5625"></rect>
                    </g>
                    <g transform="translate(0.000000, 35.625000)">
                        <polygon id="Path" points="15.8653846 24.5982143 3.04615385 24.5982143 3.04615385 7.46428571 13.8346154 7.46428571 16.5 3.90178571 0.253846154 3.90178571 0.253846154 28.3303571 18.5307692 28.3303571 18.5307692 16.625 15.8653846 20.3571429"></polygon>
                        <polygon id="Path" points="11.4230769 22.7321429 4.44230769 13.5714286 7.74230769 9.33035714 11.4230769 14.25 21.0692308 1.35714286 24.2423077 5.59821429"></polygon>
                        <rect id="Rectangle" x="29.1923077" y="14.25" width="38.9653846" height="3.5625"></rect>
                        <rect id="Rectangle" x="29.1923077" y="4.91964286" width="38.9653846" height="3.5625"></rect>
                        <rect id="Rectangle" x="29.1923077" y="23.5803571" width="38.9653846" height="3.5625"></rect>
                    </g>
                </g>
                <path d="M98.4923077,86.8571429 C98.4923077,90.7589286 96.0807692,93.9821429 93.1615385,93.9821429 L5.83846154,93.9821429 C2.91923077,93.9821429 0.507692308,90.7589286 0.507692308,86.8571429 L0.507692308,8.14285714 C0.507692308,4.24107143 2.91923077,1.01785714 5.83846154,1.01785714 L93.2884615,1.01785714 C96.2076923,1.01785714 98.6192308,4.24107143 98.6192308,8.14285714 L98.6192308,86.8571429 L98.4923077,86.8571429 Z" id="Path" stroke="#000000" stroke-width="5.1507"></path>
            </g>
        </g>
    </g>
</svg>