<?xml version="1.0" encoding="UTF-8"?>
<svg width="91px" height="95px" viewBox="0 0 91 95" version="1.1" xmlns="http://www.w3.org/2000/svg" xmlns:xlink="http://www.w3.org/1999/xlink">
    <title>noun_tap_255743</title>
    <g id="Page-1" stroke="none" stroke-width="1" fill="none" fill-rule="evenodd">
        <g id="noun_tap_255743" fill="#262626" fill-rule="nonzero">
            <g id="Group">
                <g id="Path">
                    <g>
                        <path d="M9.32797243,46.497324 C3.68659973,49.9763555 0,54.3284092 0,58.9760741 L0,64.6347901 C0,70.926685 9.96027547,81.2666347 11.6833385,83.146934 C14.4968033,86.217139 19.2195511,90.8245 23.0834474,94.258628 C24.0285923,95.098648 25.7965028,95.2457414 27.0275745,94.6058488 C28.2586463,93.9659562 28.4863858,92.7825822 27.5415526,91.941372 C24.4984817,89.2320438 18.8702562,83.7227765 16.4416615,81.1203814 C14.7661611,79.3249753 5.625,69.612781 5.625,64.6347901 L5.625,58.9760741 C5.625,55.5653222 8.41244619,52.2813584 13.1720276,49.2715361 C14.0131238,48.7396508 15.4207894,47.9491167 16.875,47.2061498 L16.8864379,58.9 C16.8864379,59.9639954 18.1687474,60.8 19.6875,60.8 C21.2624985,60.8 22.5114374,60.1408406 22.5114379,58.9 L22.5114379,15.2 C22.5114379,13.101318 25.0298362,11.4 28.1364379,11.4 C31.2430396,11.4 33.7614379,13.101318 33.7614379,15.2 L33.7614379,47.5 C33.7614379,48.5493411 35.020637,49.4 36.5739379,49.4 C38.1272387,49.4 39.3864379,48.5493411 39.3864379,47.5 L39.3864379,38 C39.3864379,35.901318 41.9048362,34.2 45.0114379,34.2 C48.1180396,34.2 50.6364379,35.901318 50.6364379,38 L50.6364379,47.5 C50.6364379,48.5493411 51.895637,49.4 53.4489379,49.4 C55.0022387,49.4 56.2614379,48.5493411 56.2614379,47.5 L56.2614379,41.8 C56.2614379,39.7013181 58.7798359,38 61.8864379,38 C64.9930393,38 67.5114379,39.7013181 67.5114379,41.8 L67.5114379,51.3 C67.5114379,52.3493411 68.7706369,53.2 70.3239379,53.2 C71.8772389,53.2 73.1364379,52.3493411 73.1364379,51.3 L73.1364379,45.6 C73.1364379,43.5013181 75.6548359,41.8 78.7614379,41.8 C81.8680393,41.8 84.3864379,43.5013181 84.3864379,45.6 L84.3864379,58.9 C84.3864367,71.343933 73.1364367,83.2022339 73.1364379,93.1 C73.1364379,94.1493411 74.3956369,95 75.9489379,95 C77.5022389,95 78.7614379,94.1493411 78.7614379,93.1 C78.7614367,84.571106 90.0114379,71.3921755 90.0114379,58.9 L90.0114379,45.6 C90.0114379,41.4026359 84.9746413,38 78.7614379,38 C76.4458571,38 74.2936742,38.4726113 72.5047211,39.2828367 C70.9671127,36.3225725 66.793698,34.2 61.8864379,34.2 C59.5708571,34.2 57.4186742,34.6726114 55.629721,35.4828367 C54.092113,32.5225725 49.9186982,30.4 45.0114379,30.4 C42.9623227,30.4 41.0411631,30.7700983 39.3864379,31.4167447 L39.3864379,15.2 C39.3864379,11.0026359 34.3496413,7.6 28.1364379,7.6 C21.9232344,7.6 16.8864379,11.0026359 16.8864379,15.2 L16.8864379,42.5988869 C14.1047943,43.7313147 11.3201038,45.2687776 9.32797243,46.497324 Z"></path>
                        <path d="M11.25,25.2541327 C7.74920582,22.5746265 5.625,19.0548966 5.625,15.2 C5.625,6.8052718 15.6985931,0 28.125,0 C40.5514069,0 50.625,6.8052718 50.625,15.2 C50.625,19.0548966 48.5007942,22.5746265 45,25.2541327 L45,15.2 C45,8.90395385 37.4448052,3.8 28.125,3.8 C18.8051948,3.8 11.25,8.90395385 11.25,15.2 L11.25,25.2541327 Z"></path>
                    </g>
                </g>
            </g>
        </g>
    </g>
</svg>