<?xml version="1.0" encoding="UTF-8"?>
<svg width="99px" height="95px" viewBox="0 0 99 95" version="1.1" xmlns="http://www.w3.org/2000/svg" xmlns:xlink="http://www.w3.org/1999/xlink">
    <title>noun_Tips_2374908</title>
    <g id="Page-1" stroke="none" stroke-width="1" fill="none" fill-rule="evenodd">
        <g id="noun_Tips_2374908" fill="#262626" fill-rule="nonzero">
            <g id="Group" transform="translate(0.000000, 0.704569)">
                <path d="M49.5,0.400082558 C22.1898246,0.400082558 0,21.1981343 0,46.7954314 C0,56.5099547 3.27471846,65.4718238 8.72879464,72.9273355 L0.220982143,90.0494285 C-0.19541849,90.8906199 -0.00710511527,91.8860096 0.692488608,92.5417247 C1.39208233,93.1974397 2.45408087,93.373942 3.3515625,92.9836581 L21.6194196,85.0094576 C29.5674555,90.1081959 39.1501381,93.1907802 49.5,93.1907802 C76.8101754,93.1907802 99,72.3927395 99,46.7954314 C99,21.1981343 76.8101754,0.400082558 49.5,0.400082558 Z M49.5,4.81868721 C74.2623868,4.81868721 94.2857143,23.586125 94.2857143,46.7954314 C94.2857143,70.0047047 74.2623868,88.7721756 49.5,88.7721756 C39.6417497,88.7721756 30.5616371,85.7797308 23.1662946,80.7289343 C22.4686487,80.2550331 21.5507343,80.1756169 20.7723214,80.5218122 L7.21875,86.4247919 L13.5167411,73.7213035 C13.8861029,72.9917128 13.8013723,72.1313703 13.2957589,71.4774808 C7.90695557,64.5460157 4.71428571,56.0353965 4.71428571,46.7954314 C4.71428571,23.586125 24.7376132,4.81868721 49.5,4.81868721 Z M49.5,13.6558965 C36.517087,13.6558965 25.9285714,23.4881977 25.9285714,35.576318 C25.9285714,42.6080192 28.7461857,46.4915419 31.1216518,49.4880186 C33.4971179,52.4843849 35.3571429,54.5412453 35.3571429,60.0512453 C35.3572729,61.2713588 36.4125256,62.2605477 37.7142857,62.2605477 L61.2857143,62.2605477 C62.5874744,62.2605477 63.6427271,61.2713588 63.6428571,60.0512453 C63.6428571,54.5412453 65.5028821,52.4843849 67.8783482,49.4880186 C70.2538143,46.4915419 73.0714286,42.6080192 73.0714286,35.576318 C73.0714286,23.4881977 62.482913,13.6558965 49.5,13.6558965 Z M49.5,18.0745012 C59.9574278,18.0745012 68.3571429,25.8966244 68.3571429,35.576318 C68.3571429,41.6119442 66.4604714,43.914236 64.1216518,46.8644721 C62.0749553,49.4461523 59.724885,52.6889663 59.1495536,57.841943 L51.8571429,57.841943 L51.8571429,40.8924517 C54.587841,39.971757 56.5714286,37.5030649 56.5714286,34.6442686 C56.5714286,31.0099663 53.3775153,28.0163616 49.5,28.0163616 C45.6224847,28.0163616 42.4285714,31.0099663 42.4285714,34.6442686 C42.4285714,37.5030649 44.412159,39.971757 47.1428571,40.8924517 L47.1428571,57.841943 L39.8504464,57.841943 C39.275115,52.6889663 36.9250447,49.4461523 34.8783482,46.8644721 C32.5395286,43.914236 30.6428571,41.6119442 30.6428571,35.576318 C30.6428571,25.8966244 39.0425722,18.0745012 49.5,18.0745012 Z M49.5,32.4349663 C50.8297409,32.4349663 51.8571429,33.3979349 51.8571429,34.6442686 C51.8571429,35.8906134 50.8297409,36.8535709 49.5,36.8535709 C48.1702591,36.8535709 47.1428571,35.8906134 47.1428571,34.6442686 C47.1428571,33.3979349 48.1702591,32.4349663 49.5,32.4349663 Z M39.2611607,66.6791523 C38.4189145,66.7159982 37.6616399,67.1712503 37.2746614,67.8733797 C36.8876829,68.575509 36.9298081,69.4178158 37.3851652,70.0829371 C37.8405223,70.7480585 38.6399124,71.1349186 39.4821429,71.097757 L59.5178571,71.097757 C60.3679255,71.1090222 61.1586152,70.6904127 61.5871569,70.0022216 C62.0156985,69.3140305 62.0156985,68.4628788 61.5871569,67.7746877 C61.1586152,67.0864966 60.3679255,66.6678871 59.5178571,66.6791523 L39.4821429,66.6791523 C39.4085226,66.6759146 39.3347809,66.6759146 39.2611607,66.6791523 L39.2611607,66.6791523 Z M43.9754464,75.5163616 C43.1332002,75.5532075 42.3759256,76.0084596 41.9889471,76.710589 C41.6019686,77.4127183 41.6440938,78.2550251 42.0994509,78.9201465 C42.554808,79.5852678 43.3541981,79.9721279 44.1964286,79.9349663 L54.8035714,79.9349663 C55.6536398,79.9462315 56.4443295,79.527622 56.8728712,78.8394309 C57.3014128,78.1512398 57.3014128,77.3000881 56.8728712,76.611897 C56.4443295,75.9237059 55.6536398,75.5050964 54.8035714,75.5163616 L44.1964286,75.5163616 C44.1228084,75.5131239 44.0490666,75.5131239 43.9754464,75.5163616 Z" id="Shape"></path>
            </g>
        </g>
    </g>
</svg>