<?xml version="1.0" encoding="UTF-8"?>
<svg width="90px" height="90px" viewBox="0 0 90 90" version="1.1" xmlns="http://www.w3.org/2000/svg" xmlns:xlink="http://www.w3.org/1999/xlink">
    <title>Shape</title>
    <g id="Page-1" stroke="none" stroke-width="1" fill="none" fill-rule="evenodd" fill-opacity="0.7">
        <g id="noun_top-arrow_441272" fill="#6B6C6E" fill-rule="nonzero">
            <path d="M0,45 C0,69.813 20.188,90 45,90 C69.812,90 90,69.812 90,45 C90,20.188 69.813,0 45,0 C20.188,0 0,20.188 0,45 Z M45.613,18.124 C47.04,18.26 48.429,18.875 49.523,19.967 L67.61,38.055 C70.107,40.553 70.107,44.602 67.61,47.099 C65.113,49.597 61.064,49.597 58.565,47.1 L51.396,39.931 L51.396,65.51 C51.396,69.042 48.533,71.905 45,71.906 L45,71.906 C41.468,71.906 38.605,69.043 38.604,65.51 L38.605,39.928 L31.433,47.101 C28.935,49.598 24.887,49.598 22.39,47.101 C19.891,44.604 19.891,40.554 22.39,38.057 L40.476,19.968 C41.882,18.563 43.778,17.947 45.613,18.124 Z" id="Shape"></path>
        </g>
    </g>
</svg>