<svg width="40" height="34" viewBox="0 0 40 34" fill="none" xmlns="http://www.w3.org/2000/svg">
<path d="M37.1767 9.21655H40V33.9392H0V9.21655H2.82279V7.27307H5.63723V0.55915C9.402 2.77885 14.2764 5.84497 18.239 7.16342C20.8785 4.32705 26.8755 -1.67778 31.1165 0.445319V4.0242C32.6454 3.58663 33.6406 4.2811 34.5116 5.4852V7.27307H37.1767V9.21655ZM28.5475 7.46993C29.1198 6.56763 27.7454 5.69563 27.1726 6.59844C24.6605 10.559 21.195 10.7611 21.185 10.7611C20.1177 10.8196 20.206 12.4435 21.2738 12.385C21.2853 12.3845 25.5879 12.1349 28.5475 7.46993V7.46993ZM28.5475 12.904C29.1198 12.0017 27.7454 11.1297 27.1726 12.0326C24.6605 15.9931 21.195 16.1952 21.185 16.1952C20.1177 16.2537 20.206 17.8776 21.2738 17.8191C21.2853 17.8186 25.5879 17.569 28.5475 12.904ZM28.5475 18.3381C29.1198 17.4359 27.7454 16.5639 27.1726 17.4667C24.6605 21.4272 21.195 21.6293 21.185 21.6293C20.1177 21.6878 20.206 23.3117 21.2738 23.2532C21.2853 23.2527 25.5879 23.0031 28.5475 18.3381V18.3381ZM17.6767 29.823V8.6876C14.8471 7.72056 9.63488 4.77924 7.26741 3.40544V23.4772C9.43907 26.6514 12.6472 29.0555 16.4647 29.823H17.6767ZM19.3068 8.39832V29.823H20.0112C23.8961 23.3258 27.7089 22.4569 29.4863 22.4616V1.65255C25.2239 1.92773 22.021 5.44656 19.3068 8.39832V8.39832ZM31.1165 5.77447V24.4474C27.935 23.5389 26.0223 24.7769 23.7718 27.3459C26.768 25.7382 29.5532 25.793 32.8814 26.088V6.03399C32.2564 5.35675 31.5238 5.5677 31.1165 5.77447V5.77447ZM22.8653 29.823H35.5465V8.90325H34.5116V27.8801C29.8738 27.4138 26.9351 26.9569 22.8653 29.823ZM5.63723 8.90325H4.45297V29.823H11.8614C9.16442 28.4471 7.30553 26.4729 5.63723 23.9696V8.90325V8.90325ZM2.82279 10.8467H1.63018V32.309H38.3698V10.8467H37.1767V31.4532H2.82279V10.8467V10.8467Z" fill="#2E2E30"/>
</svg>
