<?xml version="1.0" encoding="UTF-8"?>
<svg width="88px" height="101px" viewBox="0 0 88 101" version="1.1" xmlns="http://www.w3.org/2000/svg" xmlns:xlink="http://www.w3.org/1999/xlink">
    <title>noun_books_70129</title>
    <g id="Page-1" stroke="none" stroke-width="1" fill="none" fill-rule="evenodd">
        <g id="noun_books_70129" fill="#000000" fill-rule="nonzero">
            <g id="Group">
                <path d="M87.3,23.7 C87.3,23.5 87.3,23.4 87.3,23.2 C87,21.2 85.3,20.2 83.6,20.9 C81.6,21.8 79.7,22.7 77.7,23.5 C74.3,24.9 71,26.4 67.5,27.8 C65.3,28.7 63.1,29.8 60.9,30.7 C57.6,32.1 54.3,33.5 50.9,34.9 C49.2,35.6 47.5,36.5 45.8,37.1 C43.3,38 40.8,38.1 38.2,37.7 C35.7,37.3 33.3,36.8 31,35.3 C32.7,34.6 34.4,33.9 36,33.1 C41,30.9 46.1,28.8 51,26.6 C55.3,24.7 59.5,22.9 63.9,21 C64.6,20.7 65.2,20.2 66.1,20.6 C67.5,21.3 68.9,21.9 70.5,22.5 C70.5,20.1 70.5,17.9 70.5,15.6 C70.5,14 68.7,12.8 67.2,13.3 C65.6,13.9 64.1,14.7 62.6,15.3 C59.3,16.6 56.1,18.1 52.9,19.5 C50.7,20.4 48.5,21.4 46.3,22.4 C43.1,23.8 39.9,25.1 36.6,26.5 C34.3,27.5 32,28.4 29.8,29.4 C27.4,30.5 25.4,32.2 25.4,35.6 C25.5,54.3 25.4,73.1 25.4,91.8 C25.4,92.5 25.5,93.1 25.8,93.8 C26.7,96.3 28.7,97.6 31,98.5 C33.5,99.5 36,100.1 38.7,100.4 C41.4,100.7 44,100.6 46.6,99.8 C50.4,98.6 53.9,96.7 57.7,95.2 C60.5,94 63.3,92.7 66,91.5 C69.8,89.9 73.6,88.3 77.5,86.6 C80.2,85.4 82.9,84.2 85.6,83.1 C86.8,82.6 87.6,81.5 87.6,80.2 C87.3,61.6 87.3,42.7 87.3,23.7 Z M66.5,77.9 C66.5,77.9 52.9,73.7 52.9,62.5 C52.9,51.3 62.6,45.4 66.2,53.1 C66.2,53.1 69.3,43 75.7,44.5 C82.2,45.7 81.2,61.1 66.5,77.9 Z" id="Shape"></path>
                <path d="M35.4,22.1 C37.5,21.2 39.6,20.2 41.7,19.3 C45.5,17.7 49.3,16.1 53.3,14.4 C56.1,13.2 59,11.9 61.8,10.7 C62.4,10.4 62.4,10.2 62.3,9.7 C62,8.8 61.4,8.3 60.6,7.9 L59.4,7.9 C57.3,8.6 55.3,9.6 53.3,10.5 C49.5,12.1 45.7,13.7 41.9,15.4 C39.2,16.6 36.5,17.8 33.7,19 C30.3,20.5 26.8,22 23.3,23.4 C17.3,25.9 12.2,24.9 11.1,24.6 C9.6,24.2 8.1,23.8 6.7,23 C6.5,22.9 6.3,22.8 6.3,22.6 C6.3,22.3 6.6,22.4 6.7,22.4 C8.5,21.6 10.2,20.8 12,20 C14.2,19.1 16.3,18.1 18.5,17.2 C22.2,15.7 25.8,14 29.6,12.5 C32.9,11.1 36.1,9.6 39.4,8.2 C40.1,7.9 40.8,7.8 41.6,8.3 C42.6,8.9 43.7,9.3 44.8,9.7 C45.3,9.9 45.8,9.9 45.7,9 C45.5,7 45.9,5 45.5,3 C45.2,1.3 43.5,0.4 42.2,0.9 C40,1.6 37.9,2.6 35.7,3.5 C33,4.6 30.4,5.9 27.7,7 C24.4,8.3 21.1,9.8 17.9,11.2 C15.7,12.2 13.6,13.1 11.4,14 C8.8,15.1 6.1,16.1 3.7,17.4 C1.9,18.4 0.6,19.7 0.6,22 C0.6,41.2 0.6,60.4 0.6,79.6 C0.6,81.5 1.5,83 2.9,84.1 C6.4,86.8 10.6,87.6 15,88 C16.4,88.1 17.8,87.8 19.2,87.8 C20.5,87.7 20.6,87.6 20.6,86.3 C20.6,69.2 20.6,52.1 20.6,35 C20.6,31 22.6,28.1 26,26.3 C29,24.7 32.2,23.5 35.4,22.1 Z" id="Path"></path>
            </g>
        </g>
    </g>
</svg>