<?xml version="1.0" encoding="UTF-8"?>
<svg width="22px" height="18px" viewBox="0 0 22 18" version="1.1" xmlns="http://www.w3.org/2000/svg" xmlns:xlink="http://www.w3.org/1999/xlink">
    <title>Group</title>
    <g id="Page-1" stroke="none" stroke-width="1" fill="none" fill-rule="evenodd">
        <g id="noun_menu_1906648" fill="#007CFF" fill-rule="nonzero">
            <g id="Group">
                <path d="M21,1.75 L1,1.75 C0.585786438,1.75 0.25,1.41421356 0.25,1 C0.25,0.585786438 0.585786438,0.25 1,0.25 L21,0.25 C21.4142136,0.25 21.75,0.585786438 21.75,1 C21.75,1.41421356 21.4142136,1.75 21,1.75 Z" id="Path"></path>
                <path d="M21,17.75 L1,17.75 C0.585786438,17.75 0.25,17.4142136 0.25,17 C0.25,16.5857864 0.585786438,16.25 1,16.25 L21,16.25 C21.4142136,16.25 21.75,16.5857864 21.75,17 C21.75,17.4142136 21.4142136,17.75 21,17.75 Z" id="Path"></path>
                <path d="M21,9.75 L1,9.75 C0.585786438,9.75 0.25,9.41421356 0.25,9 C0.25,8.58578644 0.585786438,8.25 1,8.25 L21,8.25 C21.4142136,8.25 21.75,8.58578644 21.75,9 C21.75,9.41421356 21.4142136,9.75 21,9.75 Z" id="Path"></path>
            </g>
        </g>
    </g>
</svg>