<?xml version="1.0" encoding="UTF-8"?>
<svg width="96px" height="74px" viewBox="0 0 96 74" version="1.1" xmlns="http://www.w3.org/2000/svg" xmlns:xlink="http://www.w3.org/1999/xlink">
    <title>noun_Cat_3037115</title>
    <g id="Page-1" stroke="none" stroke-width="1" fill="none" fill-rule="evenodd">
        <g id="noun_Cat_3037115" fill="#000000" fill-rule="nonzero">
            <path d="M94.5,46.3 C90.5,42.4 85.9,40.9 81.8,40.5 C81.4,37.7 80.6,35.1 79.5,32.6 C79.3,32.1 79.2,31.7 79.3,31.2 L80.6,23.5 C81,21 81.2,18.6 81.2,16.3 C81.2,12.4 80.7,8.5 79.6,4.5 C78.9,1.9 76.5,0.1 73.7,0.1 C72.2,0.1 70.7,0.7 69.6,1.7 C65.8,5.1 62.6,9.2 60.2,13.8 C59.8,14.6 58.9,15 58,14.7 C51.6,12.9 44.1,13 37.8,14.7 C36.9,14.9 36,14.6 35.6,13.7 C33.2,9.1 30,5.1 26.2,1.7 C25.1,0.7 23.7,0.1 22.1,0.1 C19.4,0.1 16.9,1.9 16.2,4.5 C15.2,8.3 14.6,12.2 14.6,16.1 C14.6,18.7 14.8,21.1 15.2,23.4 L16.5,31.1 C16.6,31.6 16.5,32 16.3,32.5 C15.2,35 14.5,37.6 14,40.4 C9.9,40.9 5.3,42.4 1.3,46.2 C-1.22124533e-14,47.5 -0.1,49.6 1.2,50.9 C1.9,51.6 2.7,51.9 3.6,51.9 C4.4,51.9 5.3,51.6 5.9,51 C8.3,48.7 11,47.7 13.5,47.2 C13.6,48.8 13.8,50.3 14.1,51.8 C11.2,52.7 8.3,54.2 5.6,56.8 C4.3,58.1 4.2,60.2 5.5,61.5 C6.2,62.2 7,62.5 7.9,62.5 C8.7,62.5 9.6,62.2 10.2,61.6 C12.1,59.7 14.3,58.7 16.4,58.1 C22.9,69.5 37.4,73.9 48,73.9 C58.6,73.9 73.1,69.5 79.3,58.3 C81.4,58.9 83.6,59.9 85.5,61.8 C86.1,62.4 87,62.7 87.8,62.7 C88.7,62.7 89.6,62.4 90.2,61.7 C91.5,60.4 91.4,58.2 90.1,57 C87.4,54.4 84.5,52.9 81.6,52 C81.9,50.5 82.1,49 82.2,47.4 C84.7,47.9 87.4,48.9 89.8,51.2 C90.4,51.8 91.3,52.1 92.1,52.1 C93,52.1 93.9,51.8 94.5,51.1 C95.8,49.7 95.8,47.6 94.5,46.3 Z M34.8,42.1 C31.6,42.1 29,39.5 29,36.3 C29,33.1 31.6,30.5 34.8,30.5 C38,30.5 40.6,33.1 40.6,36.3 C40.6,39.5 38,42.1 34.8,42.1 Z M53.7,53.1 L50,57.9 C49,59.3 46.9,59.3 45.9,57.9 L42.3,53.2 C41,51.4 42.2,49 44.4,49 L51.6,49 C53.7,49 55,51.4 53.7,53.1 Z M61.2,42.1 C58,42.1 55.4,39.5 55.4,36.3 C55.4,33.1 58,30.5 61.2,30.5 C64.4,30.5 67,33.1 67,36.3 C67,39.5 64.4,42.1 61.2,42.1 Z" id="Shape"></path>
        </g>
    </g>
</svg>