<?xml version="1.0" encoding="UTF-8"?>
<svg width="90px" height="124px" viewBox="0 0 90 124" version="1.1" xmlns="http://www.w3.org/2000/svg" xmlns:xlink="http://www.w3.org/1999/xlink">
    <!-- Generator: Sketch 64 (93537) - https://sketch.com -->
    <title>Group</title>
    <desc>Created with Sketch.</desc>
    <g id="Project-images" stroke="none" stroke-width="1" fill="none" fill-rule="evenodd">
        <g id="Key-features-project-3" transform="translate(-396.000000, 0.000000)" fill="#000000" fill-rule="nonzero">
            <g id="checklist_icon" transform="translate(396.000000, 0.000000)">
                <g id="Group">
                    <path d="M72.181,31.578 L17.926,31.578 C16.822,31.578 15.926,30.682 15.926,29.578 L15.926,13.606 C15.926,12.502 16.822,11.606 17.926,11.606 L72.181,11.606 C73.285,11.606 74.181,12.502 74.181,13.606 L74.181,29.578 C74.181,30.682 73.285,31.578 72.181,31.578 Z M19.926,27.578 L70.181,27.578 L70.181,15.606 L19.926,15.606 L19.926,27.578 Z" id="Shape"></path>
                    <path d="M88,124 L2,124 C0.896,124 0,123.104 0,122 L0,22.23 C0,21.126 0.896,20.23 2,20.23 L17.926,20.23 C19.03,20.23 19.926,21.126 19.926,22.23 L19.926,27.577 L70.181,27.577 L70.181,22.23 C70.181,21.126 71.077,20.23 72.181,20.23 L88,20.23 C89.104,20.23 90,21.126 90,22.23 L90,122 C90,123.104 89.104,124 88,124 Z M4,120 L86,120 L86,24.23 L74.181,24.23 L74.181,29.577 C74.181,30.681 73.285,31.577 72.181,31.577 L17.926,31.577 C16.822,31.577 15.926,30.681 15.926,29.577 L15.926,24.23 L4,24.23 L4,120 Z" id="Shape"></path>
                    <path d="M58.165,15.606 L31.94,15.606 C30.836,15.606 29.94,14.71 29.94,13.606 L29.94,2 C29.94,0.896 30.836,0 31.94,0 L58.165,0 C59.269,0 60.165,0.896 60.165,2 L60.165,13.606 C60.165,14.71 59.27,15.606 58.165,15.606 Z M33.94,11.606 L56.165,11.606 L56.165,4 L33.94,4 L33.94,11.606 Z" id="Shape"></path>
                    <g transform="translate(30.000000, 48.000000)" id="Path">
                        <path d="M43.772,21.483 L2.365,21.483 C1.261,21.483 0.365,20.587 0.365,19.483 C0.365,18.379 1.261,17.483 2.365,17.483 L43.772,17.483 C44.876,17.483 45.772,18.379 45.772,19.483 C45.772,20.587 44.877,21.483 43.772,21.483 Z"></path>
                        <path d="M43.772,38.733 L2.365,38.733 C1.261,38.733 0.365,37.837 0.365,36.733 C0.365,35.629 1.261,34.733 2.365,34.733 L43.772,34.733 C44.876,34.733 45.772,35.629 45.772,36.733 C45.772,37.837 44.877,38.733 43.772,38.733 Z"></path>
                        <path d="M43.772,4.234 L2.365,4.234 C1.261,4.234 0.365,3.338 0.365,2.234 C0.365,1.13 1.261,0.234 2.365,0.234 L43.772,0.234 C44.876,0.234 45.772,1.13 45.772,2.234 C45.772,3.338 44.877,4.234 43.772,4.234 Z"></path>
                        <path d="M43.772,55.982 L2.365,55.982 C1.261,55.982 0.365,55.086 0.365,53.982 C0.365,52.878 1.261,51.982 2.365,51.982 L43.772,51.982 C44.876,51.982 45.772,52.878 45.772,53.982 C45.772,55.086 44.877,55.982 43.772,55.982 Z"></path>
                    </g>
                    <g transform="translate(14.000000, 46.000000)" id="Path">
                        <path d="M4.669,8.364 C2.396,8.364 0.546,6.511 0.546,4.235 C0.546,1.958 2.396,0.105 4.669,0.105 C6.943,0.105 8.793,1.958 8.793,4.235 C8.793,6.511 6.943,8.364 4.669,8.364 Z"></path>
                        <path d="M4.669,25.4 C2.396,25.4 0.546,23.547 0.546,21.27 C0.546,18.993 2.396,17.141 4.669,17.141 C6.943,17.141 8.793,18.994 8.793,21.27 C8.793,23.548 6.943,25.4 4.669,25.4 Z"></path>
                        <path d="M4.669,42.862 C2.396,42.862 0.546,41.009 0.546,38.733 C0.546,36.457 2.396,34.604 4.669,34.604 C6.943,34.604 8.793,36.457 8.793,38.733 C8.793,41.009 6.943,42.862 4.669,42.862 Z"></path>
                        <path d="M4.669,60.112 C2.396,60.112 0.546,58.259 0.546,55.983 C0.546,53.706 2.396,51.853 4.669,51.853 C6.943,51.853 8.793,53.706 8.793,55.983 C8.793,58.259 6.943,60.112 4.669,60.112 Z"></path>
                    </g>
                </g>
            </g>
        </g>
    </g>
</svg>