<?xml version="1.0" encoding="UTF-8"?>
<svg width="18px" height="18px" viewBox="0 0 18 18" version="1.1" xmlns="http://www.w3.org/2000/svg" xmlns:xlink="http://www.w3.org/1999/xlink">
    <title>noun_Close_3318594</title>
    <g id="Page-1" stroke="none" stroke-width="1" fill="none" fill-rule="evenodd">
        <g id="noun_menu_1906648" fill="#FFFFFF" fill-rule="nonzero">
            <g id="noun_Close_3318594">
                <path d="M0.285784615,17.6328 C0.393784615,17.7410769 0.535569231,17.7945231 0.677353846,17.7945231 C0.819138462,17.7945231 0.960923077,17.7405231 1.06947692,17.6322462 L8.98504615,9.70753846 L16.9003385,17.6322462 C17.0086154,17.7410769 17.1501231,17.7945231 17.2924615,17.7945231 C17.4345231,17.7945231 17.5763077,17.7405231 17.6840308,17.6328 C17.9008615,17.4170769 17.9008615,17.0662154 17.6845846,16.8496615 L9.77732308,8.93298462 L17.6843077,1.01686154 C17.9005846,0.800307692 17.9005846,0.449723077 17.6837538,0.233723077 C17.4669231,0.0171692308 17.1168923,0.0171692308 16.9006154,0.234276923 L8.98449231,8.15926154 L1.06892308,0.234276923 C0.852369231,0.0177230769 0.501784615,0.0177230769 0.285784615,0.233723077 C0.0692307692,0.449723077 0.0692307692,0.800307692 0.285230769,1.01686154 L8.19193846,8.93298462 L0.285230769,16.8496615 C0.0692307692,17.0656615 0.0692307692,17.4170769 0.285784615,17.6328 Z" id="Path"></path>
            </g>
        </g>
    </g>
</svg>