<?xml version="1.0" encoding="UTF-8"?>
<svg width="88px" height="96px" viewBox="0 0 88 96" version="1.1" xmlns="http://www.w3.org/2000/svg" xmlns:xlink="http://www.w3.org/1999/xlink">
    <title>noun_cooking_3212286</title>
    <g id="Page-1" stroke="none" stroke-width="1" fill="none" fill-rule="evenodd">
        <g id="noun_cooking_3212286" fill="#000000" fill-rule="nonzero">
            <g id="Group">
                <path d="M87.1,18.8 C86.8,17 85.8,15.4 84.4,14.3 L67.2,1.8 C64.1,-0.4 59.8,0.2 57.6,3.3 L47.3,17.3 C45.7,19.5 45.5,22.5 46.9,24.8 L50.6,31.3 C51,31.9 50.9,32.7 50.5,33.4 C49.9,34.2 49.6,35.2 49.8,36.3 C49.8,36.6 50,36.9 50.1,37.2 L45.4,43.6 L49.8,49.7 L55.8,41.4 C55.9,41.4 55.9,41.4 56,41.4 C56.2,41.4 56.4,41.4 56.6,41.4 C57.6,41.3 58.5,40.7 59.1,39.9 C59.6,39.3 60.3,39 61,39.2 L68.3,40.8 C71,41.4 73.7,40.3 75.4,38.1 L85.7,24.1 C86.9,22.5 87.4,20.6 87.1,18.8 Z M57.5,22.8 C57,23.4 56.3,23.8 55.6,23.8 C55.1,23.8 54.6,23.7 54.2,23.3 C53.1,22.5 52.9,21 53.7,20 L61.9,8.7 C62.7,7.6 64.2,7.4 65.2,8.2 C66.3,9 66.5,10.5 65.7,11.5 L57.5,22.8 Z M62.4,28.8 C61.9,28.8 61.4,28.7 61,28.3 C59.9,27.5 59.7,26 60.5,25 L68.7,13.7 C69.5,12.6 71,12.4 72,13.2 C73.1,14 73.3,15.5 72.5,16.5 L64.3,27.8 C63.9,28.5 63.1,28.8 62.4,28.8 Z M79.4,21.5 L71.2,32.8 C70.7,33.4 70,33.8 69.3,33.8 C68.8,33.8 68.3,33.7 67.9,33.3 C66.8,32.5 66.6,31 67.4,30 L75.6,18.7 C76.4,17.6 77.9,17.4 78.9,18.2 C80,19 80.2,20.5 79.4,21.5 Z" id="Shape"></path>
                <path d="M35.2,57.7 L29.8,65 C28.2,64.3 26.2,64.7 25.1,66.1 L10.7,84.3 C9.8,85.4 9.5,86.7 9.6,88.1 C9.8,89.5 10.5,90.7 11.6,91.5 L15.7,94.5 C16.8,95.3 18.2,95.6 19.5,95.4 C20.9,95.2 22,94.4 22.8,93.2 L36,74 C37,72.5 36.8,70.5 35.7,69.2 L39.6,63.8 L35.2,57.7 Z" id="Path"></path>
                <path d="M59.9,66.1 C58.8,64.7 56.8,64.2 55.2,65 L35.2,37.7 C35.9,36.5 35.9,35 35,33.8 L34.6,33 C36,31.3 36.9,29.5 37.4,27.6 C38.5,23.5 37.3,19.1 34,14.6 C27.7,5.9 13.4,-2.9 5.3,3 C-2.7,8.9 1.3,25.2 7.6,33.8 C10.9,38.3 14.7,40.7 19,41 C19.3,41 19.5,41 19.8,41 C21.5,41 23.2,40.6 25,40 L25.5,40.7 C26.1,41.4 26.9,41.9 27.8,42.1 C28,42.1 28.2,42.1 28.3,42.1 C28.7,42.1 29.1,42 29.4,41.9 L49.3,69.2 C48.1,70.5 47.9,72.5 49,74 L62,93.3 C62.8,94.4 63.9,95.2 65.3,95.5 C66.7,95.7 68,95.4 69.1,94.6 L73.3,91.6 C74.4,90.8 75.1,89.6 75.3,88.2 C75.5,86.8 75.1,85.5 74.3,84.4 L59.9,66.1 Z M15,28.8 C14.6,29 14.2,29.2 13.8,29.2 C13,29.2 12.2,28.8 11.7,28 C8.5,22.6 7.3,16.3 7.5,12.5 C7.6,11.2 8.7,10.2 10,10.3 C11.3,10.4 12.3,11.5 12.2,12.8 C12,15.3 12.8,20.8 15.7,25.5 C16.5,26.7 16.1,28.1 15,28.8 Z" id="Shape"></path>
            </g>
        </g>
    </g>
</svg>