<?xml version="1.0" encoding="UTF-8"?>
<svg width="23px" height="22px" viewBox="0 0 23 22" version="1.1" xmlns="http://www.w3.org/2000/svg" xmlns:xlink="http://www.w3.org/1999/xlink">
    <title>dribbble</title>
    <g id="Page-1" stroke="none" stroke-width="1" fill="none" fill-rule="evenodd">
        <g id="dribbble" transform="translate(-0.000000, 0.000000)" fill="#0061C9" fill-rule="nonzero">
            <path d="M11.5,22 C5.16278124,22 0,17.0616875 0,11 C0,4.9383125 5.16278124,0 11.5,0 C17.8372187,0 23,4.9383125 23,11 C23,17.0616875 17.8372187,22 11.5,22 Z M21.1995312,12.5042499 C20.8631562,12.4031875 18.1599375,11.6304375 15.0786562,12.1027499 C16.3630624,15.4797499 16.8870313,18.2297499 16.988375,18.8024375 C19.2405422,17.3488151 20.7645384,15.0695327 21.1995312,12.5042499 L21.1995312,12.5042499 Z M15.3374062,19.6618125 C15.1915,18.838875 14.6186562,15.9665 13.2408124,12.54 L13.1775625,12.5571875 C7.62953124,14.4051875 5.64578123,18.082625 5.47328124,18.426375 C7.19286711,19.7151717 9.31542055,20.4137196 11.4999999,20.409845 C12.8591563,20.409845 14.1543438,20.145125 15.3330937,19.6645625 L15.3374062,19.6618125 Z M4.20396874,17.2981875 C4.42462499,16.9296875 7.11993749,12.6644375 12.1885625,11.0962501 C12.3157812,11.0543125 12.4465937,11.0185625 12.5738125,10.9855625 C12.3245612,10.4471958 12.0587475,9.91598526 11.7767188,9.39262501 C6.87268749,10.792375 2.1145625,10.7353125 1.68474999,10.7243125 L1.68115625,11.011 C1.68115625,13.4248125 2.63565624,15.6303125 4.20468749,17.2947499 L4.20396874,17.2981875 Z M1.88312499,9.0880625 C2.32515625,9.09562499 6.37099999,9.1128125 10.9645312,7.94612501 C9.85283284,6.07324719 8.637125,4.2586305 7.32262498,2.5100625 C4.53481123,3.76789635 2.52231769,6.20033768 1.88312499,9.08462501 L1.88312499,9.0880625 Z M9.20215623,1.8803125 C9.47168748,2.23162501 11.2570624,4.55125 12.86275,7.3803125 C16.3551562,6.13112501 17.8372187,4.2288125 18.0140312,3.9895625 C16.2219063,2.45914632 13.9024221,1.61507034 11.4999999,1.61903427 C10.7258752,1.61776291 9.95439352,1.7054754 9.20215623,1.8803125 L9.20215623,1.8803125 Z M19.1036563,5.07375 C18.8973749,5.3384375 17.25,7.3583125 13.618875,8.7759375 C13.8467187,9.2269375 14.0680937,9.67862499 14.2707813,10.1399375 C14.3491249,10.3049375 14.412375,10.4699375 14.4799374,10.6239375 C17.7488124,10.23 20.9975624,10.863875 21.3231562,10.9285 C21.3091274,8.79297208 20.5277593,6.72701441 19.1101249,5.0771875 L19.1036563,5.07375 Z" id="Icon-Shape"></path>
        </g>
    </g>
</svg>