<?xml version="1.0" encoding="UTF-8"?>
<svg width="33px" height="22px" viewBox="0 0 33 22" version="1.1" xmlns="http://www.w3.org/2000/svg" xmlns:xlink="http://www.w3.org/1999/xlink">
    <title>noun_Mail_3399287</title>
    <g id="Page-1" stroke="none" stroke-width="1" fill="none" fill-rule="evenodd">
        <g id="noun_Mail_3399287" fill="#0061C9" fill-rule="nonzero">
            <g id="Group">
                <path d="M31.9416512,1.2355814 C31.9102546,1.17576829 31.8752373,1.11812083 31.836814,1.06299225 L22.1543488,9.43356589 L31.7544419,21.0362636 C32.0428485,20.6348248 32.1991901,20.1462181 32.2000004,19.6437829 L32.2000004,2.32210853 C32.2002306,1.94321896 32.1115087,1.57008491 31.9416512,1.2355814 Z" id="Path"></path>
                <path d="M0.374418605,1.06299225 C0.335995231,1.11812083 0.300977973,1.17576829 0.269581395,1.2355814 C0.0958163923,1.56902879 0.00322247031,1.94222149 0,2.32210853 L0,19.6437829 C0.00080990232,20.1462181 0.157151536,20.6348248 0.44555814,21.0362636 L10.0456512,9.43356589 L0.374418605,1.06299225 Z" id="Path"></path>
                <path d="M16.1,12.289146 C16.741535,12.2874613 17.3624683,12.0516718 17.8560233,11.6223101 L30.9981163,0.247116279 C30.6834826,0.0813248939 30.3356189,-0.00339467751 29.9834419,-9.81375567e-05 L2.21655814,-9.81375567e-05 C1.86315371,0.00146025052 1.51522338,0.0915761009 1.20188372,0.262806202 L14.3439767,11.638 C14.8398909,12.0611391 15.4604169,12.2912295 16.1,12.289146 L16.1,12.289146 Z" id="Path"></path>
                <path d="M18.5711628,12.551938 C17.1380167,13.7968689 15.0619833,13.7968689 13.6288372,12.551938 L10.9105581,10.1984496 L1.32544186,21.7697674 C1.60625682,21.8992629 1.90974179,21.9660563 2.21655814,21.9658918 L29.9834419,21.9658918 C30.2902582,21.9660563 30.5937432,21.8992629 30.8745581,21.7697674 L21.2894419,10.1984496 L18.5711628,12.551938 Z" id="Path"></path>
            </g>
        </g>
    </g>
</svg>