<?xml version="1.0" encoding="UTF-8"?>
<svg width="23px" height="22px" viewBox="0 0 23 22" version="1.1" xmlns="http://www.w3.org/2000/svg" xmlns:xlink="http://www.w3.org/1999/xlink">
    <title>linkedin</title>
    <g id="Page-1" stroke="none" stroke-width="1" fill="none" fill-rule="evenodd">
        <g id="linkedin" fill="#0061C9" fill-rule="nonzero">
            <path d="M5.22113691,21.9999781 L5.22113691,7.15661495 L0.290841224,7.15661495 L0.290841224,21.9999781 L5.22113691,21.9999781 Z M2.75662664,5.12878898 C4.47590721,5.12878898 5.54607702,3.98899213 5.54607702,2.56462555 C5.5140447,1.10813901 4.47597316,-2.18879338e-05 2.78925256,-2.18879338e-05 C1.10279578,-2.18879338e-05 -4.39350525e-05,1.10816101 -4.39350525e-05,2.56462555 C-4.39350525e-05,3.98905813 1.06986206,5.12878898 2.72444042,5.12878898 L2.75647274,5.12878898 L2.75662664,5.12878898 Z M7.95004027,21.9999781 L12.8803359,21.9999781 L12.8803359,13.7107164 C12.8803359,13.2670869 12.9123683,12.8239193 13.0425642,12.5067896 C13.398987,11.6204325 14.210216,10.7024175 15.5721724,10.7024175 C17.3562431,10.7024175 18.0699682,12.0636001 18.0699682,14.0589981 L18.0699682,21.9999781 L22.9999561,21.9999781 L22.9999561,13.4888246 C22.9999561,8.92952719 20.56761,6.8081353 17.3237711,6.8081353 C14.6640769,6.8081353 13.4962931,8.29581781 12.8475342,9.3090708 L12.8804459,9.3090708 L12.8804459,7.15630695 L7.95004027,7.15630695 C8.01485241,8.54912556 7.95004027,21.9996701 7.95004027,21.9996701 L7.95004027,21.9999781 Z" id="Icon-Shape"></path>
        </g>
    </g>
</svg>