<?xml version="1.0" encoding="UTF-8"?>
<svg width="27px" height="21px" viewBox="0 0 27 21" version="1.1" xmlns="http://www.w3.org/2000/svg" xmlns:xlink="http://www.w3.org/1999/xlink">
    <!-- Generator: Sketch 64 (93537) - https://sketch.com -->
    <title>Icon Path</title>
    <desc>Created with Sketch.</desc>
    <g id="Mockups" stroke="none" stroke-width="1" fill="#043064" fill-rule="evenodd">
        <g id="Desktop---Project-3-Mockup" transform="translate(-828.000000, -12303.000000)" fill="#0061c9" fill-rule="nonzero">
            <g id="Footer" transform="translate(43.000000, 12205.000000)">
                <g id="Social-media" transform="translate(757.000000, 97.000000)">
                    <g id="medium" transform="translate(28.000000, 1.000000)">
                        <g id="Icon">
                            <path d="M24.5622214,2.45483142 L26.6927778,0.4410491 L26.6927778,0 L19.314032,0 L14.0554158,12.9374403 L8.07387015,0 L0.337135344,0 L0.337135344,0.4410491 L2.82568077,3.40189034 C3.06897432,3.6207054 3.19409672,3.94209002 3.16281612,4.26347463 L3.16281612,15.8982815 C3.2392798,16.3188167 3.10373054,16.7461899 2.80482704,17.0504795 L0,20.4113421 L0,20.8455532 L7.94527214,20.8455532 L7.94527214,20.4045041 L5.14392072,17.0538985 C4.83967831,16.7500449 4.69700302,16.3239362 4.75812666,15.9017005 L4.75812666,5.83620786 L11.7337002,20.8523912 L12.5435202,20.8523912 L18.5424439,5.83620786 L18.5424439,17.7992373 C18.5424439,18.113784 18.5424439,18.1787447 18.3339066,18.3873028 L16.1755453,20.4489509 L16.1755453,20.89 L26.6441191,20.89 L26.6441191,20.4489509 L24.5622214,18.4351686 C24.3814891,18.2984092 24.2876473,18.0693372 24.3258791,17.8471031 L24.3258791,3.04289689 C24.2892169,2.81908792 24.3798911,2.5934728 24.5622214,2.45483142 L24.5622214,2.45483142 Z" id="Icon-Path"></path>
                        </g>
                    </g>
                </g>
            </g>
        </g>
    </g>
</svg>