<svg width="25" height="24" viewBox="0 0 25 24" fill="none" xmlns="http://www.w3.org/2000/svg">
<path d="M4.46513 4.20793C5.24384 4.81419 5.53452 4.76814 6.99594 4.67478L20.7727 3.88178C21.0661 3.88178 20.822 3.60039 20.7247 3.55434L18.4366 1.96835C17.9979 1.64219 17.4138 1.26744 16.2951 1.36081L2.95438 2.2945C2.46902 2.34054 2.37168 2.57461 2.56502 2.76135L4.46513 4.20793ZM5.29184 7.28783V21.1909C5.29184 21.9391 5.6812 22.218 6.55858 22.1719L21.6981 21.3316C22.5741 21.2855 22.6715 20.7714 22.6715 20.1651V6.35414C22.6715 5.74788 22.4288 5.42045 21.8928 5.46777L6.07055 6.35414C5.48652 6.40019 5.29184 6.68029 5.29184 7.28783ZM20.2393 8.03351C20.3353 8.45303 20.2393 8.87383 19.7993 8.92116L19.0699 9.06057V19.3248C18.4366 19.6522 17.8525 19.839 17.3658 19.839C16.5871 19.839 16.3925 19.6049 15.8084 18.9053L11.0362 11.7197V18.6725L12.5469 18.9986C12.5469 18.9986 12.5469 19.839 11.3282 19.839L7.96932 20.0257C7.87199 19.839 7.96932 19.3734 8.31068 19.2787L9.18673 19.046V9.85357L7.96932 9.7602C7.87199 9.3394 8.116 8.73314 8.79737 8.68581L12.4002 8.45431L17.3658 15.732V9.29463L16.0991 9.15522C16.0031 8.64105 16.3925 8.26885 16.8792 8.22153L20.2393 8.03479V8.03351ZM1.83432 1.03465L15.7098 0.0549178C17.4125 -0.0857756 17.8512 0.00887259 18.9233 0.754547L23.3515 3.74108C24.0822 4.25397 24.3262 4.39339 24.3262 4.9536V21.3316C24.3262 22.3586 23.9369 22.9649 22.5741 23.0583L6.45991 23.992C5.43718 24.038 4.95049 23.8986 4.41446 23.245L1.15295 19.1854C0.568913 18.4384 0.326233 17.8795 0.326233 17.2246V2.66798C0.326233 1.82765 0.714255 1.12802 1.83432 1.03465Z" fill="black"/>
</svg>
