<?xml version="1.0" encoding="UTF-8"?>
<svg width="110px" height="95px" viewBox="0 0 110 95" version="1.1" xmlns="http://www.w3.org/2000/svg" xmlns:xlink="http://www.w3.org/1999/xlink">
    <!-- Generator: Sketch 64 (93537) - https://sketch.com -->
    <title>noun_Safety_1182981</title>
    <desc>Created with Sketch.</desc>
    <g id="Project-images" stroke="none" stroke-width="1" fill="none" fill-rule="evenodd">
        <g id="Key-features-project-3" transform="translate(-12.000000, -20.000000)" fill="#262626" fill-rule="nonzero">
            <g id="key-features" transform="translate(12.000000, 20.000000)">
                <g id="noun_Safety_1182981">
                    <g id="Group">
                        <path d="M48.515625,0.453244656 C47.5882022,0.546940817 46.7901761,1.14625629 46.4453125,2.00804374 L44.453125,6.9834232 C27.2556837,9.91918927 15.303185,21.6875665 10.0390625,37.7685346 L2.5,37.7685346 C1.11934617,37.7686716 -1.77635684e-14,38.8823648 -1.77635684e-14,40.2562181 L-1.77635684e-14,52.6946979 C-1.77635684e-14,54.0685318 1.11936569,55.1823316 2.5,55.1823316 L10,55.1823316 L21.25,55.1823316 L88.75,55.1823316 L100,55.1823316 L107.5,55.1823316 C108.880634,55.1823316 110,54.0685318 110,52.6946979 L110,40.2562181 C110,38.8823648 108.880654,37.7686716 107.5,37.7685346 L99.9609375,37.7685346 C94.696815,21.6875665 82.744315,9.91918927 65.546875,6.9834232 L63.5546875,2.00804374 C63.1743819,1.07268068 62.2639976,0.458512985 61.25,0.453244656 L48.75,0.453244656 C48.671918,0.449598945 48.593707,0.449598945 48.515625,0.453244656 L48.515625,0.453244656 Z M50.4296875,5.42861168 L59.5703125,5.42861168 L61.25,9.58772037 L61.25,21.5985794 C61.2372815,22.4957073 61.7109776,23.3301569 62.4897082,23.7824141 C63.2684389,24.2346713 64.2315611,24.2346713 65.0102918,23.7824141 C65.7890224,23.3301569 66.2627185,22.4957073 66.25,21.5985794 L66.25,12.1142751 C81.4229613,15.2341228 91.4447062,25.8320845 95.8203125,40.9170165 C96.1164541,41.9864883 97.0883741,42.7316524 98.203125,42.7439017 L105,42.7439017 L105,50.2069397 L100,50.2069397 L88.75,50.2069397 L21.25,50.2069397 L10,50.2069397 L5,50.2069397 L5,42.7439017 L11.796875,42.7439017 C12.9116259,42.7316524 13.8835459,41.9864883 14.1796875,40.9170165 C18.5552938,25.8320845 28.5770375,15.2341228 43.75,12.1142751 L43.75,21.5985794 C43.7372815,22.4957073 44.2109776,23.3301569 44.9897082,23.7824141 C45.7684389,24.2346713 46.7315611,24.2346713 47.5102918,23.7824141 C48.2890224,23.3301569 48.7627185,22.4957073 48.75,21.5985794 L48.75,9.58772037 L50.4296875,5.42861168 Z M12.265625,60.1577235 C10.9772559,60.2785501 9.9944467,61.3576649 10,62.6453573 L10,65.1331154 L2.5,65.1331154 C1.11936558,65.1332521 -3.55271368e-15,66.2469152 -3.55271368e-15,67.6207492 L-3.55271368e-15,80.0591668 C-3.55271368e-15,81.4330494 1.11931676,82.5467882 2.5,82.5469249 L10,82.5469249 L10,86.2784377 C10.0053004,86.9361892 10.2721507,87.5650858 10.7421875,88.0275805 L16.9921875,94.2467271 C17.4569605,94.7144822 18.0889766,94.9800491 18.75,94.9853425 L46.25,94.9853425 C47.1989232,94.9771451 48.061391,94.4350959 48.4765625,93.5859785 L54.7265625,81.1475609 L55,80.6033638 L55.2734375,81.1475609 L61.5234375,93.5859785 C61.938609,94.4350959 62.8010768,94.9771451 63.75,94.9853425 L91.25,94.9853425 C91.9110234,94.9800491 92.5430395,94.7144822 93.0078125,94.2467271 L99.2578125,88.0275805 C99.7278493,87.5650858 99.9946996,86.9361892 100,86.2784377 L100,82.5469249 L107.5,82.5469249 C108.880683,82.5467882 110,81.4330494 110,80.0591668 L110,67.6207492 C110,66.2469152 108.880634,65.1332521 107.5,65.1331154 L100,65.1331154 L100,62.6453573 C99.9998336,61.2715233 98.8806344,60.1578602 97.5,60.1577235 L55,60.1577235 L12.5,60.1577235 C12.421918,60.1540778 12.343707,60.1540778 12.265625,60.1577235 L12.265625,60.1577235 Z M15,65.1331154 L55,65.1331154 L95,65.1331154 L95,67.6207492 C95.0000974,68.9946318 96.1193168,70.1083707 97.5,70.1085073 L105,70.1085073 L105,77.571533 L97.5,77.571533 C96.1193656,77.5716697 95.0001664,78.6853327 95,80.0591668 L95,85.228977 L90.1953125,90.0099506 L65.3125,90.0099506 L59.7265625,78.9319635 L57.2265625,73.9565716 C56.7992818,73.1242463 55.9392601,72.6004289 55,72.6004289 C54.0607399,72.6004289 53.2007182,73.1242463 52.7734375,73.9565716 L50.2734375,78.9319635 L44.6875,90.0099506 L19.8046875,90.0099506 L15,85.228977 L15,80.0591668 C14.9998336,78.6853327 13.8806344,77.5716697 12.5,77.571533 L5,77.571533 L5,70.1085073 L12.5,70.1085073 C13.8806832,70.1083707 14.9999026,68.9946318 15,67.6207492 L15,65.1331154 L15,65.1331154 Z" id="Shape"></path>
                    </g>
                </g>
            </g>
        </g>
    </g>
</svg>