<svg width="40" height="43" viewBox="0 0 40 43" fill="none" xmlns="http://www.w3.org/2000/svg">
<path d="M0.179284 41.9599C0.00539875 42.1323 -0.0474271 42.3868 0.0447431 42.6082C0.143883 42.8462 0.38536 43 0.66022 43H4.12087C4.39967 43 4.6494 42.835 4.74258 42.589C4.86061 42.2763 4.98066 41.9756 5.10062 41.6744H8.7258C8.62363 41.8374 8.53752 41.9687 8.48038 42.0523C8.3562 42.2342 8.34281 42.4669 8.44571 42.6598C8.5576 42.8696 8.78449 42.9998 9.03798 42.9998H12.7375C13.0694 42.9998 13.3508 42.7672 13.3923 42.4589C13.428 42.1915 13.4652 41.9357 13.5016 41.6742H15.4104H24.5671H26.4988C26.5351 41.9357 26.5722 42.1918 26.6079 42.4589C26.6493 42.7672 26.9308 42.9998 27.2627 42.9998H30.9623C31.2157 42.9998 31.4424 42.8694 31.5546 42.6598C31.6574 42.4669 31.6442 42.2342 31.5199 42.0523C31.4628 41.9687 31.3766 41.8374 31.2743 41.6744H34.8994C35.0192 41.9755 35.1392 42.276 35.2571 42.5883C35.3497 42.8344 35.5996 43 35.879 43H39.3397C39.6146 43 39.8561 42.8462 39.9553 42.6082C40.0474 42.3866 39.9946 42.1321 39.8207 41.9599C39.0359 41.182 36.4083 38.3948 35.5487 35.1868C35.4262 34.7302 35.7339 34.2673 36.3141 34.0352C36.5914 33.9239 36.7874 33.6824 36.8387 33.3887C36.8905 33.0923 36.7864 32.7961 36.5607 32.5964C36.3832 32.4397 36.1628 32.2468 35.9026 32.0228C35.9512 28.9246 35.9686 22.1077 35.3401 16.8828C35.342 16.8805 35.3447 16.8788 35.3466 16.8764C35.5243 16.6601 35.594 16.3792 35.5377 16.1059L34.7083 12.0622C34.6012 11.5403 34.1345 11.1616 33.5985 11.1616H33.2169V9.56523C33.938 9.35701 34.4698 8.70181 34.4698 7.91903C34.4698 6.96976 33.6925 6.19745 32.7372 6.19745C31.7817 6.19745 31.0043 6.96976 31.0043 7.91903C31.0043 8.7019 31.5362 9.35701 32.2574 9.56523V11.1616H31.7871C31.2395 11.1616 30.7711 11.5503 30.6727 12.0854L29.9326 16.1248C29.8829 16.3959 29.9565 16.6728 30.134 16.8843C30.1372 16.888 30.1414 16.8907 30.1446 16.8944C29.7607 20.0918 29.6181 23.8827 29.5767 27.0543C29.2043 26.7868 28.8218 26.5165 28.4299 26.2443C28.4827 23.3856 28.5333 16.1615 27.8747 10.6856C27.8767 10.6833 27.8793 10.6816 27.8812 10.6793C28.059 10.4629 28.1287 10.182 28.0724 9.90869L27.2428 5.86502C27.1359 5.34314 26.669 4.96451 26.1331 4.96451H25.7515V3.36787C26.4726 3.15965 27.0044 2.50463 27.0044 1.72184C27.0044 0.772483 26.2272 0 25.2718 0C24.3163 0 23.5393 0.772483 23.5393 1.72184C23.5393 2.50472 24.0714 3.15955 24.7924 3.36787V4.96451H24.3222C23.7746 4.96451 23.306 5.35307 23.2078 5.88826L22.4677 9.92765C22.4181 10.1987 22.4915 10.4756 22.6692 10.6871C22.6722 10.6908 22.6763 10.6934 22.6794 10.697C22.4947 12.2353 22.366 13.9096 22.2775 15.5881H17.7219C17.6334 13.9096 17.5045 12.2353 17.3198 10.697C17.323 10.6934 17.3272 10.6908 17.3303 10.6871C17.5079 10.4756 17.5814 10.1987 17.5317 9.92765L16.7916 5.88844C16.6936 5.35307 16.225 4.96451 15.6773 4.96451H15.207V3.36787C15.9282 3.15965 16.4601 2.50472 16.4601 1.72184C16.4601 0.772483 15.6828 0 14.7273 0C13.7719 0 12.9947 0.772483 12.9947 1.72184C12.9947 2.50463 13.5264 3.15955 14.2477 3.36787V4.96451H13.866C13.3297 4.96451 12.8629 5.34332 12.7563 5.86521L11.9266 9.90869C11.8704 10.1823 11.9403 10.4633 12.1179 10.6796C12.1199 10.6819 12.1223 10.6835 12.1243 10.6857C11.4672 16.1511 11.5162 23.3575 11.5687 26.2278C11.1739 26.4963 10.7896 26.7613 10.422 27.02C10.38 23.8552 10.237 20.0803 9.85459 16.8942C9.8578 16.8906 9.86192 16.888 9.86504 16.8843C10.0427 16.6728 10.1161 16.3959 10.0664 16.1248L9.32633 12.0856C9.22838 11.5503 8.75973 11.1616 8.21212 11.1616H7.74182V9.56523C8.46295 9.35701 8.99479 8.70181 8.99479 7.91903C8.99479 6.96976 8.21753 6.19745 7.26217 6.19745C6.30681 6.19745 5.52937 6.96976 5.52937 7.91903C5.52937 8.7019 6.0613 9.35701 6.78252 9.56523V11.1616H6.40082C5.86458 11.1616 5.39786 11.5405 5.2912 12.0624L4.46158 16.1059C4.40536 16.3795 4.47524 16.6605 4.65289 16.8768C4.65481 16.8791 4.65729 16.8807 4.65921 16.8829C4.0309 22.1079 4.04814 28.925 4.09684 32.0229C3.83674 32.2468 3.61618 32.4397 3.4389 32.5964C3.21292 32.7963 3.10892 33.0926 3.16065 33.3889C3.212 33.6824 3.40818 33.9239 3.68569 34.0354C4.26559 34.2673 4.5731 34.7302 4.45048 35.1868C3.59123 38.3949 0.963969 41.1818 0.179284 41.9599ZM31.9641 7.91903C31.9641 7.49538 32.3112 7.15073 32.7377 7.15073C33.164 7.15073 33.511 7.49529 33.511 7.91903C33.511 8.34277 33.1642 8.68759 32.7377 8.68759C32.3112 8.6875 31.9641 8.34277 31.9641 7.91903ZM24.4991 1.72194C24.4991 1.29819 24.846 0.953371 25.2727 0.953371C25.6991 0.953371 26.046 1.2981 26.046 1.72194C26.046 2.14558 25.6992 2.49023 25.2727 2.49023C24.846 2.49023 24.4991 2.14558 24.4991 1.72194ZM13.9546 1.72194C13.9546 1.29819 14.3014 0.953371 14.7279 0.953371C15.1543 0.953371 15.5014 1.2981 15.5014 1.72194C15.5014 2.14558 15.1543 2.49023 14.7279 2.49023C14.3014 2.49023 13.9546 2.14558 13.9546 1.72194ZM6.48923 7.91903C6.48923 7.49538 6.83626 7.15073 7.26272 7.15073C7.68909 7.15073 8.03594 7.49529 8.03594 7.91903C8.03594 8.34277 7.68909 8.68759 7.26272 8.68759C6.83626 8.6875 6.48923 8.34277 6.48923 7.91903ZM5.49205 40.7212C6.62102 38.0424 7.81052 35.8551 8.94389 34.1459C9.4495 33.3835 9.94263 32.7163 10.4144 32.1429C11.1174 31.2882 11.7726 30.6343 12.3411 30.1925C12.365 30.1731 12.4054 30.1718 12.4379 30.1782C11.8684 35.263 10.288 38.86 9.27845 40.7214L5.49205 40.7212ZM24.5671 40.7212V39.0069C24.5671 36.704 22.6815 34.8306 20.3641 34.8306H19.6134C17.2959 34.8306 15.4104 36.7041 15.4104 39.0069V40.7212H13.6365C14.1433 37.2588 14.7091 34.3321 15.3231 32.0103C15.7095 30.5487 16.449 29.1768 17.5004 27.9487C17.6082 27.8228 17.7278 27.7028 17.8422 27.5799C18.4035 26.977 19.0335 26.4074 19.7461 25.8874C19.9025 25.8102 20.0855 25.809 20.2578 25.8896C20.9689 26.409 21.5977 26.9776 22.1582 27.5798C22.2726 27.7026 22.3924 27.8228 22.5002 27.9487C23.5514 29.1769 24.2906 30.5487 24.6773 32.0103C25.2913 34.3321 25.857 37.2588 26.3639 40.7212H24.5671ZM30.722 40.7212C29.7124 38.8597 28.1319 35.2628 27.5624 30.178C27.5948 30.1718 27.6352 30.173 27.6594 30.1922C28.2279 30.6343 28.8833 31.288 29.5862 32.1427C30.058 32.7162 30.5511 33.3834 31.0567 34.1458C32.1899 35.855 33.3794 38.0424 34.5084 40.721L30.722 40.7212ZM38.5777 42.0467H36.077C36.0287 41.9201 35.98 41.7986 35.9317 41.6744C35.8049 41.3491 35.6778 41.0307 35.5505 40.7212C34.4108 37.9478 33.2597 35.796 32.2095 34.1459C31.9946 33.8083 31.7836 33.4895 31.5782 33.1928C31.5304 33.1237 31.4839 33.0586 31.4367 32.9919C31.1238 32.5485 30.8233 32.1491 30.5399 31.7957C30.1877 31.3562 29.8621 30.9851 29.5681 30.6715C28.9817 30.0459 28.5235 29.6538 28.2506 29.4415C27.917 29.1823 27.4376 29.1483 27.0579 29.3584C26.7378 29.5351 26.5619 29.8546 26.5987 30.192C27.1351 35.099 28.5575 38.6421 29.631 40.7212C29.8175 41.0822 29.9937 41.4026 30.1527 41.6744C30.231 41.8089 30.3062 41.9345 30.3756 42.0467H27.5201C27.5028 41.92 27.4849 41.7999 27.4675 41.6744C27.4232 41.3532 27.3784 41.034 27.3329 40.7212C26.8157 37.163 26.2359 34.1543 25.6049 31.7679C25.2452 30.4083 24.6077 29.1237 23.7241 27.9487C23.2582 27.3292 22.7249 26.7395 22.1248 26.1869C21.7108 25.8059 21.2666 25.4417 20.7919 25.0969L20.7155 25.0512C20.2574 24.8113 19.713 24.8164 19.2598 25.0642L19.2079 25.0969C18.7332 25.4417 18.2889 25.8059 17.875 26.1869C17.2747 26.7395 16.7416 27.3292 16.2756 27.9487C15.3921 29.1239 14.7546 30.4083 14.395 31.7679C13.7639 34.1543 13.184 37.1631 12.6668 40.7212C12.6213 41.034 12.5767 41.3533 12.5323 41.6744C12.515 41.7999 12.4969 41.92 12.4796 42.0467H9.62421C9.69354 41.9345 9.76865 41.8089 9.84716 41.6744C10.006 41.4027 10.1824 41.0823 10.3688 40.7212C11.4422 38.6422 12.8648 35.0992 13.4013 30.1922C13.4381 29.8546 13.2622 29.5351 12.9421 29.3584C12.5625 29.1487 12.0834 29.1823 11.7494 29.4415C11.4764 29.6538 11.0182 30.0461 10.4319 30.6715C10.1379 30.9853 9.8124 31.3564 9.46013 31.7958C9.17675 32.1495 8.87602 32.5488 8.56301 32.9924C8.51605 33.059 8.46937 33.1239 8.42187 33.1928C8.21643 33.4895 8.0054 33.8083 7.79062 34.1459C6.83076 35.6544 5.78626 37.5825 4.74322 40.0208C4.51779 40.5476 4.29264 41.0989 4.06832 41.6744C4.01989 41.7986 3.97138 41.9201 3.92304 42.0467H1.42271C2.17841 41.2283 3.32674 39.8493 4.24092 38.184C4.70993 37.3298 5.11841 36.4016 5.37823 35.4322C5.48407 35.0372 5.43895 34.6432 5.28074 34.286C5.26002 34.2391 5.24332 34.1913 5.21856 34.1459C5.00799 33.7607 4.65353 33.4306 4.18644 33.2124C4.41884 33.0082 4.71479 32.7512 5.06421 32.454C5.33173 32.2264 5.63218 31.974 5.96225 31.7008V31.7309L5.97252 31.6922C6.12348 31.5675 6.27866 31.4397 6.4419 31.3066C6.59607 31.1807 6.75684 31.0507 6.92156 30.9182C7.02602 30.8341 7.13112 30.7496 7.23961 30.6631C7.35829 30.5685 7.48045 30.4716 7.60398 30.3742C7.76035 30.2508 7.91993 30.1255 8.08373 29.9977C8.24037 29.8757 8.40004 29.7521 8.56329 29.6266C8.85777 29.4002 9.16345 29.1681 9.47802 28.9323C9.78745 28.7004 10.1067 28.4643 10.4342 28.2253C10.4342 28.2116 10.434 28.1975 10.4339 28.1838C10.806 27.9173 11.1924 27.6451 11.5951 27.367C11.9013 27.1555 12.2152 26.9414 12.5388 26.7242C12.8006 26.5485 13.0679 26.3711 13.341 26.1922C13.3693 26.1737 13.399 26.1548 13.4274 26.1363V26.1342C13.5858 26.0285 13.7463 25.9231 13.907 25.8174C14.0656 25.713 14.2257 25.6091 14.3867 25.505C14.6121 25.3594 14.8396 25.2141 15.069 25.0691C15.2281 24.9687 15.3879 24.8687 15.5488 24.7689C15.708 24.6701 15.8674 24.5713 16.0283 24.4732C16.3295 24.2894 16.6344 24.1075 16.9413 23.9268C17.2591 23.7398 17.5791 23.554 17.9024 23.371C18.5911 22.9812 19.2913 22.6018 20.0002 22.2376C20.709 22.6016 21.4092 22.981 22.0979 23.371C22.4212 23.554 22.7412 23.7398 23.0589 23.9268C23.3659 24.1075 23.6707 24.2894 23.9718 24.4731C24.1328 24.5712 24.2922 24.67 24.4515 24.7689C24.6124 24.8686 24.7721 24.9687 24.9311 25.069C25.1607 25.214 25.3882 25.3595 25.6137 25.505C25.7745 25.6091 25.9347 25.713 26.0932 25.8173C26.2541 25.9229 26.4145 26.0284 26.5728 26.1342C26.8738 26.335 27.1692 26.5354 27.4609 26.7357C27.7811 26.9553 28.0961 27.1742 28.4042 27.3915C28.8025 27.6725 29.1896 27.9508 29.5659 28.2253C29.8934 28.4643 30.2128 28.7004 30.5223 28.9323C30.8367 29.1681 31.1424 29.4 31.4368 29.6264C31.6001 29.7519 31.7597 29.8756 31.9165 29.9977C32.0803 30.1252 32.2397 30.2505 32.396 30.374C32.6324 30.5606 32.8599 30.7421 33.0784 30.9182C33.2433 31.0506 33.404 31.1807 33.558 31.3066C33.725 31.4427 33.8836 31.5734 34.0376 31.7008C34.0842 31.7393 34.1307 31.7777 34.176 31.8154C34.4523 32.045 34.7057 32.2582 34.9354 32.4538C35.2851 32.7513 35.5811 33.0082 35.8134 33.2124C35.3695 33.4198 35.0314 33.7302 34.8178 34.0908C34.8065 34.1097 34.7918 34.1269 34.7813 34.1459C34.5672 34.5375 34.5018 34.9857 34.6216 35.4322C34.956 36.6798 35.5341 37.8622 36.1747 38.9017C37.0021 40.2442 37.9331 41.3486 38.5777 42.0467ZM17.8559 19.1265C18.2005 18.6852 18.8385 18.1586 19.9423 18.1463C21.1462 18.1524 21.8249 18.7394 22.1443 19.1303C22.1175 20.2391 22.1041 21.3031 22.0997 22.2788C21.4803 21.9352 20.8531 21.5997 20.2185 21.2776L20.0002 21.1668L19.8465 21.2448H19.8329L19.7266 21.3014C19.6625 21.3355 19.601 21.3698 19.5372 21.404C18.986 21.6873 18.4402 21.9796 17.9007 22.2788C17.8962 21.3019 17.8828 20.2367 17.8559 19.1265ZM31.6172 12.2564C31.6322 12.1745 31.704 12.1149 31.7876 12.1149H33.5989C33.6808 12.1149 33.7523 12.1727 33.7688 12.2527L34.5915 16.264H30.8829L31.6172 12.2564ZM31.0722 17.2171H34.4148C34.9629 21.9498 34.9904 27.9344 34.9542 31.2191C34.6733 30.9848 34.367 30.7321 34.0383 30.4652V26.5461C34.0383 25.8336 33.4549 25.2538 32.7377 25.2538C32.0206 25.2538 31.4369 25.8335 31.4369 26.5461V28.4257C31.1426 28.2031 30.8406 27.9768 30.5288 27.7468C30.5572 24.5433 30.6843 20.5664 31.0722 17.2171ZM24.1521 6.05922C24.1669 5.97729 24.2386 5.91769 24.3225 5.91769H26.1337C26.2158 5.91769 26.2869 5.97565 26.3035 6.05548L27.1263 10.0668H23.4176L24.1521 6.05922ZM23.6068 11.0199H26.9496C27.5312 16.0423 27.5268 22.4758 27.4818 25.5948C27.1832 25.3934 26.8802 25.1916 26.5731 24.9901V20.3487C26.5731 19.6362 25.9896 19.0565 25.2725 19.0565C24.5553 19.0565 23.9717 19.6361 23.9717 20.3487V23.3582C23.6691 23.1773 23.365 22.9969 23.0569 22.8193C23.0585 21.8359 23.0684 20.7473 23.0927 19.6026C23.1201 18.3097 23.1656 16.9477 23.238 15.5878C23.3213 14.0235 23.4397 12.4633 23.6068 11.0199ZM22.2319 16.5413C22.2122 16.9887 22.1952 17.4339 22.1803 17.8754C21.6635 17.511 20.9341 17.1983 19.9391 17.1931C19.0095 17.2034 18.3217 17.4884 17.8187 17.8473C17.8042 17.415 17.7875 16.9793 17.7682 16.5414L22.2319 16.5413ZM13.6969 6.0553C13.7133 5.97565 13.7844 5.91769 13.8665 5.91769H15.6778C15.7616 5.91769 15.8332 5.97702 15.8481 6.05922L16.5824 10.0668H12.8737L13.6969 6.0553ZM13.0506 11.0199H16.3933C16.5604 12.4633 16.6788 14.0235 16.7621 15.5881C16.8345 16.948 16.8802 18.31 16.9075 19.6029C16.9317 20.7476 16.9417 21.8362 16.9432 22.8196C16.6353 22.9972 16.3309 23.1776 16.0283 23.3587V20.349C16.0283 19.6365 15.4449 19.0567 14.7278 19.0567C14.0107 19.0567 13.4272 19.6364 13.4272 20.349V24.9904C13.2261 25.1223 13.0267 25.2543 12.8293 25.3862C12.7239 25.4552 12.6221 25.5232 12.5183 25.5917C12.4734 22.4713 12.4694 16.0405 13.0506 11.0199ZM6.23188 12.2525C6.24821 12.1727 6.31938 12.1149 6.40146 12.1149H8.21276C8.2965 12.1149 8.36812 12.1742 8.38307 12.2564L9.11741 16.264H5.40868L6.23188 12.2525ZM5.58541 17.2171H8.92821C9.31413 20.5501 9.44188 24.5046 9.47105 27.6999C9.15602 27.9282 8.85456 28.1505 8.56319 28.368V26.5461C8.56319 25.8336 7.97972 25.2538 7.26272 25.2538C6.54563 25.2538 5.96216 25.8335 5.96216 26.5461V30.4652C5.63347 30.7324 5.32687 30.9849 5.04596 31.2194C5.00974 27.9344 5.03762 21.9498 5.58541 17.2171Z" fill="#2E2E30"/>
<path d="M14.1667 14.0577H13.3333V14.8846H14.1667V14.0577Z" fill="#2E2E30"/>
<path d="M15.8333 14.0577H15V14.8846H15.8333V14.0577Z" fill="#2E2E30"/>
<path d="M14.1667 15.7115H13.3333V16.5385H14.1667V15.7115Z" fill="#2E2E30"/>
<path d="M15.8333 15.7115H15V16.5385H15.8333V15.7115Z" fill="#2E2E30"/>
<path d="M6.66666 19.8462H5.83333V21.5H6.66666V19.8462Z" fill="#2E2E30"/>
<path d="M8.33333 19.8462H7.5V21.5H8.33333V19.8462Z" fill="#2E2E30"/>
<path d="M6.66666 21.5H5.83333V22.3269H6.66666V21.5Z" fill="#2E2E30"/>
<path d="M8.33333 21.5H7.5V22.3269H8.33333V21.5Z" fill="#2E2E30"/>
<path d="M26.6667 14.0577H25.8333V14.8846H26.6667V14.0577Z" fill="#2E2E30"/>
<path d="M25 14.0577H24.1667V14.8846H25V14.0577Z" fill="#2E2E30"/>
<path d="M26.6667 15.7115H25.8333V16.5385H26.6667V15.7115Z" fill="#2E2E30"/>
<path d="M25 15.7115H24.1667V16.5385H25V15.7115Z" fill="#2E2E30"/>
<path d="M34.1667 19.8462H33.3333V21.5H34.1667V19.8462Z" fill="#2E2E30"/>
<path d="M32.5 19.8462H31.6667V21.5H32.5V19.8462Z" fill="#2E2E30"/>
<path d="M34.1667 21.5H33.3333V22.3269H34.1667V21.5Z" fill="#2E2E30"/>
<path d="M32.5 21.5H31.6667V22.3269H32.5V21.5Z" fill="#2E2E30"/>
<path d="M21.1308 30.1799L21.6667 29.9394L21.2833 28.9423L20.7477 29.183C20.2418 29.4108 19.6657 29.4003 19.1666 29.1556L18.7461 28.9493L18.3333 29.9323L18.7539 30.1385C18.9955 30.257 19.2497 30.3344 19.508 30.3796V31.9973H18.4752V33.0769H21.5392V31.9973H20.5067V30.3739C20.7194 30.3336 20.929 30.2705 21.1308 30.1799Z" fill="#2E2E30"/>
</svg>
