<?xml version="1.0" encoding="UTF-8"?>
<svg width="116px" height="128px" viewBox="0 0 116 128" version="1.1" xmlns="http://www.w3.org/2000/svg" xmlns:xlink="http://www.w3.org/1999/xlink">
    <title>noun_barcelona_1039408</title>
    <g id="Page-1" stroke="none" stroke-width="1" fill="none" fill-rule="evenodd">
        <g id="noun_barcelona_1039408" fill="#000000" fill-rule="nonzero">
            <g id="Group">
                <path d="M104.489685,126 L104.489685,51.5761719 L98.5487671,24.2993164 C100.662781,24.0932617 102.328552,22.3344726 102.328552,20.1669922 C102.328552,17.8603516 100.452576,15.984375 98.1469117,15.984375 C95.8402711,15.984375 93.9642945,17.8603516 93.9642945,20.1669922 C93.9642945,22.3344727 95.6301881,24.0932617 97.7450562,24.2993164 L91.8041382,51.5761719 L91.8041382,126 L89.8041382,126 L89.8041382,42.2958984 L82.7283325,9.8085937 C85.2927856,9.6425781 87.3353882,7.527832 87.3353882,4.9218749 C87.3353882,2.2080077 85.1273804,-1.00000005e-07 82.4135132,-1.00000005e-07 C79.699646,-1.00000005e-07 77.4916382,2.2080077 77.4916382,4.9218749 C77.4916382,7.5278319 79.5341187,9.6420897 82.0988159,9.8081054 L75.0230102,42.2958984 L75.0230102,126 L73.0234985,126 L73.0327758,94.2866211 C70.3425903,99.9785156 64.5615844,103.935547 57.8589477,103.935547 C51.3948364,103.935547 45.7815551,100.258789 42.9761352,94.8916016 L42.9761352,126 L40.9761352,126 L40.9761352,42.2958984 L33.901184,9.8085937 C36.4656371,9.6425781 38.5073852,7.527832 38.5073852,4.9218749 C38.5073853,2.2080078 36.300354,-1.00000005e-07 33.5864868,-1.00000005e-07 C30.8726196,-1.00000005e-07 28.6646118,2.2080078 28.6646118,4.921875 C28.6646118,7.527832 30.7070923,9.6425781 33.2717895,9.8081055 L26.1958618,42.2958985 L26.1958618,61.96875 L26.1958618,126 L24.1958618,126 L24.1958618,51.5761719 L18.2549438,24.2993164 C20.3689575,24.0932617 22.034729,22.3339844 22.034729,20.1669922 C22.034729,17.8603516 20.1587524,15.984375 17.8530884,15.984375 C15.5464478,15.984375 13.6704712,17.8603516 13.6704712,20.1669922 C13.6704712,22.3344727 15.3362427,24.0932617 17.4512329,24.2993164 L11.5103149,51.5761719 L11.5103149,126 L0.0982056,126 L0.0982056,128 L115.901794,128 L115.901794,126 L104.489685,126 Z M97.1469116,67.1494141 L99.1469116,67.1494141 L99.1469116,84.2333985 L97.1469116,84.2333985 L97.1469116,67.1494141 Z M97.1469116,98.1289063 L99.1469116,98.1289063 L99.1469116,115.212891 L97.1469116,115.212891 L97.1469116,98.1289063 Z M81.4135132,58.6083984 L83.4135132,58.6083984 L83.4135132,78.1308593 L81.4135132,78.1308593 L81.4135132,58.6083984 Z M81.4135132,94.0087891 L83.4135132,94.0087891 L83.4135132,113.53125 L81.4135132,113.53125 L81.4135132,94.0087891 Z M32.5864868,58.6083984 L34.5864868,58.6083984 L34.5864868,78.1308593 L32.5864868,78.1308593 L32.5864868,58.6083984 Z M32.5864868,94.0087891 L34.5864868,94.0087891 L34.5864868,113.53125 L32.5864868,113.53125 L32.5864868,94.0087891 Z M16.8530884,67.1494141 L18.8530884,67.1494141 L18.8530884,84.2333985 L16.8530884,84.2333985 L16.8530884,67.1494141 Z M16.8530884,98.1289063 L18.8530884,98.1289063 L18.8530884,115.212891 L16.8530884,115.212891 L16.8530884,98.1289063 Z" id="Shape"></path>
                <path d="M57.8589478,70.3525391 C64.5650025,70.3525391 70.3486939,74.3139649 73.0371705,80.0112305 L73.0422975,62.4462891 C63.0659791,58.7285157 52.9551393,58.6948243 42.9761354,62.3403321 L42.9761354,79.397461 C45.7815552,74.0297852 51.3948364,70.3525391 57.8589478,70.3525391 Z" id="Path"></path>
                <path d="M73.0430298,60.3256836 L73.0440064,57.2407227 C63.0669556,53.5214844 52.9556275,53.4882813 42.9761353,57.1342774 L42.9761353,60.2172852 C52.9595337,56.7329102 63.0620728,56.7700195 73.0430298,60.3256836 Z" id="Path"></path>
                <path d="M57.8589478,72.3525391 C49.7026978,72.3525391 43.0669556,78.9882813 43.0669556,87.1445313 C43.0669556,95.3007813 49.7026978,101.935547 57.8589478,101.935547 C66.0151978,101.935547 72.6499634,95.3007813 72.6499634,87.1445313 C72.6499634,78.9882813 66.0151978,72.3525391 57.8589478,72.3525391 Z" id="Path"></path>
            </g>
        </g>
    </g>
</svg>