<?xml version="1.0" encoding="UTF-8"?>
<svg width="95px" height="95px" viewBox="0 0 95 95" version="1.1" xmlns="http://www.w3.org/2000/svg" xmlns:xlink="http://www.w3.org/1999/xlink">
    <!-- Generator: Sketch 64 (93537) - https://sketch.com -->
    <title>noun_Search_3255969</title>
    <desc>Created with Sketch.</desc>
    <g id="Project-images" stroke="none" stroke-width="1" fill="none" fill-rule="evenodd">
        <g id="Key-features-project-3" transform="translate(-222.000000, -20.000000)" fill="#000000" fill-rule="nonzero">
            <g id="key-features" transform="translate(12.000000, 20.000000)">
                <g id="noun_Search_3255969" transform="translate(210.000000, 0.000000)">
                    <path d="M92.4702768,80.2527935 L71.775289,59.5580113 C70.8941955,58.6771734 69.4659429,58.6771734 68.5848494,59.5580113 L65.6651684,62.4754706 L59.5171415,56.3269194 C71.5798503,42.5430509 70.5384763,21.6764599 57.1633221,9.16213081 C43.7881679,-3.35219831 22.8987411,-3.0049416 9.94691757,9.9470357 C-3.00490592,22.899013 -3.3521585,43.7886879 9.162022,57.1640009 C21.6762025,70.539314 42.5425457,71.5807004 56.3262505,59.5178483 L62.4747287,65.6659482 L59.557304,68.5834075 C58.6764765,69.4645115 58.6764765,70.8927811 59.557304,71.773885 L80.2518405,92.4691186 C83.6252454,95.8431866 89.0951205,95.8436916 92.4691485,92.4702466 C95.8431765,89.0968017 95.8436816,83.6268616 92.4702768,80.2527935 Z M4.7444674,34.0770614 C4.7444674,17.8771482 17.8769359,4.74452374 34.0766567,4.74452374 C50.2763776,4.74452374 63.4088461,17.8771482 63.4088461,34.0770614 C63.4088461,50.2769747 50.2763776,63.4095991 34.0766567,63.4095991 C17.8846676,63.3909481 4.7631182,50.2692429 4.7444674,34.0770614 Z M89.2771295,89.2781897 C87.6649942,90.8868913 85.0548667,90.8868913 83.4427314,89.2781897 L64.3429635,70.1786463 L70.1778129,64.3437276 L89.2771295,83.4459787 C90.8843116,85.0578728 90.8843116,87.6662956 89.2771295,89.2781897 Z" id="Shape"></path>
                </g>
            </g>
        </g>
    </g>
</svg>