<svg width="40" height="46" viewBox="0 0 40 46" fill="none" xmlns="http://www.w3.org/2000/svg">
<path d="M4.28583 5.71444C3.7175 5.71444 3.17244 5.48867 2.77056 5.0868C2.36869 4.68492 2.14292 4.13986 2.14292 3.57153V2.14292C2.14292 1.57458 2.36869 1.02952 2.77056 0.627646C3.17244 0.225771 3.7175 0 4.28583 0C4.85417 0 5.39923 0.225771 5.8011 0.627646C6.20298 1.02952 6.42875 1.57458 6.42875 2.14292V3.57153C6.42875 4.13986 6.20298 4.68492 5.8011 5.0868C5.39923 5.48867 4.85417 5.71444 4.28583 5.71444V5.71444ZM4.28583 1.42861C4.09639 1.42861 3.9147 1.50387 3.78074 1.63783C3.64678 1.77178 3.57153 1.95347 3.57153 2.14292V3.57153C3.57153 3.76097 3.64678 3.94266 3.78074 4.07662C3.9147 4.21058 4.09639 4.28583 4.28583 4.28583C4.47528 4.28583 4.65696 4.21058 4.79092 4.07662C4.92488 3.94266 5.00014 3.76097 5.00014 3.57153V2.14292C5.00014 1.95347 4.92488 1.77178 4.79092 1.63783C4.65696 1.50387 4.47528 1.42861 4.28583 1.42861V1.42861Z" fill="#2E2E30"/>
<path d="M12.8575 5.71444C12.2892 5.71444 11.7441 5.48867 11.3422 5.0868C10.9404 4.68492 10.7146 4.13986 10.7146 3.57153V2.14292C10.7146 1.57458 10.9404 1.02952 11.3422 0.627646C11.7441 0.225771 12.2892 0 12.8575 0C13.4258 0 13.9709 0.225771 14.3728 0.627646C14.7746 1.02952 15.0004 1.57458 15.0004 2.14292V3.57153C15.0004 4.13986 14.7746 4.68492 14.3728 5.0868C13.9709 5.48867 13.4258 5.71444 12.8575 5.71444ZM12.8575 1.42861C12.6681 1.42861 12.4864 1.50387 12.3524 1.63783C12.2184 1.77178 12.1432 1.95347 12.1432 2.14292V3.57153C12.1432 3.76097 12.2184 3.94266 12.3524 4.07662C12.4864 4.21058 12.6681 4.28583 12.8575 4.28583C13.0469 4.28583 13.2286 4.21058 13.3626 4.07662C13.4965 3.94266 13.5718 3.76097 13.5718 3.57153V2.14292C13.5718 1.95347 13.4965 1.77178 13.3626 1.63783C13.2286 1.50387 13.0469 1.42861 12.8575 1.42861V1.42861Z" fill="#2E2E30"/>
<path d="M21.4292 5.71444C20.8608 5.71444 20.3158 5.48867 19.9139 5.0868C19.512 4.68492 19.2862 4.13986 19.2862 3.57153V2.14292C19.2862 1.57458 19.512 1.02952 19.9139 0.627646C20.3158 0.225771 20.8608 0 21.4292 0C21.9975 0 22.5426 0.225771 22.9444 0.627646C23.3463 1.02952 23.5721 1.57458 23.5721 2.14292V3.57153C23.5721 4.13986 23.3463 4.68492 22.9444 5.0868C22.5426 5.48867 21.9975 5.71444 21.4292 5.71444ZM21.4292 1.42861C21.2397 1.42861 21.058 1.50387 20.9241 1.63783C20.7901 1.77178 20.7149 1.95347 20.7149 2.14292V3.57153C20.7149 3.76097 20.7901 3.94266 20.9241 4.07662C21.058 4.21058 21.2397 4.28583 21.4292 4.28583C21.6186 4.28583 21.8003 4.21058 21.9343 4.07662C22.0682 3.94266 22.1435 3.76097 22.1435 3.57153V2.14292C22.1435 1.95347 22.0682 1.77178 21.9343 1.63783C21.8003 1.50387 21.6186 1.42861 21.4292 1.42861V1.42861Z" fill="#2E2E30"/>
<path d="M30.0008 5.71444C29.4325 5.71444 28.8874 5.48867 28.4856 5.0868C28.0837 4.68492 27.8579 4.13986 27.8579 3.57153V2.14292C27.8579 1.57458 28.0837 1.02952 28.4856 0.627646C28.8874 0.225771 29.4325 0 30.0008 0C30.5692 0 31.1142 0.225771 31.5161 0.627646C31.918 1.02952 32.1437 1.57458 32.1437 2.14292V3.57153C32.1437 4.13986 31.918 4.68492 31.5161 5.0868C31.1142 5.48867 30.5692 5.71444 30.0008 5.71444V5.71444ZM30.0008 1.42861C29.8114 1.42861 29.6297 1.50387 29.4957 1.63783C29.3618 1.77178 29.2865 1.95347 29.2865 2.14292V3.57153C29.2865 3.76097 29.3618 3.94266 29.4957 4.07662C29.6297 4.21058 29.8114 4.28583 30.0008 4.28583C30.1903 4.28583 30.372 4.21058 30.5059 4.07662C30.6399 3.94266 30.7151 3.76097 30.7151 3.57153V2.14292C30.7151 1.95347 30.6399 1.77178 30.5059 1.63783C30.372 1.50387 30.1903 1.42861 30.0008 1.42861V1.42861Z" fill="#2E2E30"/>
<path d="M11.4289 2.14294H5.71444V3.57156H11.4289V2.14294Z" fill="#2E2E30"/>
<path d="M20.0006 2.14294H14.2861V3.57156H20.0006V2.14294Z" fill="#2E2E30"/>
<path d="M28.5722 2.14294H22.8578V3.57156H28.5722V2.14294Z" fill="#2E2E30"/>
<path d="M2.85722 8.57169H0.714306C0.52486 8.57169 0.343174 8.49644 0.209215 8.36248C0.0752571 8.22852 0 8.04683 0 7.85739V2.85725C0 2.6678 0.0752571 2.48612 0.209215 2.35216C0.343174 2.2182 0.52486 2.14294 0.714306 2.14294H2.85722V3.57156H1.42861V7.14308H2.85722V8.57169Z" fill="#2E2E30"/>
<path d="M33.5724 8.57169H4.28583V7.14308H32.8581V3.57156H31.4294V2.14294H33.5724C33.7618 2.14294 33.9435 2.2182 34.0775 2.35216C34.2114 2.48612 34.2867 2.6678 34.2867 2.85725V7.85739C34.2867 8.04683 34.2114 8.22852 34.0775 8.36248C33.9435 8.49644 33.7618 8.57169 33.5724 8.57169Z" fill="#2E2E30"/>
<path d="M32.1437 45.7156H2.14292C1.57458 45.7156 1.02952 45.4898 0.627645 45.088C0.225771 44.6861 0 44.141 0 43.5727V7.85742H1.42861V43.5727C1.42861 43.7621 1.50387 43.9438 1.63783 44.0778C1.77178 44.2117 1.95347 44.287 2.14292 44.287H32.1437C32.3332 44.287 32.5149 44.2117 32.6488 44.0778C32.7828 43.9438 32.8581 43.7621 32.8581 43.5727V31.4295H34.2867V43.5727C34.2867 44.141 34.0609 44.6861 33.659 45.088C33.2571 45.4898 32.7121 45.7156 32.1437 45.7156V45.7156Z" fill="#2E2E30"/>
<path d="M22.5942 40.2496C22.4048 40.2496 22.2231 40.1744 22.0891 40.0404C21.9551 39.9065 21.8799 39.7248 21.8799 39.5353V37.4074H19.752C19.6107 37.4074 19.4726 37.3655 19.3552 37.287C19.2378 37.2085 19.1462 37.0969 19.0922 36.9664C19.0381 36.8359 19.024 36.6923 19.0515 36.5538C19.0791 36.4153 19.1471 36.288 19.247 36.1881L35.351 20.0841C35.8695 19.5879 36.5594 19.3109 37.2771 19.3109C37.9948 19.3109 38.6847 19.5879 39.2032 20.0841C39.7134 20.5952 40 21.288 40 22.0102C40 22.7324 39.7134 23.4252 39.2032 23.9363L23.0992 40.0403C22.9653 40.1743 22.7836 40.2496 22.5942 40.2496V40.2496ZM21.4763 35.9788H22.5942C22.7836 35.9788 22.9653 36.0541 23.0993 36.188C23.2332 36.322 23.3085 36.5037 23.3085 36.6931V37.811L38.1932 22.9292C38.4358 22.686 38.572 22.3565 38.572 22.0131C38.572 21.6696 38.4358 21.3401 38.1932 21.097C37.9463 20.8615 37.6183 20.7301 37.2771 20.7301C36.9359 20.7301 36.6079 20.8615 36.361 21.097L21.4763 35.9788Z" fill="#2E2E30"/>
<path d="M17.8576 42.144C17.7408 42.1441 17.6258 42.1155 17.5226 42.0608C17.4193 42.0061 17.3311 41.9269 17.2656 41.8302C17.2001 41.7335 17.1593 41.6222 17.1469 41.506C17.1344 41.3899 17.1506 41.2724 17.194 41.164L19.0891 36.4296L20.4156 36.9603L19.1434 40.1475L22.3328 38.8718L22.8578 40.1982L18.1212 42.0933C18.0373 42.1267 17.9479 42.1439 17.8576 42.144Z" fill="#2E2E30"/>
<path d="M19.7841 37.6091L18.7739 38.6193L20.6685 40.5139L21.6787 39.5037L19.7841 37.6091Z" fill="#2E2E30"/>
<path d="M35.4139 21.0314L34.4037 22.0416L37.2453 24.8833L38.2555 23.8731L35.4139 21.0314Z" fill="#2E2E30"/>
<path d="M33.5193 22.926L32.5091 23.9362L35.3508 26.7778L36.3609 25.7676L33.5193 22.926Z" fill="#2E2E30"/>
<path d="M33.931 24.3467L22.0896 36.188L23.0998 37.1982L34.9411 25.3568L33.931 24.3467Z" fill="#2E2E30"/>
<path d="M15.7147 42.144H10.7146C9.19902 42.144 7.74553 41.542 6.67386 40.4703C5.60219 39.3986 5.00014 37.9451 5.00014 36.4296C5.00014 34.914 5.60219 33.4605 6.67386 32.3889C7.74553 31.3172 9.19902 30.7151 10.7146 30.7151H17.8576C18.6154 30.7151 19.3422 30.4141 19.878 29.8783C20.4138 29.3424 20.7149 28.6157 20.7149 27.8579C20.7149 27.1001 20.4138 26.3734 19.878 25.8376C19.3422 25.3017 18.6154 25.0007 17.8576 25.0007H9.64312C8.41173 25.0007 7.23077 24.5115 6.36004 23.6408C5.48931 22.7701 5.00014 21.5891 5.00014 20.3577C5.00014 19.1263 5.48931 17.9454 6.36004 17.0746C7.23077 16.2039 8.41173 15.7147 9.64312 15.7147H27.1436V17.1433H9.64312C8.79062 17.1433 7.97303 17.482 7.37022 18.0848C6.76741 18.6876 6.42875 19.5052 6.42875 20.3577C6.42875 21.2102 6.76741 22.0278 7.37022 22.6306C7.97303 23.2334 8.79062 23.5721 9.64312 23.5721H17.8576C18.9943 23.5721 20.0844 24.0236 20.8882 24.8274C21.6919 25.6311 22.1435 26.7212 22.1435 27.8579C22.1435 28.9946 21.6919 30.0847 20.8882 30.8885C20.0844 31.6922 18.9943 32.1437 17.8576 32.1437H10.7146C9.57791 32.1437 8.48779 32.5953 7.68404 33.399C6.88029 34.2028 6.42875 35.2929 6.42875 36.4296C6.42875 37.5663 6.88029 38.6564 7.68404 39.4601C8.48779 40.2639 9.57791 40.7154 10.7146 40.7154H15.7147V42.144Z" fill="#2E2E30"/>
<path d="M34.2867 7.85742H32.8581V17.1434H34.2867V7.85742Z" fill="#2E2E30"/>
<path d="M34.2867 18.5719H32.8581V20.0005H34.2867V18.5719Z" fill="#2E2E30"/>
<path d="M30.0008 15.7147H28.5722V17.1433H30.0008V15.7147Z" fill="#2E2E30"/>
<path d="M4.28583 10.0002H2.85722V11.4289H4.28583V10.0002Z" fill="#2E2E30"/>
<path d="M7.14306 10.0002H5.71444V11.4289H7.14306V10.0002Z" fill="#2E2E30"/>
<path d="M10.0003 10.0002H8.57167V11.4289H10.0003V10.0002Z" fill="#2E2E30"/>
</svg>
