<?xml version="1.0" encoding="UTF-8"?>
<svg width="17px" height="17px" viewBox="0 0 17 17" version="1.1" xmlns="http://www.w3.org/2000/svg" xmlns:xlink="http://www.w3.org/1999/xlink">
    <!-- Generator: Sketch 64 (93537) - https://sketch.com -->
    <title>Icon Shape</title>
    <desc>Created with Sketch.</desc>
    <g id="Mockups" stroke="none" stroke-width="1" fill="none" fill-rule="evenodd">
        <g id="Mobile---home-duotono" transform="translate(-39.000000, -951.000000)" fill="#2E2E30" fill-rule="nonzero">
            <g id="Project-1" transform="translate(27.000000, 825.000000)">
                <g id="Group-2" transform="translate(11.000000, 121.000000)">
                    <g id="dashicons-admin-tools" transform="translate(0.000000, 4.000000)">
                        <g id="Icon" transform="translate(1.781250, 1.781250)">
                            <path d="M14.06475,7.50025 C12.831702,8.73591898 10.9757055,9.10711828 9.36225,8.44075 L4.22275,14.63475 C3.28225,15.57525 1.76225,15.57525 0.82175,14.63475 C-0.11875,13.69425 -0.11875,12.17425 0.82175,11.24325 L7.01575,6.09425 C6.36975,4.52675 6.68325,2.66475 7.95625,1.39175 C9.17225,0.17575 10.92025,-0.14725 12.44025,0.38475 L9.69475,3.13025 L12.37375,5.80925 L15.09075,3.08275 C15.59425,4.58375 15.26175,6.30325 14.06475,7.50025 Z M1.83825,13.61825 C2.21825,13.98875 2.82625,13.98875 3.19675,13.61825 C3.57675,13.23825 3.57675,12.63025 3.19675,12.25975 C2.82625,11.87975 2.21825,11.87975 1.83825,12.25975 C1.46767926,12.6367703 1.46767926,13.2412297 1.83825,13.61825 L1.83825,13.61825 Z" id="Icon-Shape"></path>
                        </g>
                    </g>
                </g>
            </g>
        </g>
    </g>
</svg>

