<?xml version="1.0" encoding="UTF-8"?>
<svg width="90px" height="80px" viewBox="0 0 90 80" version="1.1" xmlns="http://www.w3.org/2000/svg" xmlns:xlink="http://www.w3.org/1999/xlink">
    <title>noun_Venezuela_701199</title>
    <g id="Page-1" stroke="none" stroke-width="1" fill="none" fill-rule="evenodd">
        <g id="noun_Venezuela_701199" fill="#2E2E30" fill-rule="nonzero">
            <path d="M88.602,22.855 L1.398,22.855 C0.994,28.068 2.042,34.152 5.105,41.023 C6.867,44.977 9.487,48.864 12.551,52.554 L77.452,52.554 C80.515,48.864 83.134,44.977 84.897,41.023 C87.958,34.153 89.007,28.069 88.602,22.855 Z M25.8937717,45.35558 L26.7447956,48.1641439 L24.3951403,46.398941 L21.9847094,48.0890163 L22.9425654,45.3048267 L20.594702,43.5442917 L23.5441164,43.5903771 L24.5090736,40.8163154 L25.3585226,43.6179858 L28.2993932,43.6641374 L25.8937717,45.35558 Z M29.736,38.834 L28.538,41.507 L27.922,38.647 L25,38.335 L27.553,36.865 L26.934,34 L29.121,35.966 L31.668,34.506 L30.472,37.181 L32.658,39.142 L29.736,38.834 Z M38.916,34.789 L36.269,33.505 L34.23,35.61 L34.637,32.704 L32,31.42 L34.89,30.906 L35.298,28 L36.68,30.596 L39.58,30.083 L37.535,32.198 L38.916,34.789 Z M47.351,33.601 L45.306,31.496 L42.653,32.78 L44.046,30.191 L42,28.076 L44.891,28.589 L46.272,26 L46.689,28.899 L49.588,29.413 L46.948,30.697 L47.351,33.601 Z M56.12,36.508 L54.928,33.828 L52,34.142 L54.195,32.181 L52.994,29.506 L55.548,30.966 L57.73,29 L57.108,31.876 L59.657,33.335 L56.743,33.644 L56.12,36.508 Z M62.849,38.743 L60,38.027 L62.715,36.93 L62.506,34 L64.399,36.253 L67.138,35.153 L65.575,37.638 L67.466,39.887 L64.612,39.179 L63.051,41.662 L62.849,38.743 Z M70.336,48.518 L67.891,46.889 L65.568,48.689 L66.384,45.87 L63.932,44.228 L66.875,44.135 L67.683,41.31 L68.7,44.076 L71.637,43.969 L69.322,45.768 L70.336,48.518 Z" id="Shape"></path>
            <path d="M45,79.633 C44.559,79.633 44.134,79.548 43.803,79.396 C37.66,76.547 12.067,59.825 3.892,41.486 C-1.28,29.886 -1.297,19.136 3.844,11.215 C8.252,4.423 15.966,0.366 24.477,0.366 C32.932,0.366 40.497,4.52 44.999,11.554 C49.503,4.52 57.07,0.366 65.523,0.366 C74.034,0.366 81.747,4.422 86.156,11.215 C91.297,19.137 91.28,29.886 86.109,41.484 C77.93,59.826 52.34,76.547 46.197,79.393 C45.866,79.548 45.441,79.633 45,79.633 Z M24.478,2.133 C16.685,2.133 9.346,5.981 5.326,12.176 C0.521,19.579 0.584,29.733 5.505,40.768 C13.363,58.392 38.765,75.113 44.547,77.794 C44.692,77.86 45.309,77.86 45.454,77.794 C51.238,75.112 76.638,58.394 84.5,40.768 C89.417,29.734 89.48,19.581 84.677,12.177 C80.654,5.982 73.316,2.133 65.525,2.133 C57.214,2.133 49.83,6.458 45.773,13.702 L45,15.077 L44.23,13.702 C40.172,6.458 32.788,2.133 24.478,2.133 Z" id="Shape"></path>
        </g>
    </g>
</svg>