<?xml version="1.0" encoding="UTF-8"?>
<svg width="80px" height="93px" viewBox="0 0 80 93" version="1.1" xmlns="http://www.w3.org/2000/svg" xmlns:xlink="http://www.w3.org/1999/xlink">
    <title>noun_stretching_2819382</title>
    <g id="Page-1" stroke="none" stroke-width="1" fill="none" fill-rule="evenodd">
        <g id="noun_stretching_2819382" transform="translate(0.000000, 0.000000)" fill="#000000">
            <path d="M23.4929889,19 C18.256187,19 14,14.7472317 14,9.50514297 C14,4.25276834 18.256187,-7.10542736e-15 23.4929889,-7.10542736e-15 C28.7531611,-7.10542736e-15 33,4.25276834 33,9.50514297 C33,14.7472317 28.7531611,19 23.4929889,19 Z" id="Path"></path>
            <path d="M73.9882085,81.9406769 C73.9882085,81.9406769 48.8491713,80.8762752 42.857806,59.4095749 C40.4586602,50.8126309 40.7446265,39.4320866 40.7604104,32.4840148 L49.3514693,36.2455342 L42.4892066,47.367581 C41.0500905,49.7007114 41.7334386,52.7922279 44.0165266,54.2681348 C44.827074,54.7908321 45.7286106,55.039826 46.6171487,55.039826 C48.2419572,55.039826 49.8286988,54.2158651 50.7553038,52.7066957 L60.671278,36.6247273 C61.4381876,35.3883107 61.6303793,33.8696376 61.2042152,32.4697594 C60.7836219,31.0708315 59.7771691,29.935153 58.46061,29.3554342 C58.46061,29.3554342 35.3539761,19.3890235 35.3326215,19.3890235 C33.450629,18.7038149 30.6234622,18.7855458 28.1769649,20.7689442 C20.3314609,27.1268433 21.3917645,42.4228651 23.0017177,52.0490475 L5.69704285,52.0490475 C2.55141358,52.0490475 0,54.9105773 0,58.1398958 L0,87.1685996 C0,90.3931663 2.55141358,93 5.69704285,93 C8.85195673,93 11.398728,90.3931663 11.398728,87.1685996 L11.398728,65.4376996 L27.3580614,65.4376996 C41.5728146,96.4070356 74.1664732,92.5637854 74.1664732,92.5637854 C77.3093171,92.5637854 80,90.7714091 80,87.5525444 C80,83.9240753 77.140337,81.9406769 73.9882085,81.9406769 Z" id="Path"></path>
        </g>
    </g>
</svg>