<svg width="40" height="40" viewBox="0 0 40 40" fill="none" xmlns="http://www.w3.org/2000/svg">
<path d="M0.205714 14.9693C0.0914287 15.0103 0.0228571 15.064 0 15.1261L0.205714 14.9693ZM0 15.1261V36.8309C0 39.4709 0.56 39.9855 3.42857 39.9855H11.4286C14.2971 39.9855 14.8571 39.5004 14.8571 36.8288V28.4108H25.1429V36.8614C25.1429 39.5025 25.7257 39.996 28.5714 39.9855C28.6171 40.0181 36.5714 39.9855 36.5714 39.9855C39.4617 39.9855 40 39.432 40 36.8319V15.7785C40 15.6943 39.8971 15.6207 39.6914 15.5365L20 0L0.205714 14.9693L0 15.1261Z" fill="black"/>
</svg>
