<svg width="40" height="40" viewBox="0 0 40 40" fill="none" xmlns="http://www.w3.org/2000/svg">
<path d="M0.241477 23.5938C0.0804924 23.3854 0 23.151 0 22.8906C0.0189394 21.1719 0.606061 19.7656 1.76136 18.6719C2.91667 17.5781 4.45076 16.849 6.36364 16.4844V15.3906C4.54545 13.9844 3.63636 10.8203 3.63636 5.89844C3.63636 3.94531 4.14299 2.47396 5.15625 1.48438C6.16951 0.494792 7.48106 0 9.09091 0C10.7008 0 12.0123 0.494792 13.0256 1.48438C14.0388 2.47396 14.5455 3.94531 14.5455 5.89844C14.5455 10.638 13.6364 13.763 11.8182 15.2734V16.4844C12.2727 16.5625 12.7557 16.6927 13.267 16.875C12.9451 17.7604 12.7746 18.8021 12.7557 20H12.7273V25H7.74148C7.41004 25 6.93182 24.987 6.30682 24.9609C5.68182 24.9349 5.16572 24.9089 4.75852 24.8828C4.35133 24.8568 3.87784 24.8112 3.33807 24.7461C2.7983 24.681 2.35322 24.5964 2.00284 24.4922C1.65246 24.388 1.31155 24.2643 0.980114 24.1211C0.648674 23.9779 0.402462 23.8021 0.241477 23.5938Z" fill="black"/>
<path d="M12.6705 33.6914C13.8258 32.5846 15.3598 31.849 17.2727 31.4844V30.3906C15.4545 28.9844 14.5455 25.8203 14.5455 20.8984C14.5455 18.9453 15.0521 17.474 16.0653 16.4844C17.0786 15.4948 18.3902 15 20 15C21.6098 15 22.9214 15.4948 23.9347 16.4844C24.9479 17.474 25.4545 18.9453 25.4545 20.8984C25.4545 25.8203 24.5455 28.9844 22.7273 30.3906V31.4844C24.6402 31.849 26.1742 32.5846 27.3295 33.6914C28.4848 34.7982 29.072 36.1979 29.0909 37.8906C29.0909 38.151 29.0104 38.3854 28.8494 38.5938C28.6884 38.8021 28.4422 38.9779 28.1108 39.1211C27.7794 39.2643 27.4384 39.388 27.0881 39.4922C26.7377 39.5964 26.2926 39.681 25.7528 39.7461C25.2131 39.8112 24.7396 39.8633 24.3324 39.9023C23.9252 39.9414 23.4091 39.9674 22.7841 39.9805C22.1591 39.9935 21.6809 40 21.3494 40H18.6506C18.3191 40 17.8409 39.9935 17.2159 39.9805C16.5909 39.9674 16.0748 39.9414 15.6676 39.9023C15.2604 39.8633 14.7869 39.8112 14.2472 39.7461C13.7074 39.681 13.2623 39.5964 12.9119 39.4922C12.5616 39.388 12.2206 39.2643 11.8892 39.1211C11.5578 38.9779 11.3116 38.8021 11.1506 38.5938C10.9896 38.3854 10.9091 38.151 10.9091 37.8906C10.928 36.1979 11.5152 34.7982 12.6705 33.6914Z" fill="black"/>
<path d="M39.7585 23.5938C39.9195 23.3854 40 23.151 40 22.8906C39.9811 21.1719 39.3939 19.7656 38.2386 18.6719C37.0833 17.5781 35.5492 16.849 33.6364 16.4844V15.3906C35.4545 13.9844 36.3636 10.8203 36.3636 5.89844C36.3636 3.94531 35.857 2.47396 34.8438 1.48438C33.8305 0.494792 32.5189 0 30.9091 0C29.2992 0 27.9877 0.494792 26.9744 1.48438C25.9612 2.47396 25.4545 3.94531 25.4545 5.89844C25.4545 10.638 26.3636 13.763 28.1818 15.2734V16.4844C27.7273 16.5625 27.2443 16.6927 26.733 16.875C27.0549 17.7604 27.2254 18.8021 27.2443 20H27.2727V25H32.2585C32.59 25 33.0682 24.987 33.6932 24.9609C34.3182 24.9349 34.8343 24.9089 35.2415 24.8828C35.6487 24.8568 36.1222 24.8112 36.6619 24.7461C37.2017 24.681 37.6468 24.5964 37.9972 24.4922C38.3475 24.388 38.6884 24.2643 39.0199 24.1211C39.3513 23.9779 39.5975 23.8021 39.7585 23.5938Z" fill="black"/>
</svg>
