<svg width="40" height="40" viewBox="0 0 40 40" fill="none" xmlns="http://www.w3.org/2000/svg">
<path fill-rule="evenodd" clip-rule="evenodd" d="M22.8759 0.708975L37.6955 8.59011C38.1714 8.84324 38.1688 9.47057 37.6911 9.71979L20 18.9493L2.30982 9.71979C1.83214 9.47057 1.82946 8.84245 2.30446 8.59011L17.1232 0.708975C18.9009 -0.236325 21.0982 -0.236325 22.8759 0.708975ZM21.4286 21.2079L38.9313 12.0768C39.4071 11.8284 40 12.1424 40 12.6432V28.0883C40 29.9445 38.9188 31.6617 37.1616 32.596L23.5759 39.8209C22.6241 40.3272 21.4286 39.6998 21.4286 38.6936V21.2079ZM0 28.0883V12.6432C0 12.1424 0.592857 11.8284 1.06875 12.0768L18.5714 21.2079V38.6928C18.5714 39.6998 17.3768 40.3264 16.4241 39.8201L2.83839 32.596C1.08125 31.6617 0 29.9453 0 28.0883ZM27.7285 25.0015L29.2251 24.9825C29.2143 24.2868 29.7257 23.743 30.7492 23.7299C31.5264 23.72 32.2437 24.0165 32.2551 24.7514C32.2639 25.317 31.8436 25.5825 31.1791 25.9866C30.4222 26.4319 29.8253 26.9483 29.8813 27.7735L29.8956 28.1858L31.3786 28.1669L31.3737 27.8507C31.3638 27.2111 31.6707 27.021 32.4992 26.5124C33.1838 26.0911 33.8973 25.6241 33.8824 24.6629C33.8615 23.3169 32.4035 22.6851 30.8184 22.7053C29.3138 22.7245 27.6661 23.322 27.7285 25.0015ZM29.5759 29.8925C29.5833 30.3673 30.071 30.7121 30.7347 30.7037C31.4258 30.6948 31.8958 30.3378 31.8884 29.863C31.8808 29.3713 31.3988 29.0318 30.7078 29.0406C30.0452 29.049 29.5683 29.4008 29.5759 29.8925ZM6.14822 24.9825L4.65158 25.0015C4.58922 23.322 6.23691 22.7245 7.7415 22.7053C9.32664 22.6851 10.7846 23.3169 10.8054 24.6629C10.8204 25.6241 10.1069 26.0911 9.42231 26.5124C8.59377 27.021 8.28689 27.2111 8.29681 27.8507L8.30172 28.1669L6.81869 28.1858L6.80435 27.7735C6.74843 26.9483 7.34533 26.4319 8.10221 25.9866C8.76667 25.5825 9.18701 25.317 9.17824 24.7514C9.16684 24.0165 8.44952 23.72 7.67227 23.7299C6.64879 23.743 6.13744 24.2868 6.14822 24.9825ZM7.65784 30.7037C6.99406 30.7121 6.50638 30.3673 6.49901 29.8925C6.49139 29.4008 6.96827 29.049 7.63092 29.0406C8.32194 29.0318 8.80386 29.3713 8.81149 29.863C8.81885 30.3378 8.34886 30.6948 7.65784 30.7037Z" fill="black"/>
</svg>
