<svg width="40" height="40" viewBox="0 0 40 40" fill="none" xmlns="http://www.w3.org/2000/svg">
<path d="M39.3869 35.9849L30.3191 26.9172C32.5023 24.0109 33.6808 20.4733 33.6768 16.8384C33.6768 7.55377 26.123 0 16.8384 0C7.55377 0 0 7.55377 0 16.8384C0 26.123 7.55377 33.6768 16.8384 33.6768C20.4733 33.6808 24.0109 32.5023 26.9172 30.3191L35.9849 39.3869C36.444 39.7973 37.0426 40.0163 37.6581 39.9991C38.2735 39.9818 38.859 39.7297 39.2943 39.2943C39.7297 38.859 39.9818 38.2735 39.9991 37.6581C40.0163 37.0426 39.7973 36.444 39.3869 35.9849V35.9849ZM4.81097 16.8384C4.81097 14.4596 5.51637 12.1342 6.83796 10.1563C8.15955 8.17842 10.038 6.63683 12.2357 5.72651C14.4334 4.81618 16.8517 4.57799 19.1848 5.04208C21.5179 5.50616 23.661 6.65166 25.3431 8.33372C27.0251 10.0158 28.1706 12.1589 28.6347 14.492C29.0988 16.8251 28.8606 19.2434 27.9503 21.4411C27.04 23.6388 25.4984 25.5172 23.5205 26.8388C21.5426 28.1604 19.2172 28.8658 16.8384 28.8658C13.6497 28.862 10.5927 27.5936 8.33795 25.3389C6.0832 23.0841 4.8148 20.0271 4.81097 16.8384V16.8384Z" fill="#262626"/>
</svg>
