<?xml version="1.0" encoding="UTF-8"?>
<svg width="932px" height="196px" viewBox="0 0 932 196" version="1.1" xmlns="http://www.w3.org/2000/svg" xmlns:xlink="http://www.w3.org/1999/xlink">
    <title>interviewee</title>
    <g id="Project-images" stroke="none" stroke-width="1" fill="none" fill-rule="evenodd">
        <g id="interviewee" fill="#0061C9" fill-rule="nonzero">
            <g id="noun_quotation_1568876" fill-opacity="0.3">
                <g id="Group">
                    <path d="M101.059234,60.9886774 C97.8169844,60.6650323 90.683625,60.6650323 90.683625,56.1217097 C90.683625,49.9581129 99.7615156,41.8465 114.351641,33.0855484 C118.889562,30.1645484 128.294953,25.6232742 128.294953,19.457629 C128.294953,14.5906613 124.72725,11.022371 117.270484,11.9953548 C110.137125,12.9683387 99.1126562,17.8353065 84.5245781,30.1645484 C69.2855938,42.8194839 55.0209219,63.9096774 55.0209219,84.6741774 C55.0209219,105.764371 69.2855938,126.854565 92.3067969,126.854565 C110.785984,126.854565 126.673828,112.903 126.673828,93.7587742 C126.671781,79.157871 116.621625,62.2873548 101.059234,60.9886774 Z" id="Path"></path>
                    <path d="M55.4814688,51.8651613 C52.8184844,50.4722581 49.8975937,49.5607258 46.7454062,49.2985323 C43.5031563,48.9748871 36.3697969,48.9748871 36.3697969,44.4315645 C36.3697969,38.2679677 45.4476875,30.1563548 60.0378125,21.3954032 C64.5777812,18.4744032 73.9790781,13.933129 73.9790781,7.76748387 C73.9790781,2.90051613 70.411375,-0.667774194 62.9546094,0.305209677 C55.82125,1.27819355 44.7967813,6.14516129 30.2087031,18.4744032 C14.9717656,31.1293387 0.705046875,52.2195323 0.705046875,72.9860806 C0.705046875,94.0762742 14.9697187,115.166468 37.9909219,115.166468 C43.4028594,115.166468 48.5896406,113.962016 53.2217188,111.788677 C48.6797031,103.570548 46.25825,94.0619355 46.25825,84.6762258 C46.2602969,73.0864516 49.9897031,61.8469516 55.4814688,51.8651613 Z" id="Path"></path>
                </g>
            </g>
            <g id="I-don't-usually-repa" transform="translate(83.000000, 77.000000)" font-family="OpenSans-Bold, Open Sans" font-weight="bold">
                <text id="I-don't-usually-repair-things-myself-due-to-ignorance," font-size="30">
                    <tspan x="0" y="32">I don't usually repair things myself due to ignorance,</tspan>
                </text>
                <text id="and-the-risk-associa" font-size="30">
                    <tspan x="0" y="73">and the risk associated with doing it wrong</tspan>
                    <tspan x="644.750977" y="73">.”</tspan>
                </text>
                <text id="—-Interviewee" font-size="16">
                    <tspan x="732.661458" y="114">— Interviewee</tspan>
                </text>
            </g>
        </g>
    </g>
</svg>