<?xml version="1.0" encoding="UTF-8"?>
<svg width="1204px" height="433px" viewBox="0 0 1204 433" version="1.1" xmlns="http://www.w3.org/2000/svg" xmlns:xlink="http://www.w3.org/1999/xlink">
    <title>User journey desktop</title>
    <g id="Project-images" stroke="none" stroke-width="1" fill="none" fill-rule="evenodd">
        <g id="User-journey-3" transform="translate(-31.000000, -27.000000)">
            <g id="User-journey-desktop" transform="translate(32.000000, 27.000000)">
                <line x1="162.5" y1="182.5" x2="203.5" y2="161.5" id="Line-5" stroke="#0080FF" stroke-linecap="square"></line>
                <line x1="252" y1="135" x2="307.5" y2="104.5" id="Line-5" stroke="#0080FF" stroke-linecap="square"></line>
                <line x1="354.25" y1="83.25" x2="387.5" y2="83.5" id="Line-5" stroke="#0080FF" stroke-linecap="square"></line>
                <line x1="442.125" y1="83.625" x2="497.5" y2="163.5" id="Line-5" stroke="#0080FF" stroke-linecap="square"></line>
                <line x1="577.5" y1="161.5" x2="535.5625" y2="179.8125" id="Line-5" stroke="#0080FF" stroke-linecap="square"></line>
                <line x1="673.5" y1="176.5" x2="626.34375" y2="157.03125" id="Line-5" stroke="#0080FF" stroke-linecap="square"></line>
                <line x1="763.5" y1="157.5" x2="721.953125" y2="177.109375" id="Line-5" stroke="#0080FF" stroke-linecap="square"></line>
                <line x1="861.169922" y1="108.925781" x2="813.148438" y2="134.679687" id="Line-5" stroke="#0080FF" stroke-linecap="square"></line>
                <line x1="945.5" y1="142.5" x2="892" y2="102.753906" id="Line-5" stroke="#0080FF" stroke-linecap="square"></line>
                <line x1="1047.25" y1="205.873047" x2="993.75" y2="166.126953" id="Line-5" stroke="#0080FF" stroke-linecap="square"></line>
                <line x1="1087.5" y1="170.5" x2="1143.5" y2="55.5" id="Line-5" stroke="#0080FF" stroke-linecap="square"></line>
                <g id="user-journey-stages" transform="translate(0.000000, 251.000000)">
                    <rect id="Rectangle" fill="#2E2F30" transform="translate(91.000000, 90.500000) rotate(90.000000) translate(-91.000000, -90.500000) " x="1" y="90" width="180" height="1"></rect>
                    <rect id="Rectangle-Copy" fill="#2E2F30" transform="translate(184.000000, 90.500000) rotate(90.000000) translate(-184.000000, -90.500000) " x="94" y="90" width="180" height="1"></rect>
                    <rect id="Rectangle-Copy-2" fill="#2E2F30" transform="translate(277.500000, 91.000000) rotate(90.000000) translate(-277.500000, -91.000000) " x="187.5" y="90.5" width="180" height="1"></rect>
                    <rect id="Rectangle-Copy-2" fill="#2E2F30" transform="translate(371.500000, 91.000000) scale(1, -1) rotate(-90.000000) translate(-371.500000, -91.000000) " x="281.5" y="90.5" width="180" height="1"></rect>
                    <rect id="Rectangle-Copy-2" fill="#2E2F30" transform="translate(462.500000, 91.000000) scale(1, -1) rotate(-90.000000) translate(-462.500000, -91.000000) " x="372.5" y="90.5" width="180" height="1"></rect>
                    <rect id="Rectangle" fill="#2E2F30" transform="translate(557.500000, 91.000000) scale(1, -1) rotate(-90.000000) translate(-557.500000, -91.000000) " x="467.5" y="90.5" width="180" height="1"></rect>
                    <rect id="Rectangle-Copy-2" fill="#2E2F30" transform="translate(650.500000, 91.000000) scale(1, -1) rotate(-90.000000) translate(-650.500000, -91.000000) " x="560.5" y="90.5" width="180" height="1"></rect>
                    <rect id="Rectangle-Copy-2" fill="#2E2F30" transform="translate(742.500000, 91.000000) rotate(90.000000) translate(-742.500000, -91.000000) " x="652.5" y="90.5" width="180" height="1"></rect>
                    <rect id="Rectangle-Copy-2" fill="#2E2F30" transform="translate(835.500000, 91.000000) rotate(90.000000) translate(-835.500000, -91.000000) " x="745.5" y="90.5" width="180" height="1"></rect>
                    <rect id="Rectangle-Copy-2" fill="#2E2F30" transform="translate(928.500000, 91.000000) rotate(90.000000) translate(-928.500000, -91.000000) " x="838.5" y="90.5" width="180" height="1"></rect>
                    <rect id="Rectangle-Copy-2" fill="#2E2F30" transform="translate(1021.500000, 91.000000) rotate(90.000000) translate(-1021.500000, -91.000000) " x="931.5" y="90.5" width="180" height="1"></rect>
                    <rect id="Rectangle-Copy-2" fill="#2E2F30" transform="translate(1113.500000, 91.000000) rotate(90.000000) translate(-1113.500000, -91.000000) " x="1023.5" y="90.5" width="180" height="1"></rect>
                    <rect id="Rectangle" stroke="#2E2F30" x="0" y="1" width="1202" height="180" rx="15"></rect>
                    <text id="Something-gets-broke" font-family="OpenSans-Light, Open Sans" font-size="14" font-weight="300" letter-spacing="0.583333333" fill="#010813">
                        <tspan x="100.591797" y="77">Something </tspan>
                        <tspan x="96.5152995" y="96">gets broken </tspan>
                        <tspan x="95.7177734" y="115">in his house</tspan>
                    </text>
                    <text id="Spend-time-searching" font-family="OpenSans-Bold, Open Sans" font-size="14" font-weight="bold" letter-spacing="0.583333333" fill="#010813">
                        <tspan x="208.090495" y="20">Spend </tspan>
                        <tspan x="213.649251" y="39">time </tspan>
                        <tspan x="194.461914" y="58">searching </tspan>
                        <tspan x="216.866699" y="77">and </tspan>
                        <tspan x="196.517253" y="96">watching </tspan>
                        <tspan x="195.76416" y="115">the video </tspan>
                        <tspan x="196.567383" y="134">that best </tspan>
                        <tspan x="199.605957" y="153">suits his </tspan>
                        <tspan x="208.760417" y="172">needs</tspan>
                    </text>
                    <text id="Check-if-they-have-t" font-family="OpenSans-Light, Open Sans" font-size="14" font-weight="300" letter-spacing="0.583333333" fill="#010813">
                        <tspan x="297.135905" y="56">Check if </tspan>
                        <tspan x="291.13623" y="75">they have </tspan>
                        <tspan x="312.80957" y="94">the </tspan>
                        <tspan x="290.069824" y="113">necessary </tspan>
                        <tspan x="292.441895" y="132">materials</tspan>
                    </text>
                    <text id="If-he-has-the-materi" font-family="OpenSans-Light, Open Sans" font-size="14" font-weight="300" letter-spacing="0.583333333" fill="#010813">
                        <tspan x="386.807129" y="51">If he has </tspan>
                        <tspan x="404.80957" y="70">the </tspan>
                        <tspan x="382.646322" y="89">materials, </tspan>
                        <tspan x="380.984049" y="108">he tries to </tspan>
                        <tspan x="393.848145" y="127">do the </tspan>
                        <tspan x="395.502441" y="146">repair</tspan>
                    </text>
                    <text id="Unable-to-do-the-rep" font-family="OpenSans-Bold, Open Sans" font-size="14" font-weight="bold" letter-spacing="0.583333333" fill="#010813">
                        <tspan x="473.362793" y="34">Unable to </tspan>
                        <tspan x="485.893066" y="53">do the </tspan>
                        <tspan x="475.334961" y="72">repair on </tspan>
                        <tspan x="482.559408" y="91">its own </tspan>
                        <tspan x="478.856608" y="110">and he’s </tspan>
                        <tspan x="477.272949" y="129">afraid to </tspan>
                        <tspan x="479.300944" y="148">get hurt</tspan>
                    </text>
                    <text id="Ask-a-friend-or-fami" font-family="OpenSans-Light, Open Sans" font-size="14" font-weight="300" letter-spacing="0.583333333" fill="#010813">
                        <tspan x="562.763672" y="66">Ask a friend </tspan>
                        <tspan x="573.366211" y="85">or family </tspan>
                        <tspan x="562.407064" y="104">member for </tspan>
                        <tspan x="588.113607" y="123">help</tspan>
                    </text>
                    <text id="Family-and-friends-c" font-family="OpenSans-Light, Open Sans" font-size="14" font-weight="300" letter-spacing="0.583333333" fill="#010813">
                        <tspan x="659.481283" y="80">Family and </tspan>
                        <tspan x="672.155111" y="99">friends </tspan>
                        <tspan x="655.515299" y="118">cannot help</tspan>
                    </text>
                    <text id="Looks-to-hire-a-pers" font-family="OpenSans-Light, Open Sans" font-size="14" font-weight="300" letter-spacing="0.583333333" fill="#010813">
                        <tspan x="759.958659" y="80">Looks to </tspan>
                        <tspan x="769.445801" y="99">hire a </tspan>
                        <tspan x="765.026367" y="118">person</tspan>
                    </text>
                    <text id="Hires-a-person-and-w" font-family="OpenSans-Light, Open Sans" font-size="14" font-weight="300" letter-spacing="0.583333333" fill="#010813">
                        <tspan x="857.98763" y="68">Hires a </tspan>
                        <tspan x="843.037435" y="87">person and </tspan>
                        <tspan x="852.673828" y="106">waits for </tspan>
                        <tspan x="850.367839" y="125">their visit</tspan>
                    </text>
                    <text id="The-repair-wasn't-so" font-family="OpenSans-Light, Open Sans" font-size="14" font-weight="300" letter-spacing="0.583333333" fill="#010813">
                        <tspan x="939.879232" y="78">The repair </tspan>
                        <tspan x="943.346191" y="97">wasn't so </tspan>
                        <tspan x="950.044271" y="116">difficult</tspan>
                    </text>
                    <text id="Has-to-pay-for-the-r" font-family="OpenSans-Light, Open Sans" font-size="14" font-weight="300" letter-spacing="0.583333333" fill="#010813">
                        <tspan x="1030.90853" y="72">Has to pay </tspan>
                        <tspan x="1043.90023" y="91">for the </tspan>
                        <tspan x="1046.50244" y="110">repair</tspan>
                    </text>
                    <text id="Repair-done" font-family="OpenSans-Light, Open Sans" font-size="14" font-weight="300" letter-spacing="0.583333333" fill="#010813">
                        <tspan x="1138.06689" y="82">Repair </tspan>
                        <tspan x="1142.59456" y="101">done</tspan>
                    </text>
                    <text id="Stages" font-family="OpenSans-Bold, Open Sans" font-size="14" font-weight="bold" letter-spacing="0.583333333" fill="#0061C9">
                        <tspan x="20.5581055" y="99">Stages</tspan>
                    </text>
                </g>
                <g id="icons/andres/happy" transform="translate(1120.000000, 0.000000)" fill="#000000">
                    <g id="Andres-icon-happy">
                        <g id="noun_nerd_2634180" fill-rule="nonzero">
                            <g id="Group">
                                <g>
                                    <g transform="translate(0.000000, 23.000000)">
                                        <path d="M21.672774,7.260152 C22.081381,7.631714 22.111411,8.264167 21.739848,8.672774 C21.368286,9.081381 20.735833,9.111411 20.327226,8.739848 C19.738132,8.204162 18.903904,7.888467 17.9999929,7.888467 C17.096096,7.888467 16.261868,8.204162 15.672774,8.739848 C15.264167,9.111411 14.631714,9.081381 14.260152,8.672774 C13.888589,8.264167 13.918619,7.631714 14.327226,7.260152 C15.288359,6.386155 16.603508,5.888467 17.9999929,5.888467 C19.396492,5.888467 20.711641,6.386155 21.672774,7.260152 Z" id="Path"></path>
                                        <path d="M41.672774,7.260152 C42.081381,7.631714 42.111411,8.264167 41.739848,8.672774 C41.368286,9.081381 40.735833,9.111411 40.327226,8.739848 C39.738132,8.204162 38.903904,7.888467 37.9999929,7.888467 C37.096096,7.888467 36.261868,8.204162 35.672774,8.739848 C35.264167,9.111411 34.631714,9.081381 34.260152,8.672774 C33.888589,8.264167 33.918619,7.631714 34.327226,7.260152 C35.288359,6.386155 36.603508,5.888467 37.9999929,5.888467 C39.396492,5.888467 40.711641,6.386155 41.672774,7.260152 Z" id="Path"></path>
                                        <path d="M22.253377,18.673159 C21.758655,18.427663 21.556617,17.827597 21.802113,17.332875 C22.04761,16.838153 22.647675,16.636115 23.142397,16.881611 C24.514002,17.562244 26.208208,17.941352 28,17.941352 C29.791792,17.941352 31.485998,17.562244 32.857603,16.881611 C33.352325,16.636115 33.95239,16.838153 34.197887,17.332875 C34.443383,17.827597 34.241345,18.427663 33.746623,18.673159 C32.09222,19.494124 30.093595,19.941352 28,19.941352 C25.906405,19.941352 23.90778,19.494124 22.253377,18.673159 Z" id="Path"></path>
                                        <path d="M18,16 C13.581722,16 10,12.418278 10,8 C10,3.581722 13.581722,0 18,0 C22.418278,0 26,3.581722 26,8 C26,12.418278 22.418278,16 18,16 Z M18,14 C21.313708,14 24,11.313708 24,8 C24,4.686292 21.313708,2 18,2 C14.686292,2 12,4.686292 12,8 C12,11.313708 14.686292,14 18,14 Z" id="Shape"></path>
                                        <path d="M38,16 C33.581722,16 30,12.418278 30,8 C30,3.581722 33.581722,0 38,0 C42.418278,0 46,3.581722 46,8 C46,12.418278 42.418278,16 38,16 Z M38,14 C41.313708,14 44,11.313708 44,8 C44,4.686292 41.313708,2 38,2 C34.686292,2 32,4.686292 32,8 C32,11.313708 34.686292,14 38,14 Z" id="Shape"></path>
                                        <path d="M25.5547,6.83205 L24.72265,7.38675 L23.61325,5.72265 L24.4453,5.16795 C25.602344,4.396587 26.792105,4 28,4 C29.207895,4 30.397656,4.396587 31.5547,5.16795 L32.38675,5.72265 L31.27735,7.38675 L30.4453,6.83205 C29.602344,6.27008 28.792105,6 28,6 C27.207895,6 26.397656,6.27008 25.5547,6.83205 Z" id="Path"></path>
                                        <polygon id="Path" points="45.371391 6.928477 44.628609 5.071523 54.628609 2.071523 55.371391 3.928477"></polygon>
                                        <polygon id="Path" points="11.371499 5.072242 10.628501 6.929109 0.628501 3.928433 1.371499 2.071567"></polygon>
                                    </g>
                                    <g id="Shape">
                                        <path d="M28,56 C43.463973,56 56,43.463973 56,28 C56,12.536027 43.463973,0 28,0 C12.536027,0 0,12.536027 0,28 C0,43.463973 12.536027,56 28,56 Z M28,54 C13.640597,54 2,42.359403 2,28 C2,13.640597 13.640597,2 28,2 C42.359403,2 54,13.640597 54,28 C54,42.359403 42.359403,54 28,54 Z"></path>
                                    </g>
                                </g>
                            </g>
                        </g>
                        <path d="M28,9 C37.3888407,9 45,8.32842712 45,7.5 C45,6.67157288 37.3888407,2 28,2 C18.6111593,2 11,6.67157288 11,7.5 C11,8.32842712 18.6111593,9 28,9 Z" id="Oval"></path>
                        <path d="M8,15 C12.418278,15 16,12.3137085 16,9 C16,5.6862915 20.418278,5.5 16,5.5 C11.581722,5.5 6,9.36402588 6,12.6777344 C6,15.9914429 3.581722,15 8,15 Z" id="Oval"></path>
                        <path d="M41.6604522,15.5 C46.0787302,15.5 49.6604522,12.8137085 49.6604522,9.5 C49.6604522,6.1862915 54.0787302,6 49.6604522,6 C45.2421742,6 39.6604522,9.86402588 39.6604522,13.1777344 C39.6604522,16.4914429 37.2421742,15.5 41.6604522,15.5 Z" id="Oval" transform="translate(45.312066, 10.819477) scale(-1, 1) translate(-45.312066, -10.819477) "></path>
                    </g>
                </g>
                <g id="icons/andres/struggle" transform="translate(199.000000, 120.000000)">
                    <g id="Andres-icon-sad" fill="#000000">
                        <g id="noun_nerd_2634180" fill-rule="nonzero">
                            <g id="Group">
                                <g>
                                    <g transform="translate(0.000000, 23.000000)">
                                        <path d="M21.672774,7.260152 C22.081381,7.631714 22.111411,8.264167 21.739848,8.672774 C21.368286,9.081381 20.735833,9.111411 20.327226,8.739848 C19.738132,8.204162 18.903904,7.888467 17.9999929,7.888467 C17.096096,7.888467 16.261868,8.204162 15.672774,8.739848 C15.264167,9.111411 14.631714,9.081381 14.260152,8.672774 C13.888589,8.264167 13.918619,7.631714 14.327226,7.260152 C15.288359,6.386155 16.603508,5.888467 17.9999929,5.888467 C19.396492,5.888467 20.711641,6.386155 21.672774,7.260152 Z" id="Path"></path>
                                        <path d="M41.672774,7.260152 C42.081381,7.631714 42.111411,8.264167 41.739848,8.672774 C41.368286,9.081381 40.735833,9.111411 40.327226,8.739848 C39.738132,8.204162 38.903904,7.888467 37.9999929,7.888467 C37.096096,7.888467 36.261868,8.204162 35.672774,8.739848 C35.264167,9.111411 34.631714,9.081381 34.260152,8.672774 C33.888589,8.264167 33.918619,7.631714 34.327226,7.260152 C35.288359,6.386155 36.603508,5.888467 37.9999929,5.888467 C39.396492,5.888467 40.711641,6.386155 41.672774,7.260152 Z" id="Path"></path>
                                        <path d="M22.253377,18.5747766 C21.758655,18.3420193 21.556617,17.7730905 21.802113,17.3040394 C22.04761,16.8349883 22.647675,16.643434 23.142397,16.8761913 C24.514002,17.5215065 26.208208,17.8809428 28,17.8809428 C29.791792,17.8809428 31.485998,17.5215065 32.857603,16.8761913 C33.352325,16.643434 33.95239,16.8349883 34.197887,17.3040394 C34.443383,17.7730905 34.241345,18.3420193 33.746623,18.5747766 C32.09222,19.3531421 30.093595,19.7771636 28,19.7771636 C25.906405,19.7771636 23.90778,19.3531421 22.253377,18.5747766 Z" id="Path" transform="translate(28.000000, 18.277164) scale(1, -1) translate(-28.000000, -18.277164) "></path>
                                        <path d="M18,16 C13.581722,16 10,12.418278 10,8 C10,3.581722 13.581722,0 18,0 C22.418278,0 26,3.581722 26,8 C26,12.418278 22.418278,16 18,16 Z M18,14 C21.313708,14 24,11.313708 24,8 C24,4.686292 21.313708,2 18,2 C14.686292,2 12,4.686292 12,8 C12,11.313708 14.686292,14 18,14 Z" id="Shape"></path>
                                        <path d="M38,16 C33.581722,16 30,12.418278 30,8 C30,3.581722 33.581722,0 38,0 C42.418278,0 46,3.581722 46,8 C46,12.418278 42.418278,16 38,16 Z M38,14 C41.313708,14 44,11.313708 44,8 C44,4.686292 41.313708,2 38,2 C34.686292,2 32,4.686292 32,8 C32,11.313708 34.686292,14 38,14 Z" id="Shape"></path>
                                        <path d="M25.5547,6.83205 L24.72265,7.38675 L23.61325,5.72265 L24.4453,5.16795 C25.602344,4.396587 26.792105,4 28,4 C29.207895,4 30.397656,4.396587 31.5547,5.16795 L32.38675,5.72265 L31.27735,7.38675 L30.4453,6.83205 C29.602344,6.27008 28.792105,6 28,6 C27.207895,6 26.397656,6.27008 25.5547,6.83205 Z" id="Path"></path>
                                        <polygon id="Path" points="45.371391 6.928477 44.628609 5.071523 54.628609 2.071523 55.371391 3.928477"></polygon>
                                        <polygon id="Path" points="11.371499 5.072242 10.628501 6.929109 0.628501 3.928433 1.371499 2.071567"></polygon>
                                    </g>
                                    <g id="Shape">
                                        <path d="M28,56 C43.463973,56 56,43.463973 56,28 C56,12.536027 43.463973,0 28,0 C12.536027,0 0,12.536027 0,28 C0,43.463973 12.536027,56 28,56 Z M28,54 C13.640597,54 2,42.359403 2,28 C2,13.640597 13.640597,2 28,2 C42.359403,2 54,13.640597 54,28 C54,42.359403 42.359403,54 28,54 Z"></path>
                                    </g>
                                </g>
                            </g>
                        </g>
                        <path d="M28,9 C37.3888407,9 45,8.32842712 45,7.5 C45,6.67157288 37.3888407,2 28,2 C18.6111593,2 11,6.67157288 11,7.5 C11,8.32842712 18.6111593,9 28,9 Z" id="Oval"></path>
                        <path d="M8,15 C12.418278,15 16,12.3137085 16,9 C16,5.6862915 20.418278,5.5 16,5.5 C11.581722,5.5 6,9.36402588 6,12.6777344 C6,15.9914429 3.581722,15 8,15 Z" id="Oval"></path>
                        <path d="M41.6604522,15.5 C46.0787302,15.5 49.6604522,12.8137085 49.6604522,9.5 C49.6604522,6.1862915 54.0787302,6 49.6604522,6 C45.2421742,6 39.6604522,9.86402588 39.6604522,13.1777344 C39.6604522,16.4914429 37.2421742,15.5 41.6604522,15.5 Z" id="Oval" transform="translate(45.312066, 10.819477) scale(-1, 1) translate(-45.312066, -10.819477) "></path>
                    </g>
                    <g id="uil-tear" transform="translate(35.000000, 11.000000)">
                        <g id="Icon" transform="translate(1.000000, 0.000000)" fill="#000000" fill-rule="nonzero">
                            <path d="M2.12,0.452083333 C2.04750377,0.404442391 1.95249623,0.404442391 1.88,0.452083333 C1.81571429,0.49375 0.339285714,1.49375 0.339285714,2.96875 C0.339285714,3.86045975 1.08281283,4.58333333 2,4.58333333 C2.91718717,4.58333333 3.66071429,3.86045975 3.66071429,2.96875 C3.66071429,1.46875 2.18214286,0.491666667 2.12,0.452083333 Z M2,4.16666667 C1.31999547,4.16551989 0.769036685,3.62986551 0.767857143,2.96875 C0.767857143,1.92708333 1.67,1.14166667 2,0.885416667 C2.33214286,1.1375 3.23214286,1.92708333 3.23214286,2.96875 C3.23096331,3.62986551 2.68000453,4.16551989 2,4.16666667 Z" id="Icon-Shape"></path>
                        </g>
                        <rect id="ViewBox" fill-rule="nonzero" x="0" y="0" width="5" height="5"></rect>
                    </g>
                </g>
                <g id="icons/andres/struggle" transform="translate(573.000000, 120.000000)">
                    <g id="Andres-icon-sad" fill="#000000">
                        <g id="noun_nerd_2634180" fill-rule="nonzero">
                            <g id="Group">
                                <g>
                                    <g transform="translate(0.000000, 23.000000)">
                                        <path d="M21.672774,7.260152 C22.081381,7.631714 22.111411,8.264167 21.739848,8.672774 C21.368286,9.081381 20.735833,9.111411 20.327226,8.739848 C19.738132,8.204162 18.903904,7.888467 17.9999929,7.888467 C17.096096,7.888467 16.261868,8.204162 15.672774,8.739848 C15.264167,9.111411 14.631714,9.081381 14.260152,8.672774 C13.888589,8.264167 13.918619,7.631714 14.327226,7.260152 C15.288359,6.386155 16.603508,5.888467 17.9999929,5.888467 C19.396492,5.888467 20.711641,6.386155 21.672774,7.260152 Z" id="Path"></path>
                                        <path d="M41.672774,7.260152 C42.081381,7.631714 42.111411,8.264167 41.739848,8.672774 C41.368286,9.081381 40.735833,9.111411 40.327226,8.739848 C39.738132,8.204162 38.903904,7.888467 37.9999929,7.888467 C37.096096,7.888467 36.261868,8.204162 35.672774,8.739848 C35.264167,9.111411 34.631714,9.081381 34.260152,8.672774 C33.888589,8.264167 33.918619,7.631714 34.327226,7.260152 C35.288359,6.386155 36.603508,5.888467 37.9999929,5.888467 C39.396492,5.888467 40.711641,6.386155 41.672774,7.260152 Z" id="Path"></path>
                                        <path d="M22.253377,18.5747766 C21.758655,18.3420193 21.556617,17.7730905 21.802113,17.3040394 C22.04761,16.8349883 22.647675,16.643434 23.142397,16.8761913 C24.514002,17.5215065 26.208208,17.8809428 28,17.8809428 C29.791792,17.8809428 31.485998,17.5215065 32.857603,16.8761913 C33.352325,16.643434 33.95239,16.8349883 34.197887,17.3040394 C34.443383,17.7730905 34.241345,18.3420193 33.746623,18.5747766 C32.09222,19.3531421 30.093595,19.7771636 28,19.7771636 C25.906405,19.7771636 23.90778,19.3531421 22.253377,18.5747766 Z" id="Path" transform="translate(28.000000, 18.277164) scale(1, -1) translate(-28.000000, -18.277164) "></path>
                                        <path d="M18,16 C13.581722,16 10,12.418278 10,8 C10,3.581722 13.581722,0 18,0 C22.418278,0 26,3.581722 26,8 C26,12.418278 22.418278,16 18,16 Z M18,14 C21.313708,14 24,11.313708 24,8 C24,4.686292 21.313708,2 18,2 C14.686292,2 12,4.686292 12,8 C12,11.313708 14.686292,14 18,14 Z" id="Shape"></path>
                                        <path d="M38,16 C33.581722,16 30,12.418278 30,8 C30,3.581722 33.581722,0 38,0 C42.418278,0 46,3.581722 46,8 C46,12.418278 42.418278,16 38,16 Z M38,14 C41.313708,14 44,11.313708 44,8 C44,4.686292 41.313708,2 38,2 C34.686292,2 32,4.686292 32,8 C32,11.313708 34.686292,14 38,14 Z" id="Shape"></path>
                                        <path d="M25.5547,6.83205 L24.72265,7.38675 L23.61325,5.72265 L24.4453,5.16795 C25.602344,4.396587 26.792105,4 28,4 C29.207895,4 30.397656,4.396587 31.5547,5.16795 L32.38675,5.72265 L31.27735,7.38675 L30.4453,6.83205 C29.602344,6.27008 28.792105,6 28,6 C27.207895,6 26.397656,6.27008 25.5547,6.83205 Z" id="Path"></path>
                                        <polygon id="Path" points="45.371391 6.928477 44.628609 5.071523 54.628609 2.071523 55.371391 3.928477"></polygon>
                                        <polygon id="Path" points="11.371499 5.072242 10.628501 6.929109 0.628501 3.928433 1.371499 2.071567"></polygon>
                                    </g>
                                    <g id="Shape">
                                        <path d="M28,56 C43.463973,56 56,43.463973 56,28 C56,12.536027 43.463973,0 28,0 C12.536027,0 0,12.536027 0,28 C0,43.463973 12.536027,56 28,56 Z M28,54 C13.640597,54 2,42.359403 2,28 C2,13.640597 13.640597,2 28,2 C42.359403,2 54,13.640597 54,28 C54,42.359403 42.359403,54 28,54 Z"></path>
                                    </g>
                                </g>
                            </g>
                        </g>
                        <path d="M28,9 C37.3888407,9 45,8.32842712 45,7.5 C45,6.67157288 37.3888407,2 28,2 C18.6111593,2 11,6.67157288 11,7.5 C11,8.32842712 18.6111593,9 28,9 Z" id="Oval"></path>
                        <path d="M8,15 C12.418278,15 16,12.3137085 16,9 C16,5.6862915 20.418278,5.5 16,5.5 C11.581722,5.5 6,9.36402588 6,12.6777344 C6,15.9914429 3.581722,15 8,15 Z" id="Oval"></path>
                        <path d="M41.6604522,15.5 C46.0787302,15.5 49.6604522,12.8137085 49.6604522,9.5 C49.6604522,6.1862915 54.0787302,6 49.6604522,6 C45.2421742,6 39.6604522,9.86402588 39.6604522,13.1777344 C39.6604522,16.4914429 37.2421742,15.5 41.6604522,15.5 Z" id="Oval" transform="translate(45.312066, 10.819477) scale(-1, 1) translate(-45.312066, -10.819477) "></path>
                    </g>
                    <g id="uil-tear" transform="translate(35.000000, 11.000000)">
                        <g id="Icon" transform="translate(1.000000, 0.000000)" fill="#000000" fill-rule="nonzero">
                            <path d="M2.12,0.452083333 C2.04750377,0.404442391 1.95249623,0.404442391 1.88,0.452083333 C1.81571429,0.49375 0.339285714,1.49375 0.339285714,2.96875 C0.339285714,3.86045975 1.08281283,4.58333333 2,4.58333333 C2.91718717,4.58333333 3.66071429,3.86045975 3.66071429,2.96875 C3.66071429,1.46875 2.18214286,0.491666667 2.12,0.452083333 Z M2,4.16666667 C1.31999547,4.16551989 0.769036685,3.62986551 0.767857143,2.96875 C0.767857143,1.92708333 1.67,1.14166667 2,0.885416667 C2.33214286,1.1375 3.23214286,1.92708333 3.23214286,2.96875 C3.23096331,3.62986551 2.68000453,4.16551989 2,4.16666667 Z" id="Icon-Shape"></path>
                        </g>
                        <rect id="ViewBox" fill-rule="nonzero" x="0" y="0" width="5" height="5"></rect>
                    </g>
                </g>
                <g id="icons/andres/struggle" transform="translate(761.000000, 120.000000)">
                    <g id="Andres-icon-sad" fill="#000000">
                        <g id="noun_nerd_2634180" fill-rule="nonzero">
                            <g id="Group">
                                <g>
                                    <g transform="translate(0.000000, 23.000000)">
                                        <path d="M21.672774,7.260152 C22.081381,7.631714 22.111411,8.264167 21.739848,8.672774 C21.368286,9.081381 20.735833,9.111411 20.327226,8.739848 C19.738132,8.204162 18.903904,7.888467 17.9999929,7.888467 C17.096096,7.888467 16.261868,8.204162 15.672774,8.739848 C15.264167,9.111411 14.631714,9.081381 14.260152,8.672774 C13.888589,8.264167 13.918619,7.631714 14.327226,7.260152 C15.288359,6.386155 16.603508,5.888467 17.9999929,5.888467 C19.396492,5.888467 20.711641,6.386155 21.672774,7.260152 Z" id="Path"></path>
                                        <path d="M41.672774,7.260152 C42.081381,7.631714 42.111411,8.264167 41.739848,8.672774 C41.368286,9.081381 40.735833,9.111411 40.327226,8.739848 C39.738132,8.204162 38.903904,7.888467 37.9999929,7.888467 C37.096096,7.888467 36.261868,8.204162 35.672774,8.739848 C35.264167,9.111411 34.631714,9.081381 34.260152,8.672774 C33.888589,8.264167 33.918619,7.631714 34.327226,7.260152 C35.288359,6.386155 36.603508,5.888467 37.9999929,5.888467 C39.396492,5.888467 40.711641,6.386155 41.672774,7.260152 Z" id="Path"></path>
                                        <path d="M22.253377,18.5747766 C21.758655,18.3420193 21.556617,17.7730905 21.802113,17.3040394 C22.04761,16.8349883 22.647675,16.643434 23.142397,16.8761913 C24.514002,17.5215065 26.208208,17.8809428 28,17.8809428 C29.791792,17.8809428 31.485998,17.5215065 32.857603,16.8761913 C33.352325,16.643434 33.95239,16.8349883 34.197887,17.3040394 C34.443383,17.7730905 34.241345,18.3420193 33.746623,18.5747766 C32.09222,19.3531421 30.093595,19.7771636 28,19.7771636 C25.906405,19.7771636 23.90778,19.3531421 22.253377,18.5747766 Z" id="Path" transform="translate(28.000000, 18.277164) scale(1, -1) translate(-28.000000, -18.277164) "></path>
                                        <path d="M18,16 C13.581722,16 10,12.418278 10,8 C10,3.581722 13.581722,0 18,0 C22.418278,0 26,3.581722 26,8 C26,12.418278 22.418278,16 18,16 Z M18,14 C21.313708,14 24,11.313708 24,8 C24,4.686292 21.313708,2 18,2 C14.686292,2 12,4.686292 12,8 C12,11.313708 14.686292,14 18,14 Z" id="Shape"></path>
                                        <path d="M38,16 C33.581722,16 30,12.418278 30,8 C30,3.581722 33.581722,0 38,0 C42.418278,0 46,3.581722 46,8 C46,12.418278 42.418278,16 38,16 Z M38,14 C41.313708,14 44,11.313708 44,8 C44,4.686292 41.313708,2 38,2 C34.686292,2 32,4.686292 32,8 C32,11.313708 34.686292,14 38,14 Z" id="Shape"></path>
                                        <path d="M25.5547,6.83205 L24.72265,7.38675 L23.61325,5.72265 L24.4453,5.16795 C25.602344,4.396587 26.792105,4 28,4 C29.207895,4 30.397656,4.396587 31.5547,5.16795 L32.38675,5.72265 L31.27735,7.38675 L30.4453,6.83205 C29.602344,6.27008 28.792105,6 28,6 C27.207895,6 26.397656,6.27008 25.5547,6.83205 Z" id="Path"></path>
                                        <polygon id="Path" points="45.371391 6.928477 44.628609 5.071523 54.628609 2.071523 55.371391 3.928477"></polygon>
                                        <polygon id="Path" points="11.371499 5.072242 10.628501 6.929109 0.628501 3.928433 1.371499 2.071567"></polygon>
                                    </g>
                                    <g id="Shape">
                                        <path d="M28,56 C43.463973,56 56,43.463973 56,28 C56,12.536027 43.463973,0 28,0 C12.536027,0 0,12.536027 0,28 C0,43.463973 12.536027,56 28,56 Z M28,54 C13.640597,54 2,42.359403 2,28 C2,13.640597 13.640597,2 28,2 C42.359403,2 54,13.640597 54,28 C54,42.359403 42.359403,54 28,54 Z"></path>
                                    </g>
                                </g>
                            </g>
                        </g>
                        <path d="M28,9 C37.3888407,9 45,8.32842712 45,7.5 C45,6.67157288 37.3888407,2 28,2 C18.6111593,2 11,6.67157288 11,7.5 C11,8.32842712 18.6111593,9 28,9 Z" id="Oval"></path>
                        <path d="M8,15 C12.418278,15 16,12.3137085 16,9 C16,5.6862915 20.418278,5.5 16,5.5 C11.581722,5.5 6,9.36402588 6,12.6777344 C6,15.9914429 3.581722,15 8,15 Z" id="Oval"></path>
                        <path d="M41.6604522,15.5 C46.0787302,15.5 49.6604522,12.8137085 49.6604522,9.5 C49.6604522,6.1862915 54.0787302,6 49.6604522,6 C45.2421742,6 39.6604522,9.86402588 39.6604522,13.1777344 C39.6604522,16.4914429 37.2421742,15.5 41.6604522,15.5 Z" id="Oval" transform="translate(45.312066, 10.819477) scale(-1, 1) translate(-45.312066, -10.819477) "></path>
                    </g>
                    <g id="uil-tear" transform="translate(35.000000, 11.000000)">
                        <g id="Icon" transform="translate(1.000000, 0.000000)" fill="#000000" fill-rule="nonzero">
                            <path d="M2.12,0.452083333 C2.04750377,0.404442391 1.95249623,0.404442391 1.88,0.452083333 C1.81571429,0.49375 0.339285714,1.49375 0.339285714,2.96875 C0.339285714,3.86045975 1.08281283,4.58333333 2,4.58333333 C2.91718717,4.58333333 3.66071429,3.86045975 3.66071429,2.96875 C3.66071429,1.46875 2.18214286,0.491666667 2.12,0.452083333 Z M2,4.16666667 C1.31999547,4.16551989 0.769036685,3.62986551 0.767857143,2.96875 C0.767857143,1.92708333 1.67,1.14166667 2,0.885416667 C2.33214286,1.1375 3.23214286,1.92708333 3.23214286,2.96875 C3.23096331,3.62986551 2.68000453,4.16551989 2,4.16666667 Z" id="Icon-Shape"></path>
                        </g>
                        <rect id="ViewBox" fill-rule="nonzero" x="0" y="0" width="5" height="5"></rect>
                    </g>
                </g>
                <g id="icons/andres/struggle" transform="translate(944.000000, 120.000000)">
                    <g id="Andres-icon-sad" fill="#000000">
                        <g id="noun_nerd_2634180" fill-rule="nonzero">
                            <g id="Group">
                                <g>
                                    <g transform="translate(0.000000, 23.000000)">
                                        <path d="M21.672774,7.260152 C22.081381,7.631714 22.111411,8.264167 21.739848,8.672774 C21.368286,9.081381 20.735833,9.111411 20.327226,8.739848 C19.738132,8.204162 18.903904,7.888467 17.9999929,7.888467 C17.096096,7.888467 16.261868,8.204162 15.672774,8.739848 C15.264167,9.111411 14.631714,9.081381 14.260152,8.672774 C13.888589,8.264167 13.918619,7.631714 14.327226,7.260152 C15.288359,6.386155 16.603508,5.888467 17.9999929,5.888467 C19.396492,5.888467 20.711641,6.386155 21.672774,7.260152 Z" id="Path"></path>
                                        <path d="M41.672774,7.260152 C42.081381,7.631714 42.111411,8.264167 41.739848,8.672774 C41.368286,9.081381 40.735833,9.111411 40.327226,8.739848 C39.738132,8.204162 38.903904,7.888467 37.9999929,7.888467 C37.096096,7.888467 36.261868,8.204162 35.672774,8.739848 C35.264167,9.111411 34.631714,9.081381 34.260152,8.672774 C33.888589,8.264167 33.918619,7.631714 34.327226,7.260152 C35.288359,6.386155 36.603508,5.888467 37.9999929,5.888467 C39.396492,5.888467 40.711641,6.386155 41.672774,7.260152 Z" id="Path"></path>
                                        <path d="M22.253377,18.5747766 C21.758655,18.3420193 21.556617,17.7730905 21.802113,17.3040394 C22.04761,16.8349883 22.647675,16.643434 23.142397,16.8761913 C24.514002,17.5215065 26.208208,17.8809428 28,17.8809428 C29.791792,17.8809428 31.485998,17.5215065 32.857603,16.8761913 C33.352325,16.643434 33.95239,16.8349883 34.197887,17.3040394 C34.443383,17.7730905 34.241345,18.3420193 33.746623,18.5747766 C32.09222,19.3531421 30.093595,19.7771636 28,19.7771636 C25.906405,19.7771636 23.90778,19.3531421 22.253377,18.5747766 Z" id="Path" transform="translate(28.000000, 18.277164) scale(1, -1) translate(-28.000000, -18.277164) "></path>
                                        <path d="M18,16 C13.581722,16 10,12.418278 10,8 C10,3.581722 13.581722,0 18,0 C22.418278,0 26,3.581722 26,8 C26,12.418278 22.418278,16 18,16 Z M18,14 C21.313708,14 24,11.313708 24,8 C24,4.686292 21.313708,2 18,2 C14.686292,2 12,4.686292 12,8 C12,11.313708 14.686292,14 18,14 Z" id="Shape"></path>
                                        <path d="M38,16 C33.581722,16 30,12.418278 30,8 C30,3.581722 33.581722,0 38,0 C42.418278,0 46,3.581722 46,8 C46,12.418278 42.418278,16 38,16 Z M38,14 C41.313708,14 44,11.313708 44,8 C44,4.686292 41.313708,2 38,2 C34.686292,2 32,4.686292 32,8 C32,11.313708 34.686292,14 38,14 Z" id="Shape"></path>
                                        <path d="M25.5547,6.83205 L24.72265,7.38675 L23.61325,5.72265 L24.4453,5.16795 C25.602344,4.396587 26.792105,4 28,4 C29.207895,4 30.397656,4.396587 31.5547,5.16795 L32.38675,5.72265 L31.27735,7.38675 L30.4453,6.83205 C29.602344,6.27008 28.792105,6 28,6 C27.207895,6 26.397656,6.27008 25.5547,6.83205 Z" id="Path"></path>
                                        <polygon id="Path" points="45.371391 6.928477 44.628609 5.071523 54.628609 2.071523 55.371391 3.928477"></polygon>
                                        <polygon id="Path" points="11.371499 5.072242 10.628501 6.929109 0.628501 3.928433 1.371499 2.071567"></polygon>
                                    </g>
                                    <g id="Shape">
                                        <path d="M28,56 C43.463973,56 56,43.463973 56,28 C56,12.536027 43.463973,0 28,0 C12.536027,0 0,12.536027 0,28 C0,43.463973 12.536027,56 28,56 Z M28,54 C13.640597,54 2,42.359403 2,28 C2,13.640597 13.640597,2 28,2 C42.359403,2 54,13.640597 54,28 C54,42.359403 42.359403,54 28,54 Z"></path>
                                    </g>
                                </g>
                            </g>
                        </g>
                        <path d="M28,9 C37.3888407,9 45,8.32842712 45,7.5 C45,6.67157288 37.3888407,2 28,2 C18.6111593,2 11,6.67157288 11,7.5 C11,8.32842712 18.6111593,9 28,9 Z" id="Oval"></path>
                        <path d="M8,15 C12.418278,15 16,12.3137085 16,9 C16,5.6862915 20.418278,5.5 16,5.5 C11.581722,5.5 6,9.36402588 6,12.6777344 C6,15.9914429 3.581722,15 8,15 Z" id="Oval"></path>
                        <path d="M41.6604522,15.5 C46.0787302,15.5 49.6604522,12.8137085 49.6604522,9.5 C49.6604522,6.1862915 54.0787302,6 49.6604522,6 C45.2421742,6 39.6604522,9.86402588 39.6604522,13.1777344 C39.6604522,16.4914429 37.2421742,15.5 41.6604522,15.5 Z" id="Oval" transform="translate(45.312066, 10.819477) scale(-1, 1) translate(-45.312066, -10.819477) "></path>
                    </g>
                    <g id="uil-tear" transform="translate(35.000000, 11.000000)">
                        <g id="Icon" transform="translate(1.000000, 0.000000)" fill="#000000" fill-rule="nonzero">
                            <path d="M2.12,0.452083333 C2.04750377,0.404442391 1.95249623,0.404442391 1.88,0.452083333 C1.81571429,0.49375 0.339285714,1.49375 0.339285714,2.96875 C0.339285714,3.86045975 1.08281283,4.58333333 2,4.58333333 C2.91718717,4.58333333 3.66071429,3.86045975 3.66071429,2.96875 C3.66071429,1.46875 2.18214286,0.491666667 2.12,0.452083333 Z M2,4.16666667 C1.31999547,4.16551989 0.769036685,3.62986551 0.767857143,2.96875 C0.767857143,1.92708333 1.67,1.14166667 2,0.885416667 C2.33214286,1.1375 3.23214286,1.92708333 3.23214286,2.96875 C3.23096331,3.62986551 2.68000453,4.16551989 2,4.16666667 Z" id="Icon-Shape"></path>
                        </g>
                        <rect id="ViewBox" fill-rule="nonzero" x="0" y="0" width="5" height="5"></rect>
                    </g>
                </g>
                <g id="icons/andres/sad" transform="translate(108.000000, 161.000000)">
                    <g>
                        <g id="Andres-icon-sad" fill="#000000">
                            <g id="noun_nerd_2634180" fill-rule="nonzero">
                                <g id="Group">
                                    <g>
                                        <g transform="translate(0.000000, 23.000000)">
                                            <path d="M21.672774,7.260152 C22.081381,7.631714 22.111411,8.264167 21.739848,8.672774 C21.368286,9.081381 20.735833,9.111411 20.327226,8.739848 C19.738132,8.204162 18.903904,7.888467 17.9999929,7.888467 C17.096096,7.888467 16.261868,8.204162 15.672774,8.739848 C15.264167,9.111411 14.631714,9.081381 14.260152,8.672774 C13.888589,8.264167 13.918619,7.631714 14.327226,7.260152 C15.288359,6.386155 16.603508,5.888467 17.9999929,5.888467 C19.396492,5.888467 20.711641,6.386155 21.672774,7.260152 Z" id="Path"></path>
                                            <path d="M41.672774,7.260152 C42.081381,7.631714 42.111411,8.264167 41.739848,8.672774 C41.368286,9.081381 40.735833,9.111411 40.327226,8.739848 C39.738132,8.204162 38.903904,7.888467 37.9999929,7.888467 C37.096096,7.888467 36.261868,8.204162 35.672774,8.739848 C35.264167,9.111411 34.631714,9.081381 34.260152,8.672774 C33.888589,8.264167 33.918619,7.631714 34.327226,7.260152 C35.288359,6.386155 36.603508,5.888467 37.9999929,5.888467 C39.396492,5.888467 40.711641,6.386155 41.672774,7.260152 Z" id="Path"></path>
                                            <path d="M22.253377,18.5747766 C21.758655,18.3420193 21.556617,17.7730905 21.802113,17.3040394 C22.04761,16.8349883 22.647675,16.643434 23.142397,16.8761913 C24.514002,17.5215065 26.208208,17.8809428 28,17.8809428 C29.791792,17.8809428 31.485998,17.5215065 32.857603,16.8761913 C33.352325,16.643434 33.95239,16.8349883 34.197887,17.3040394 C34.443383,17.7730905 34.241345,18.3420193 33.746623,18.5747766 C32.09222,19.3531421 30.093595,19.7771636 28,19.7771636 C25.906405,19.7771636 23.90778,19.3531421 22.253377,18.5747766 Z" id="Path" transform="translate(28.000000, 18.277164) scale(1, -1) translate(-28.000000, -18.277164) "></path>
                                            <path d="M18,16 C13.581722,16 10,12.418278 10,8 C10,3.581722 13.581722,0 18,0 C22.418278,0 26,3.581722 26,8 C26,12.418278 22.418278,16 18,16 Z M18,14 C21.313708,14 24,11.313708 24,8 C24,4.686292 21.313708,2 18,2 C14.686292,2 12,4.686292 12,8 C12,11.313708 14.686292,14 18,14 Z" id="Shape"></path>
                                            <path d="M38,16 C33.581722,16 30,12.418278 30,8 C30,3.581722 33.581722,0 38,0 C42.418278,0 46,3.581722 46,8 C46,12.418278 42.418278,16 38,16 Z M38,14 C41.313708,14 44,11.313708 44,8 C44,4.686292 41.313708,2 38,2 C34.686292,2 32,4.686292 32,8 C32,11.313708 34.686292,14 38,14 Z" id="Shape"></path>
                                            <path d="M25.5547,6.83205 L24.72265,7.38675 L23.61325,5.72265 L24.4453,5.16795 C25.602344,4.396587 26.792105,4 28,4 C29.207895,4 30.397656,4.396587 31.5547,5.16795 L32.38675,5.72265 L31.27735,7.38675 L30.4453,6.83205 C29.602344,6.27008 28.792105,6 28,6 C27.207895,6 26.397656,6.27008 25.5547,6.83205 Z" id="Path"></path>
                                            <polygon id="Path" points="45.371391 6.928477 44.628609 5.071523 54.628609 2.071523 55.371391 3.928477"></polygon>
                                            <polygon id="Path" points="11.371499 5.072242 10.628501 6.929109 0.628501 3.928433 1.371499 2.071567"></polygon>
                                        </g>
                                        <g id="Shape">
                                            <path d="M28,56 C43.463973,56 56,43.463973 56,28 C56,12.536027 43.463973,0 28,0 C12.536027,0 0,12.536027 0,28 C0,43.463973 12.536027,56 28,56 Z M28,54 C13.640597,54 2,42.359403 2,28 C2,13.640597 13.640597,2 28,2 C42.359403,2 54,13.640597 54,28 C54,42.359403 42.359403,54 28,54 Z"></path>
                                        </g>
                                    </g>
                                </g>
                            </g>
                            <path d="M28,9 C37.3888407,9 45,8.32842712 45,7.5 C45,6.67157288 37.3888407,2 28,2 C18.6111593,2 11,6.67157288 11,7.5 C11,8.32842712 18.6111593,9 28,9 Z" id="Oval"></path>
                            <path d="M8,15 C12.418278,15 16,12.3137085 16,9 C16,5.6862915 20.418278,5.5 16,5.5 C11.581722,5.5 6,9.36402588 6,12.6777344 C6,15.9914429 3.581722,15 8,15 Z" id="Oval"></path>
                            <path d="M41.6604522,15.5 C46.0787302,15.5 49.6604522,12.8137085 49.6604522,9.5 C49.6604522,6.1862915 54.0787302,6 49.6604522,6 C45.2421742,6 39.6604522,9.86402588 39.6604522,13.1777344 C39.6604522,16.4914429 37.2421742,15.5 41.6604522,15.5 Z" id="Oval" transform="translate(45.312066, 10.819477) scale(-1, 1) translate(-45.312066, -10.819477) "></path>
                        </g>
                        <g id="uil-tear" transform="translate(38.000000, 41.000000)" fill-rule="nonzero">
                            <g id="Icon" transform="translate(1.000000, 0.000000)" fill="#000000">
                                <path d="M2.12,0.452083333 C2.04750377,0.404442391 1.95249623,0.404442391 1.88,0.452083333 C1.81571429,0.49375 0.339285714,1.49375 0.339285714,2.96875 C0.339285714,3.86045975 1.08281283,4.58333333 2,4.58333333 C2.91718717,4.58333333 3.66071429,3.86045975 3.66071429,2.96875 C3.66071429,1.46875 2.18214286,0.491666667 2.12,0.452083333 Z M2,4.16666667 C1.31999547,4.16551989 0.769036685,3.62986551 0.767857143,2.96875 C0.767857143,1.92708333 1.67,1.14166667 2,0.885416667 C2.33214286,1.1375 3.23214286,1.92708333 3.23214286,2.96875 C3.23096331,3.62986551 2.68000453,4.16551989 2,4.16666667 Z" id="Icon-Shape"></path>
                            </g>
                            <rect id="ViewBox" x="0" y="0" width="5" height="5"></rect>
                        </g>
                        <g id="uil-tear" transform="translate(14.000000, 41.000000)" fill-rule="nonzero">
                            <g id="Icon" transform="translate(1.000000, 0.000000)" fill="#000000">
                                <path d="M2.12,0.452083333 C2.04750377,0.404442391 1.95249623,0.404442391 1.88,0.452083333 C1.81571429,0.49375 0.339285714,1.49375 0.339285714,2.96875 C0.339285714,3.86045975 1.08281283,4.58333333 2,4.58333333 C2.91718717,4.58333333 3.66071429,3.86045975 3.66071429,2.96875 C3.66071429,1.46875 2.18214286,0.491666667 2.12,0.452083333 Z M2,4.16666667 C1.31999547,4.16551989 0.769036685,3.62986551 0.767857143,2.96875 C0.767857143,1.92708333 1.67,1.14166667 2,0.885416667 C2.33214286,1.1375 3.23214286,1.92708333 3.23214286,2.96875 C3.23096331,3.62986551 2.68000453,4.16551989 2,4.16666667 Z" id="Icon-Shape"></path>
                            </g>
                            <rect id="ViewBox" x="0" y="0" width="5" height="5"></rect>
                        </g>
                    </g>
                </g>
                <g id="icons/andres/sad" transform="translate(482.000000, 161.000000)">
                    <g>
                        <g id="Andres-icon-sad" fill="#000000">
                            <g id="noun_nerd_2634180" fill-rule="nonzero">
                                <g id="Group">
                                    <g>
                                        <g transform="translate(0.000000, 23.000000)">
                                            <path d="M21.672774,7.260152 C22.081381,7.631714 22.111411,8.264167 21.739848,8.672774 C21.368286,9.081381 20.735833,9.111411 20.327226,8.739848 C19.738132,8.204162 18.903904,7.888467 17.9999929,7.888467 C17.096096,7.888467 16.261868,8.204162 15.672774,8.739848 C15.264167,9.111411 14.631714,9.081381 14.260152,8.672774 C13.888589,8.264167 13.918619,7.631714 14.327226,7.260152 C15.288359,6.386155 16.603508,5.888467 17.9999929,5.888467 C19.396492,5.888467 20.711641,6.386155 21.672774,7.260152 Z" id="Path"></path>
                                            <path d="M41.672774,7.260152 C42.081381,7.631714 42.111411,8.264167 41.739848,8.672774 C41.368286,9.081381 40.735833,9.111411 40.327226,8.739848 C39.738132,8.204162 38.903904,7.888467 37.9999929,7.888467 C37.096096,7.888467 36.261868,8.204162 35.672774,8.739848 C35.264167,9.111411 34.631714,9.081381 34.260152,8.672774 C33.888589,8.264167 33.918619,7.631714 34.327226,7.260152 C35.288359,6.386155 36.603508,5.888467 37.9999929,5.888467 C39.396492,5.888467 40.711641,6.386155 41.672774,7.260152 Z" id="Path"></path>
                                            <path d="M22.253377,18.5747766 C21.758655,18.3420193 21.556617,17.7730905 21.802113,17.3040394 C22.04761,16.8349883 22.647675,16.643434 23.142397,16.8761913 C24.514002,17.5215065 26.208208,17.8809428 28,17.8809428 C29.791792,17.8809428 31.485998,17.5215065 32.857603,16.8761913 C33.352325,16.643434 33.95239,16.8349883 34.197887,17.3040394 C34.443383,17.7730905 34.241345,18.3420193 33.746623,18.5747766 C32.09222,19.3531421 30.093595,19.7771636 28,19.7771636 C25.906405,19.7771636 23.90778,19.3531421 22.253377,18.5747766 Z" id="Path" transform="translate(28.000000, 18.277164) scale(1, -1) translate(-28.000000, -18.277164) "></path>
                                            <path d="M18,16 C13.581722,16 10,12.418278 10,8 C10,3.581722 13.581722,0 18,0 C22.418278,0 26,3.581722 26,8 C26,12.418278 22.418278,16 18,16 Z M18,14 C21.313708,14 24,11.313708 24,8 C24,4.686292 21.313708,2 18,2 C14.686292,2 12,4.686292 12,8 C12,11.313708 14.686292,14 18,14 Z" id="Shape"></path>
                                            <path d="M38,16 C33.581722,16 30,12.418278 30,8 C30,3.581722 33.581722,0 38,0 C42.418278,0 46,3.581722 46,8 C46,12.418278 42.418278,16 38,16 Z M38,14 C41.313708,14 44,11.313708 44,8 C44,4.686292 41.313708,2 38,2 C34.686292,2 32,4.686292 32,8 C32,11.313708 34.686292,14 38,14 Z" id="Shape"></path>
                                            <path d="M25.5547,6.83205 L24.72265,7.38675 L23.61325,5.72265 L24.4453,5.16795 C25.602344,4.396587 26.792105,4 28,4 C29.207895,4 30.397656,4.396587 31.5547,5.16795 L32.38675,5.72265 L31.27735,7.38675 L30.4453,6.83205 C29.602344,6.27008 28.792105,6 28,6 C27.207895,6 26.397656,6.27008 25.5547,6.83205 Z" id="Path"></path>
                                            <polygon id="Path" points="45.371391 6.928477 44.628609 5.071523 54.628609 2.071523 55.371391 3.928477"></polygon>
                                            <polygon id="Path" points="11.371499 5.072242 10.628501 6.929109 0.628501 3.928433 1.371499 2.071567"></polygon>
                                        </g>
                                        <g id="Shape">
                                            <path d="M28,56 C43.463973,56 56,43.463973 56,28 C56,12.536027 43.463973,0 28,0 C12.536027,0 0,12.536027 0,28 C0,43.463973 12.536027,56 28,56 Z M28,54 C13.640597,54 2,42.359403 2,28 C2,13.640597 13.640597,2 28,2 C42.359403,2 54,13.640597 54,28 C54,42.359403 42.359403,54 28,54 Z"></path>
                                        </g>
                                    </g>
                                </g>
                            </g>
                            <path d="M28,9 C37.3888407,9 45,8.32842712 45,7.5 C45,6.67157288 37.3888407,2 28,2 C18.6111593,2 11,6.67157288 11,7.5 C11,8.32842712 18.6111593,9 28,9 Z" id="Oval"></path>
                            <path d="M8,15 C12.418278,15 16,12.3137085 16,9 C16,5.6862915 20.418278,5.5 16,5.5 C11.581722,5.5 6,9.36402588 6,12.6777344 C6,15.9914429 3.581722,15 8,15 Z" id="Oval"></path>
                            <path d="M41.6604522,15.5 C46.0787302,15.5 49.6604522,12.8137085 49.6604522,9.5 C49.6604522,6.1862915 54.0787302,6 49.6604522,6 C45.2421742,6 39.6604522,9.86402588 39.6604522,13.1777344 C39.6604522,16.4914429 37.2421742,15.5 41.6604522,15.5 Z" id="Oval" transform="translate(45.312066, 10.819477) scale(-1, 1) translate(-45.312066, -10.819477) "></path>
                        </g>
                        <g id="uil-tear" transform="translate(38.000000, 41.000000)" fill-rule="nonzero">
                            <g id="Icon" transform="translate(1.000000, 0.000000)" fill="#000000">
                                <path d="M2.12,0.452083333 C2.04750377,0.404442391 1.95249623,0.404442391 1.88,0.452083333 C1.81571429,0.49375 0.339285714,1.49375 0.339285714,2.96875 C0.339285714,3.86045975 1.08281283,4.58333333 2,4.58333333 C2.91718717,4.58333333 3.66071429,3.86045975 3.66071429,2.96875 C3.66071429,1.46875 2.18214286,0.491666667 2.12,0.452083333 Z M2,4.16666667 C1.31999547,4.16551989 0.769036685,3.62986551 0.767857143,2.96875 C0.767857143,1.92708333 1.67,1.14166667 2,0.885416667 C2.33214286,1.1375 3.23214286,1.92708333 3.23214286,2.96875 C3.23096331,3.62986551 2.68000453,4.16551989 2,4.16666667 Z" id="Icon-Shape"></path>
                            </g>
                            <rect id="ViewBox" x="0" y="0" width="5" height="5"></rect>
                        </g>
                        <g id="uil-tear" transform="translate(14.000000, 41.000000)" fill-rule="nonzero">
                            <g id="Icon" transform="translate(1.000000, 0.000000)" fill="#000000">
                                <path d="M2.12,0.452083333 C2.04750377,0.404442391 1.95249623,0.404442391 1.88,0.452083333 C1.81571429,0.49375 0.339285714,1.49375 0.339285714,2.96875 C0.339285714,3.86045975 1.08281283,4.58333333 2,4.58333333 C2.91718717,4.58333333 3.66071429,3.86045975 3.66071429,2.96875 C3.66071429,1.46875 2.18214286,0.491666667 2.12,0.452083333 Z M2,4.16666667 C1.31999547,4.16551989 0.769036685,3.62986551 0.767857143,2.96875 C0.767857143,1.92708333 1.67,1.14166667 2,0.885416667 C2.33214286,1.1375 3.23214286,1.92708333 3.23214286,2.96875 C3.23096331,3.62986551 2.68000453,4.16551989 2,4.16666667 Z" id="Icon-Shape"></path>
                            </g>
                            <rect id="ViewBox" x="0" y="0" width="5" height="5"></rect>
                        </g>
                    </g>
                </g>
                <g id="icons/andres/sad" transform="translate(670.000000, 161.000000)">
                    <g>
                        <g id="Andres-icon-sad" fill="#000000">
                            <g id="noun_nerd_2634180" fill-rule="nonzero">
                                <g id="Group">
                                    <g>
                                        <g transform="translate(0.000000, 23.000000)">
                                            <path d="M21.672774,7.260152 C22.081381,7.631714 22.111411,8.264167 21.739848,8.672774 C21.368286,9.081381 20.735833,9.111411 20.327226,8.739848 C19.738132,8.204162 18.903904,7.888467 17.9999929,7.888467 C17.096096,7.888467 16.261868,8.204162 15.672774,8.739848 C15.264167,9.111411 14.631714,9.081381 14.260152,8.672774 C13.888589,8.264167 13.918619,7.631714 14.327226,7.260152 C15.288359,6.386155 16.603508,5.888467 17.9999929,5.888467 C19.396492,5.888467 20.711641,6.386155 21.672774,7.260152 Z" id="Path"></path>
                                            <path d="M41.672774,7.260152 C42.081381,7.631714 42.111411,8.264167 41.739848,8.672774 C41.368286,9.081381 40.735833,9.111411 40.327226,8.739848 C39.738132,8.204162 38.903904,7.888467 37.9999929,7.888467 C37.096096,7.888467 36.261868,8.204162 35.672774,8.739848 C35.264167,9.111411 34.631714,9.081381 34.260152,8.672774 C33.888589,8.264167 33.918619,7.631714 34.327226,7.260152 C35.288359,6.386155 36.603508,5.888467 37.9999929,5.888467 C39.396492,5.888467 40.711641,6.386155 41.672774,7.260152 Z" id="Path"></path>
                                            <path d="M22.253377,18.5747766 C21.758655,18.3420193 21.556617,17.7730905 21.802113,17.3040394 C22.04761,16.8349883 22.647675,16.643434 23.142397,16.8761913 C24.514002,17.5215065 26.208208,17.8809428 28,17.8809428 C29.791792,17.8809428 31.485998,17.5215065 32.857603,16.8761913 C33.352325,16.643434 33.95239,16.8349883 34.197887,17.3040394 C34.443383,17.7730905 34.241345,18.3420193 33.746623,18.5747766 C32.09222,19.3531421 30.093595,19.7771636 28,19.7771636 C25.906405,19.7771636 23.90778,19.3531421 22.253377,18.5747766 Z" id="Path" transform="translate(28.000000, 18.277164) scale(1, -1) translate(-28.000000, -18.277164) "></path>
                                            <path d="M18,16 C13.581722,16 10,12.418278 10,8 C10,3.581722 13.581722,0 18,0 C22.418278,0 26,3.581722 26,8 C26,12.418278 22.418278,16 18,16 Z M18,14 C21.313708,14 24,11.313708 24,8 C24,4.686292 21.313708,2 18,2 C14.686292,2 12,4.686292 12,8 C12,11.313708 14.686292,14 18,14 Z" id="Shape"></path>
                                            <path d="M38,16 C33.581722,16 30,12.418278 30,8 C30,3.581722 33.581722,0 38,0 C42.418278,0 46,3.581722 46,8 C46,12.418278 42.418278,16 38,16 Z M38,14 C41.313708,14 44,11.313708 44,8 C44,4.686292 41.313708,2 38,2 C34.686292,2 32,4.686292 32,8 C32,11.313708 34.686292,14 38,14 Z" id="Shape"></path>
                                            <path d="M25.5547,6.83205 L24.72265,7.38675 L23.61325,5.72265 L24.4453,5.16795 C25.602344,4.396587 26.792105,4 28,4 C29.207895,4 30.397656,4.396587 31.5547,5.16795 L32.38675,5.72265 L31.27735,7.38675 L30.4453,6.83205 C29.602344,6.27008 28.792105,6 28,6 C27.207895,6 26.397656,6.27008 25.5547,6.83205 Z" id="Path"></path>
                                            <polygon id="Path" points="45.371391 6.928477 44.628609 5.071523 54.628609 2.071523 55.371391 3.928477"></polygon>
                                            <polygon id="Path" points="11.371499 5.072242 10.628501 6.929109 0.628501 3.928433 1.371499 2.071567"></polygon>
                                        </g>
                                        <g id="Shape">
                                            <path d="M28,56 C43.463973,56 56,43.463973 56,28 C56,12.536027 43.463973,0 28,0 C12.536027,0 0,12.536027 0,28 C0,43.463973 12.536027,56 28,56 Z M28,54 C13.640597,54 2,42.359403 2,28 C2,13.640597 13.640597,2 28,2 C42.359403,2 54,13.640597 54,28 C54,42.359403 42.359403,54 28,54 Z"></path>
                                        </g>
                                    </g>
                                </g>
                            </g>
                            <path d="M28,9 C37.3888407,9 45,8.32842712 45,7.5 C45,6.67157288 37.3888407,2 28,2 C18.6111593,2 11,6.67157288 11,7.5 C11,8.32842712 18.6111593,9 28,9 Z" id="Oval"></path>
                            <path d="M8,15 C12.418278,15 16,12.3137085 16,9 C16,5.6862915 20.418278,5.5 16,5.5 C11.581722,5.5 6,9.36402588 6,12.6777344 C6,15.9914429 3.581722,15 8,15 Z" id="Oval"></path>
                            <path d="M41.6604522,15.5 C46.0787302,15.5 49.6604522,12.8137085 49.6604522,9.5 C49.6604522,6.1862915 54.0787302,6 49.6604522,6 C45.2421742,6 39.6604522,9.86402588 39.6604522,13.1777344 C39.6604522,16.4914429 37.2421742,15.5 41.6604522,15.5 Z" id="Oval" transform="translate(45.312066, 10.819477) scale(-1, 1) translate(-45.312066, -10.819477) "></path>
                        </g>
                        <g id="uil-tear" transform="translate(38.000000, 41.000000)" fill-rule="nonzero">
                            <g id="Icon" transform="translate(1.000000, 0.000000)" fill="#000000">
                                <path d="M2.12,0.452083333 C2.04750377,0.404442391 1.95249623,0.404442391 1.88,0.452083333 C1.81571429,0.49375 0.339285714,1.49375 0.339285714,2.96875 C0.339285714,3.86045975 1.08281283,4.58333333 2,4.58333333 C2.91718717,4.58333333 3.66071429,3.86045975 3.66071429,2.96875 C3.66071429,1.46875 2.18214286,0.491666667 2.12,0.452083333 Z M2,4.16666667 C1.31999547,4.16551989 0.769036685,3.62986551 0.767857143,2.96875 C0.767857143,1.92708333 1.67,1.14166667 2,0.885416667 C2.33214286,1.1375 3.23214286,1.92708333 3.23214286,2.96875 C3.23096331,3.62986551 2.68000453,4.16551989 2,4.16666667 Z" id="Icon-Shape"></path>
                            </g>
                            <rect id="ViewBox" x="0" y="0" width="5" height="5"></rect>
                        </g>
                        <g id="uil-tear" transform="translate(14.000000, 41.000000)" fill-rule="nonzero">
                            <g id="Icon" transform="translate(1.000000, 0.000000)" fill="#000000">
                                <path d="M2.12,0.452083333 C2.04750377,0.404442391 1.95249623,0.404442391 1.88,0.452083333 C1.81571429,0.49375 0.339285714,1.49375 0.339285714,2.96875 C0.339285714,3.86045975 1.08281283,4.58333333 2,4.58333333 C2.91718717,4.58333333 3.66071429,3.86045975 3.66071429,2.96875 C3.66071429,1.46875 2.18214286,0.491666667 2.12,0.452083333 Z M2,4.16666667 C1.31999547,4.16551989 0.769036685,3.62986551 0.767857143,2.96875 C0.767857143,1.92708333 1.67,1.14166667 2,0.885416667 C2.33214286,1.1375 3.23214286,1.92708333 3.23214286,2.96875 C3.23096331,3.62986551 2.68000453,4.16551989 2,4.16666667 Z" id="Icon-Shape"></path>
                            </g>
                            <rect id="ViewBox" x="0" y="0" width="5" height="5"></rect>
                        </g>
                    </g>
                </g>
                <g id="icons/andres/sad" transform="translate(1041.000000, 161.000000)">
                    <g>
                        <g id="Andres-icon-sad" fill="#000000">
                            <g id="noun_nerd_2634180" fill-rule="nonzero">
                                <g id="Group">
                                    <g>
                                        <g transform="translate(0.000000, 23.000000)">
                                            <path d="M21.672774,7.260152 C22.081381,7.631714 22.111411,8.264167 21.739848,8.672774 C21.368286,9.081381 20.735833,9.111411 20.327226,8.739848 C19.738132,8.204162 18.903904,7.888467 17.9999929,7.888467 C17.096096,7.888467 16.261868,8.204162 15.672774,8.739848 C15.264167,9.111411 14.631714,9.081381 14.260152,8.672774 C13.888589,8.264167 13.918619,7.631714 14.327226,7.260152 C15.288359,6.386155 16.603508,5.888467 17.9999929,5.888467 C19.396492,5.888467 20.711641,6.386155 21.672774,7.260152 Z" id="Path"></path>
                                            <path d="M41.672774,7.260152 C42.081381,7.631714 42.111411,8.264167 41.739848,8.672774 C41.368286,9.081381 40.735833,9.111411 40.327226,8.739848 C39.738132,8.204162 38.903904,7.888467 37.9999929,7.888467 C37.096096,7.888467 36.261868,8.204162 35.672774,8.739848 C35.264167,9.111411 34.631714,9.081381 34.260152,8.672774 C33.888589,8.264167 33.918619,7.631714 34.327226,7.260152 C35.288359,6.386155 36.603508,5.888467 37.9999929,5.888467 C39.396492,5.888467 40.711641,6.386155 41.672774,7.260152 Z" id="Path"></path>
                                            <path d="M22.253377,18.5747766 C21.758655,18.3420193 21.556617,17.7730905 21.802113,17.3040394 C22.04761,16.8349883 22.647675,16.643434 23.142397,16.8761913 C24.514002,17.5215065 26.208208,17.8809428 28,17.8809428 C29.791792,17.8809428 31.485998,17.5215065 32.857603,16.8761913 C33.352325,16.643434 33.95239,16.8349883 34.197887,17.3040394 C34.443383,17.7730905 34.241345,18.3420193 33.746623,18.5747766 C32.09222,19.3531421 30.093595,19.7771636 28,19.7771636 C25.906405,19.7771636 23.90778,19.3531421 22.253377,18.5747766 Z" id="Path" transform="translate(28.000000, 18.277164) scale(1, -1) translate(-28.000000, -18.277164) "></path>
                                            <path d="M18,16 C13.581722,16 10,12.418278 10,8 C10,3.581722 13.581722,0 18,0 C22.418278,0 26,3.581722 26,8 C26,12.418278 22.418278,16 18,16 Z M18,14 C21.313708,14 24,11.313708 24,8 C24,4.686292 21.313708,2 18,2 C14.686292,2 12,4.686292 12,8 C12,11.313708 14.686292,14 18,14 Z" id="Shape"></path>
                                            <path d="M38,16 C33.581722,16 30,12.418278 30,8 C30,3.581722 33.581722,0 38,0 C42.418278,0 46,3.581722 46,8 C46,12.418278 42.418278,16 38,16 Z M38,14 C41.313708,14 44,11.313708 44,8 C44,4.686292 41.313708,2 38,2 C34.686292,2 32,4.686292 32,8 C32,11.313708 34.686292,14 38,14 Z" id="Shape"></path>
                                            <path d="M25.5547,6.83205 L24.72265,7.38675 L23.61325,5.72265 L24.4453,5.16795 C25.602344,4.396587 26.792105,4 28,4 C29.207895,4 30.397656,4.396587 31.5547,5.16795 L32.38675,5.72265 L31.27735,7.38675 L30.4453,6.83205 C29.602344,6.27008 28.792105,6 28,6 C27.207895,6 26.397656,6.27008 25.5547,6.83205 Z" id="Path"></path>
                                            <polygon id="Path" points="45.371391 6.928477 44.628609 5.071523 54.628609 2.071523 55.371391 3.928477"></polygon>
                                            <polygon id="Path" points="11.371499 5.072242 10.628501 6.929109 0.628501 3.928433 1.371499 2.071567"></polygon>
                                        </g>
                                        <g id="Shape">
                                            <path d="M28,56 C43.463973,56 56,43.463973 56,28 C56,12.536027 43.463973,0 28,0 C12.536027,0 0,12.536027 0,28 C0,43.463973 12.536027,56 28,56 Z M28,54 C13.640597,54 2,42.359403 2,28 C2,13.640597 13.640597,2 28,2 C42.359403,2 54,13.640597 54,28 C54,42.359403 42.359403,54 28,54 Z"></path>
                                        </g>
                                    </g>
                                </g>
                            </g>
                            <path d="M28,9 C37.3888407,9 45,8.32842712 45,7.5 C45,6.67157288 37.3888407,2 28,2 C18.6111593,2 11,6.67157288 11,7.5 C11,8.32842712 18.6111593,9 28,9 Z" id="Oval"></path>
                            <path d="M8,15 C12.418278,15 16,12.3137085 16,9 C16,5.6862915 20.418278,5.5 16,5.5 C11.581722,5.5 6,9.36402588 6,12.6777344 C6,15.9914429 3.581722,15 8,15 Z" id="Oval"></path>
                            <path d="M41.6604522,15.5 C46.0787302,15.5 49.6604522,12.8137085 49.6604522,9.5 C49.6604522,6.1862915 54.0787302,6 49.6604522,6 C45.2421742,6 39.6604522,9.86402588 39.6604522,13.1777344 C39.6604522,16.4914429 37.2421742,15.5 41.6604522,15.5 Z" id="Oval" transform="translate(45.312066, 10.819477) scale(-1, 1) translate(-45.312066, -10.819477) "></path>
                        </g>
                        <g id="uil-tear" transform="translate(38.000000, 41.000000)" fill-rule="nonzero">
                            <g id="Icon" transform="translate(1.000000, 0.000000)" fill="#000000">
                                <path d="M2.12,0.452083333 C2.04750377,0.404442391 1.95249623,0.404442391 1.88,0.452083333 C1.81571429,0.49375 0.339285714,1.49375 0.339285714,2.96875 C0.339285714,3.86045975 1.08281283,4.58333333 2,4.58333333 C2.91718717,4.58333333 3.66071429,3.86045975 3.66071429,2.96875 C3.66071429,1.46875 2.18214286,0.491666667 2.12,0.452083333 Z M2,4.16666667 C1.31999547,4.16551989 0.769036685,3.62986551 0.767857143,2.96875 C0.767857143,1.92708333 1.67,1.14166667 2,0.885416667 C2.33214286,1.1375 3.23214286,1.92708333 3.23214286,2.96875 C3.23096331,3.62986551 2.68000453,4.16551989 2,4.16666667 Z" id="Icon-Shape"></path>
                            </g>
                            <rect id="ViewBox" x="0" y="0" width="5" height="5"></rect>
                        </g>
                        <g id="uil-tear" transform="translate(14.000000, 41.000000)" fill-rule="nonzero">
                            <g id="Icon" transform="translate(1.000000, 0.000000)" fill="#000000">
                                <path d="M2.12,0.452083333 C2.04750377,0.404442391 1.95249623,0.404442391 1.88,0.452083333 C1.81571429,0.49375 0.339285714,1.49375 0.339285714,2.96875 C0.339285714,3.86045975 1.08281283,4.58333333 2,4.58333333 C2.91718717,4.58333333 3.66071429,3.86045975 3.66071429,2.96875 C3.66071429,1.46875 2.18214286,0.491666667 2.12,0.452083333 Z M2,4.16666667 C1.31999547,4.16551989 0.769036685,3.62986551 0.767857143,2.96875 C0.767857143,1.92708333 1.67,1.14166667 2,0.885416667 C2.33214286,1.1375 3.23214286,1.92708333 3.23214286,2.96875 C3.23096331,3.62986551 2.68000453,4.16551989 2,4.16666667 Z" id="Icon-Shape"></path>
                            </g>
                            <rect id="ViewBox" x="0" y="0" width="5" height="5"></rect>
                        </g>
                    </g>
                </g>
                <g id="icons/andres/upset" transform="translate(298.000000, 56.000000)" fill="#000000">
                    <g>
                        <g id="Andres-icon-sad">
                            <g id="noun_nerd_2634180" fill-rule="nonzero">
                                <g id="Group">
                                    <g>
                                        <g transform="translate(0.000000, 23.000000)">
                                            <path d="M21.672774,7.260152 C22.081381,7.631714 22.111411,8.264167 21.739848,8.672774 C21.368286,9.081381 20.735833,9.111411 20.327226,8.739848 C19.738132,8.204162 18.903904,7.888467 17.9999929,7.888467 C17.096096,7.888467 16.261868,8.204162 15.672774,8.739848 C15.264167,9.111411 14.631714,9.081381 14.260152,8.672774 C13.888589,8.264167 13.918619,7.631714 14.327226,7.260152 C15.288359,6.386155 16.603508,5.888467 17.9999929,5.888467 C19.396492,5.888467 20.711641,6.386155 21.672774,7.260152 Z" id="Path"></path>
                                            <path d="M41.672774,7.260152 C42.081381,7.631714 42.111411,8.264167 41.739848,8.672774 C41.368286,9.081381 40.735833,9.111411 40.327226,8.739848 C39.738132,8.204162 38.903904,7.888467 37.9999929,7.888467 C37.096096,7.888467 36.261868,8.204162 35.672774,8.739848 C35.264167,9.111411 34.631714,9.081381 34.260152,8.672774 C33.888589,8.264167 33.918619,7.631714 34.327226,7.260152 C35.288359,6.386155 36.603508,5.888467 37.9999929,5.888467 C39.396492,5.888467 40.711641,6.386155 41.672774,7.260152 Z" id="Path"></path>
                                            <path d="M18,16 C13.581722,16 10,12.418278 10,8 C10,3.581722 13.581722,0 18,0 C22.418278,0 26,3.581722 26,8 C26,12.418278 22.418278,16 18,16 Z M18,14 C21.313708,14 24,11.313708 24,8 C24,4.686292 21.313708,2 18,2 C14.686292,2 12,4.686292 12,8 C12,11.313708 14.686292,14 18,14 Z" id="Shape"></path>
                                            <path d="M38,16 C33.581722,16 30,12.418278 30,8 C30,3.581722 33.581722,0 38,0 C42.418278,0 46,3.581722 46,8 C46,12.418278 42.418278,16 38,16 Z M38,14 C41.313708,14 44,11.313708 44,8 C44,4.686292 41.313708,2 38,2 C34.686292,2 32,4.686292 32,8 C32,11.313708 34.686292,14 38,14 Z" id="Shape"></path>
                                            <path d="M25.5547,6.83205 L24.72265,7.38675 L23.61325,5.72265 L24.4453,5.16795 C25.602344,4.396587 26.792105,4 28,4 C29.207895,4 30.397656,4.396587 31.5547,5.16795 L32.38675,5.72265 L31.27735,7.38675 L30.4453,6.83205 C29.602344,6.27008 28.792105,6 28,6 C27.207895,6 26.397656,6.27008 25.5547,6.83205 Z" id="Path"></path>
                                            <polygon id="Path" points="45.371391 6.928477 44.628609 5.071523 54.628609 2.071523 55.371391 3.928477"></polygon>
                                            <polygon id="Path" points="11.371499 5.072242 10.628501 6.929109 0.628501 3.928433 1.371499 2.071567"></polygon>
                                        </g>
                                        <g id="Shape">
                                            <path d="M28,56 C43.463973,56 56,43.463973 56,28 C56,12.536027 43.463973,0 28,0 C12.536027,0 0,12.536027 0,28 C0,43.463973 12.536027,56 28,56 Z M28,54 C13.640597,54 2,42.359403 2,28 C2,13.640597 13.640597,2 28,2 C42.359403,2 54,13.640597 54,28 C54,42.359403 42.359403,54 28,54 Z"></path>
                                        </g>
                                    </g>
                                </g>
                            </g>
                            <path d="M28,9 C37.3888407,9 45,8.32842712 45,7.5 C45,6.67157288 37.3888407,2 28,2 C18.6111593,2 11,6.67157288 11,7.5 C11,8.32842712 18.6111593,9 28,9 Z" id="Oval"></path>
                            <path d="M8,15 C12.418278,15 16,12.3137085 16,9 C16,5.6862915 20.418278,5.5 16,5.5 C11.581722,5.5 6,9.36402588 6,12.6777344 C6,15.9914429 3.581722,15 8,15 Z" id="Oval"></path>
                            <path d="M41.6604522,15.5 C46.0787302,15.5 49.6604522,12.8137085 49.6604522,9.5 C49.6604522,6.1862915 54.0787302,6 49.6604522,6 C45.2421742,6 39.6604522,9.86402588 39.6604522,13.1777344 C39.6604522,16.4914429 37.2421742,15.5 41.6604522,15.5 Z" id="Oval" transform="translate(45.312066, 10.819477) scale(-1, 1) translate(-45.312066, -10.819477) "></path>
                        </g>
                        <rect id="Rectangle" x="20" y="44" width="16" height="2" rx="1"></rect>
                    </g>
                </g>
                <g id="icons/andres/upset" transform="translate(386.000000, 56.000000)" fill="#000000">
                    <g>
                        <g id="Andres-icon-sad">
                            <g id="noun_nerd_2634180" fill-rule="nonzero">
                                <g id="Group">
                                    <g>
                                        <g transform="translate(0.000000, 23.000000)">
                                            <path d="M21.672774,7.260152 C22.081381,7.631714 22.111411,8.264167 21.739848,8.672774 C21.368286,9.081381 20.735833,9.111411 20.327226,8.739848 C19.738132,8.204162 18.903904,7.888467 17.9999929,7.888467 C17.096096,7.888467 16.261868,8.204162 15.672774,8.739848 C15.264167,9.111411 14.631714,9.081381 14.260152,8.672774 C13.888589,8.264167 13.918619,7.631714 14.327226,7.260152 C15.288359,6.386155 16.603508,5.888467 17.9999929,5.888467 C19.396492,5.888467 20.711641,6.386155 21.672774,7.260152 Z" id="Path"></path>
                                            <path d="M41.672774,7.260152 C42.081381,7.631714 42.111411,8.264167 41.739848,8.672774 C41.368286,9.081381 40.735833,9.111411 40.327226,8.739848 C39.738132,8.204162 38.903904,7.888467 37.9999929,7.888467 C37.096096,7.888467 36.261868,8.204162 35.672774,8.739848 C35.264167,9.111411 34.631714,9.081381 34.260152,8.672774 C33.888589,8.264167 33.918619,7.631714 34.327226,7.260152 C35.288359,6.386155 36.603508,5.888467 37.9999929,5.888467 C39.396492,5.888467 40.711641,6.386155 41.672774,7.260152 Z" id="Path"></path>
                                            <path d="M18,16 C13.581722,16 10,12.418278 10,8 C10,3.581722 13.581722,0 18,0 C22.418278,0 26,3.581722 26,8 C26,12.418278 22.418278,16 18,16 Z M18,14 C21.313708,14 24,11.313708 24,8 C24,4.686292 21.313708,2 18,2 C14.686292,2 12,4.686292 12,8 C12,11.313708 14.686292,14 18,14 Z" id="Shape"></path>
                                            <path d="M38,16 C33.581722,16 30,12.418278 30,8 C30,3.581722 33.581722,0 38,0 C42.418278,0 46,3.581722 46,8 C46,12.418278 42.418278,16 38,16 Z M38,14 C41.313708,14 44,11.313708 44,8 C44,4.686292 41.313708,2 38,2 C34.686292,2 32,4.686292 32,8 C32,11.313708 34.686292,14 38,14 Z" id="Shape"></path>
                                            <path d="M25.5547,6.83205 L24.72265,7.38675 L23.61325,5.72265 L24.4453,5.16795 C25.602344,4.396587 26.792105,4 28,4 C29.207895,4 30.397656,4.396587 31.5547,5.16795 L32.38675,5.72265 L31.27735,7.38675 L30.4453,6.83205 C29.602344,6.27008 28.792105,6 28,6 C27.207895,6 26.397656,6.27008 25.5547,6.83205 Z" id="Path"></path>
                                            <polygon id="Path" points="45.371391 6.928477 44.628609 5.071523 54.628609 2.071523 55.371391 3.928477"></polygon>
                                            <polygon id="Path" points="11.371499 5.072242 10.628501 6.929109 0.628501 3.928433 1.371499 2.071567"></polygon>
                                        </g>
                                        <g id="Shape">
                                            <path d="M28,56 C43.463973,56 56,43.463973 56,28 C56,12.536027 43.463973,0 28,0 C12.536027,0 0,12.536027 0,28 C0,43.463973 12.536027,56 28,56 Z M28,54 C13.640597,54 2,42.359403 2,28 C2,13.640597 13.640597,2 28,2 C42.359403,2 54,13.640597 54,28 C54,42.359403 42.359403,54 28,54 Z"></path>
                                        </g>
                                    </g>
                                </g>
                            </g>
                            <path d="M28,9 C37.3888407,9 45,8.32842712 45,7.5 C45,6.67157288 37.3888407,2 28,2 C18.6111593,2 11,6.67157288 11,7.5 C11,8.32842712 18.6111593,9 28,9 Z" id="Oval"></path>
                            <path d="M8,15 C12.418278,15 16,12.3137085 16,9 C16,5.6862915 20.418278,5.5 16,5.5 C11.581722,5.5 6,9.36402588 6,12.6777344 C6,15.9914429 3.581722,15 8,15 Z" id="Oval"></path>
                            <path d="M41.6604522,15.5 C46.0787302,15.5 49.6604522,12.8137085 49.6604522,9.5 C49.6604522,6.1862915 54.0787302,6 49.6604522,6 C45.2421742,6 39.6604522,9.86402588 39.6604522,13.1777344 C39.6604522,16.4914429 37.2421742,15.5 41.6604522,15.5 Z" id="Oval" transform="translate(45.312066, 10.819477) scale(-1, 1) translate(-45.312066, -10.819477) "></path>
                        </g>
                        <rect id="Rectangle" x="20" y="44" width="16" height="2" rx="1"></rect>
                    </g>
                </g>
                <g id="icons/andres/upset" transform="translate(844.000000, 56.000000)" fill="#000000">
                    <g>
                        <g id="Andres-icon-sad">
                            <g id="noun_nerd_2634180" fill-rule="nonzero">
                                <g id="Group">
                                    <g>
                                        <g transform="translate(0.000000, 23.000000)">
                                            <path d="M21.672774,7.260152 C22.081381,7.631714 22.111411,8.264167 21.739848,8.672774 C21.368286,9.081381 20.735833,9.111411 20.327226,8.739848 C19.738132,8.204162 18.903904,7.888467 17.9999929,7.888467 C17.096096,7.888467 16.261868,8.204162 15.672774,8.739848 C15.264167,9.111411 14.631714,9.081381 14.260152,8.672774 C13.888589,8.264167 13.918619,7.631714 14.327226,7.260152 C15.288359,6.386155 16.603508,5.888467 17.9999929,5.888467 C19.396492,5.888467 20.711641,6.386155 21.672774,7.260152 Z" id="Path"></path>
                                            <path d="M41.672774,7.260152 C42.081381,7.631714 42.111411,8.264167 41.739848,8.672774 C41.368286,9.081381 40.735833,9.111411 40.327226,8.739848 C39.738132,8.204162 38.903904,7.888467 37.9999929,7.888467 C37.096096,7.888467 36.261868,8.204162 35.672774,8.739848 C35.264167,9.111411 34.631714,9.081381 34.260152,8.672774 C33.888589,8.264167 33.918619,7.631714 34.327226,7.260152 C35.288359,6.386155 36.603508,5.888467 37.9999929,5.888467 C39.396492,5.888467 40.711641,6.386155 41.672774,7.260152 Z" id="Path"></path>
                                            <path d="M18,16 C13.581722,16 10,12.418278 10,8 C10,3.581722 13.581722,0 18,0 C22.418278,0 26,3.581722 26,8 C26,12.418278 22.418278,16 18,16 Z M18,14 C21.313708,14 24,11.313708 24,8 C24,4.686292 21.313708,2 18,2 C14.686292,2 12,4.686292 12,8 C12,11.313708 14.686292,14 18,14 Z" id="Shape"></path>
                                            <path d="M38,16 C33.581722,16 30,12.418278 30,8 C30,3.581722 33.581722,0 38,0 C42.418278,0 46,3.581722 46,8 C46,12.418278 42.418278,16 38,16 Z M38,14 C41.313708,14 44,11.313708 44,8 C44,4.686292 41.313708,2 38,2 C34.686292,2 32,4.686292 32,8 C32,11.313708 34.686292,14 38,14 Z" id="Shape"></path>
                                            <path d="M25.5547,6.83205 L24.72265,7.38675 L23.61325,5.72265 L24.4453,5.16795 C25.602344,4.396587 26.792105,4 28,4 C29.207895,4 30.397656,4.396587 31.5547,5.16795 L32.38675,5.72265 L31.27735,7.38675 L30.4453,6.83205 C29.602344,6.27008 28.792105,6 28,6 C27.207895,6 26.397656,6.27008 25.5547,6.83205 Z" id="Path"></path>
                                            <polygon id="Path" points="45.371391 6.928477 44.628609 5.071523 54.628609 2.071523 55.371391 3.928477"></polygon>
                                            <polygon id="Path" points="11.371499 5.072242 10.628501 6.929109 0.628501 3.928433 1.371499 2.071567"></polygon>
                                        </g>
                                        <g id="Shape">
                                            <path d="M28,56 C43.463973,56 56,43.463973 56,28 C56,12.536027 43.463973,0 28,0 C12.536027,0 0,12.536027 0,28 C0,43.463973 12.536027,56 28,56 Z M28,54 C13.640597,54 2,42.359403 2,28 C2,13.640597 13.640597,2 28,2 C42.359403,2 54,13.640597 54,28 C54,42.359403 42.359403,54 28,54 Z"></path>
                                        </g>
                                    </g>
                                </g>
                            </g>
                            <path d="M28,9 C37.3888407,9 45,8.32842712 45,7.5 C45,6.67157288 37.3888407,2 28,2 C18.6111593,2 11,6.67157288 11,7.5 C11,8.32842712 18.6111593,9 28,9 Z" id="Oval"></path>
                            <path d="M8,15 C12.418278,15 16,12.3137085 16,9 C16,5.6862915 20.418278,5.5 16,5.5 C11.581722,5.5 6,9.36402588 6,12.6777344 C6,15.9914429 3.581722,15 8,15 Z" id="Oval"></path>
                            <path d="M41.6604522,15.5 C46.0787302,15.5 49.6604522,12.8137085 49.6604522,9.5 C49.6604522,6.1862915 54.0787302,6 49.6604522,6 C45.2421742,6 39.6604522,9.86402588 39.6604522,13.1777344 C39.6604522,16.4914429 37.2421742,15.5 41.6604522,15.5 Z" id="Oval" transform="translate(45.312066, 10.819477) scale(-1, 1) translate(-45.312066, -10.819477) "></path>
                        </g>
                        <rect id="Rectangle" x="20" y="44" width="16" height="2" rx="1"></rect>
                    </g>
                </g>
            </g>
        </g>
    </g>
</svg>