<?xml version="1.0" encoding="UTF-8"?>
<svg width="99px" height="95px" viewBox="0 0 99 95" version="1.1" xmlns="http://www.w3.org/2000/svg" xmlns:xlink="http://www.w3.org/1999/xlink">
    <title>noun_Bathroom_1062415</title>
    <g id="Project-images" stroke="none" stroke-width="1" fill="none" fill-rule="evenodd">
        <g id="Key-features-project-6" transform="translate(-257.000000, -22.000000)" fill="#000000" fill-rule="nonzero">
            <g id="noun_Bathroom_1062415" transform="translate(257.000000, 22.000000)">
                <g id="Group">
                    <path d="M16.7035976,21.2556707 C22.3132317,21.2556707 26.8767073,16.6921951 26.8767073,11.082561 C26.8767073,5.47292683 22.3132317,0.90945122 16.7035976,0.90945122 C11.0939634,0.90945122 6.5304878,5.47292683 6.5304878,11.082561 C6.5304878,16.6921951 11.0939634,21.2556707 16.7035976,21.2556707 Z M16.7035976,3.80579268 C20.7156098,3.80579268 23.9803659,7.06939024 23.9803659,11.082561 C23.9803659,15.0957317 20.7167683,18.3593293 16.7035976,18.3593293 C12.6904268,18.3593293 9.42682927,15.0945732 9.42682927,11.082561 C9.42682927,7.07054878 12.6904268,3.80579268 16.7035976,3.80579268 Z" id="Shape"></path>
                    <path d="M20.722561,22.5462805 L13.0472561,22.5462805 C5.86085366,22.5462805 0.0137195122,28.3934146 0.0137195122,35.5798171 L0.0137195122,47.9344512 C0.0137195122,50.9304268 1.05176829,53.8267683 2.94597561,56.1519512 L2.94597561,94.1310976 L14.6402439,94.1310976 L14.6402439,64.805061 C15.0909146,64.8537195 15.5369512,64.8780488 15.9795122,64.8780488 L17.4276829,64.8780488 C17.8690854,64.8780488 18.3162805,64.8537195 18.7669512,64.805061 L18.7669512,94.1310976 L30.4612195,94.1310976 L30.4612195,56.5887195 C32.5906098,54.1963415 33.7560976,51.1470732 33.7560976,47.9344512 L33.7560976,35.5798171 C33.7560976,28.3934146 27.9089634,22.5462805 20.722561,22.5462805 Z M5.84231707,91.2347561 L5.84231707,87.7591463 L11.7439024,87.7591463 L11.7439024,91.2347561 L5.84231707,91.2347561 Z M21.6632927,91.2347561 L21.6632927,87.7591463 L27.564878,87.7591463 L27.564878,91.2347561 L21.6632927,91.2347561 Z M30.8597561,47.9344512 C30.8597561,50.2179268 30.097439,52.3936585 28.702561,54.1708537 L26.8767073,54.1708537 L26.8767073,37.0731707 L23.9803659,37.0731707 L23.9803659,57.0671951 L27.564878,57.0671951 L27.564878,84.8628049 L21.6632927,84.8628049 L21.6632927,61.2275 L19.8664024,61.6735366 C19.0392073,61.8785976 18.2178049,61.9828659 17.4276829,61.9828659 L15.9795122,61.9828659 C15.1893902,61.9828659 14.3679878,61.8785976 13.5407927,61.6735366 L11.7439024,61.2275 L11.7439024,84.8628049 L5.84231707,84.8628049 L5.84231707,57.0671951 L10.0060976,57.0671951 L10.0060976,37.0731707 L7.1097561,37.0731707 L7.1097561,54.1708537 L5.08231707,54.1708537 C3.68280488,52.3878659 2.91006098,50.1993902 2.91006098,47.9344512 L2.91006098,35.5798171 C2.91006098,29.989878 7.45731707,25.442622 13.0472561,25.442622 L15.2554268,25.442622 L18.1517683,25.442622 L20.722561,25.442622 C26.3125,25.442622 30.8597561,29.989878 30.8597561,35.5798171 L30.8597561,47.9344512 Z" id="Shape"></path>
                    <path d="M72.6389024,21.2556707 C78.2485366,21.2556707 82.8108537,16.6921951 82.8108537,11.082561 C82.8108537,5.47292683 78.2485366,0.90945122 72.6389024,0.90945122 C67.0292683,0.90945122 62.4669512,5.47292683 62.4669512,11.082561 C62.4669512,16.6921951 67.0292683,21.2556707 72.6389024,21.2556707 Z M72.6389024,3.80579268 C76.6509146,3.80579268 79.9145122,7.06939024 79.9145122,11.082561 C79.9145122,15.0957317 76.6509146,18.3593293 72.6389024,18.3593293 C68.6268902,18.3593293 65.3632927,15.0957317 65.3632927,11.082561 C65.3632927,7.06939024 68.6268902,3.80579268 72.6389024,3.80579268 Z" id="Shape"></path>
                    <path d="M98.007378,74.2425 L86.3965244,58.3242073 L86.3965244,56.5887195 C88.5270732,54.1975 89.692561,51.1470732 89.692561,47.9344512 L89.692561,35.5798171 C89.692561,28.3934146 83.8454268,22.5462805 76.6590244,22.5462805 L68.9837195,22.5462805 C61.7973171,22.5462805 55.9501829,28.3934146 55.9501829,35.5798171 L55.9501829,47.9344512 C55.9501829,50.9304268 56.9882317,53.8267683 58.8812805,56.1519512 L58.8812805,58.3554878 L48.2285366,74.2425 L59.8057927,74.2425 L59.8057927,94.1890244 L71.500061,94.1890244 L71.500061,74.2425 L74.3593293,74.2425 L74.3593293,94.1890244 L86.052439,94.1890244 L86.052439,74.2425 L98.007378,74.2425 Z M61.777622,59.2359756 L61.777622,57.0671951 L65.942561,57.0671951 L65.942561,37.0731707 L63.0462195,37.0731707 L63.0462195,54.1708537 L61.0164634,54.1708537 C59.6169512,52.3878659 58.8453659,50.1993902 58.8453659,47.9344512 L58.8453659,35.5798171 C58.8453659,29.989878 63.392622,25.442622 68.982561,25.442622 L71.1895732,25.442622 L72.6389024,25.442622 L71.1895732,25.442622 L74.0859146,25.442622 L76.6578659,25.442622 C82.2478049,25.442622 86.795061,29.989878 86.795061,35.5798171 L86.795061,47.9344512 C86.795061,50.2167683 86.0327439,52.3925 84.6378659,54.1708537 L82.8108537,54.1708537 L82.8108537,37.0731707 L79.9145122,37.0731707 L79.9145122,57.0671951 L83.5001829,57.0671951 L83.5001829,59.2672561 L92.3096951,71.3461585 L53.6562805,71.3461585 L61.777622,59.2359756 Z M62.7009756,91.2926829 L62.7009756,87.7591463 L68.602561,87.7591463 L68.602561,91.2926829 L62.7009756,91.2926829 Z M68.602561,84.8628049 L62.7009756,84.8628049 L62.7009756,74.2425 L68.602561,74.2425 L68.602561,84.8628049 Z M77.2545122,91.2926829 L77.2545122,87.7591463 L83.1560976,87.7591463 L83.1560976,91.2926829 L77.2545122,91.2926829 Z M83.1560976,84.8628049 L77.2545122,84.8628049 L77.2545122,74.2425 L83.1560976,74.2425 L83.1560976,84.8628049 Z" id="Shape"></path>
                    <rect id="Rectangle" x="43.0093293" y="2.35762195" width="2.89634146" height="90.3832317"></rect>
                </g>
            </g>
        </g>
    </g>
</svg>