<?xml version="1.0" encoding="UTF-8"?>
<svg width="53px" height="95px" viewBox="0 0 53 95" version="1.1" xmlns="http://www.w3.org/2000/svg" xmlns:xlink="http://www.w3.org/1999/xlink">
    <title>noun_experiment_2715475</title>
    <g id="Project-images" stroke="none" stroke-width="1" fill="none" fill-rule="evenodd">
        <g id="Key-features-project-6" transform="translate(-655.000000, -22.000000)" fill="#000000" fill-rule="nonzero">
            <g id="noun_experiment_2715475" transform="translate(655.000000, 22.000000)">
                <path d="M45.262,0.78375 L7.74094444,0.78375 C4.52855556,0.78375 1.91388889,3.42 1.91388889,6.65890625 C1.91388889,9.8978125 4.52855556,12.5340625 7.74094444,12.5340625 L8.59188889,12.5340625 L8.59188889,76.1603125 C8.59188889,86.1175 16.6272778,94.2192187 26.5,94.2192187 C36.3756667,94.2192187 44.4110556,86.1175 44.4110556,76.1603125 L44.4110556,12.5340625 L45.262,12.5340625 C48.4743889,12.5340625 51.0890556,9.8978125 51.0890556,6.65890625 C51.0890556,3.41703125 48.4743889,0.78375 45.262,0.78375 Z M26.5,91.2475 C18.2496667,91.2475 11.5363333,84.47875 11.5363333,76.1573437 L11.5363333,29.1739062 C12.9496667,27.9982812 17.8021111,24.62875 23.638,28.0903125 C29.5475,31.5964062 32.0944444,33.000625 36.4875556,33.000625 C37.8979444,33.000625 39.5056111,32.8551562 41.4636676,32.585 L41.4636676,76.1573437 C41.4666111,84.47875 34.7532778,91.2475 26.5,91.2475 Z M41.4666111,29.5925 C33.8346111,30.6790625 32.5449444,29.9279687 25.1308333,25.5342187 C19.7837222,22.3635937 14.7487222,23.643125 11.5363333,25.5401562 L11.5363333,12.5340625 L41.4666111,12.5340625 L41.4666111,29.5925 L41.4666111,29.5925 Z M45.262,9.5653125 L7.74094444,9.5653125 C6.15094444,9.5653125 4.85833333,8.26203125 4.85833333,6.65890625 C4.85833333,5.0528125 6.15094444,3.7525 7.74094444,3.7525 L45.262,3.7525 C46.852,3.7525 48.1446111,5.0528125 48.1446111,6.65890625 C48.1446111,8.2590625 46.852,9.5653125 45.262,9.5653125 Z" id="Shape"></path>
                <path d="M31.7823333,35.7140625 C28.6406111,35.7140625 26.0818889,38.2909375 26.0818889,41.4615625 C26.0818889,44.6321875 28.6376667,47.2090625 31.7823333,47.2090625 C34.927,47.2090625 37.4857222,44.6321875 37.4857222,41.4615625 C37.4857222,38.2909375 34.927,35.7140625 31.7823333,35.7140625 Z M31.7823333,44.2373437 C30.263,44.2373437 29.0263333,42.9904687 29.0263333,41.4585937 C29.0263333,39.9267187 30.263,38.6798437 31.7823333,38.6798437 C33.3046111,38.6798437 34.5412778,39.9267187 34.5412778,41.4585937 C34.5412778,42.9904687 33.3046111,44.2373437 31.7823333,44.2373437 Z" id="Shape"></path>
                <path d="M18.2408333,50.4064063 C15.7792778,50.4064063 13.7770556,52.4251563 13.7770556,54.9070313 C13.7770556,57.3889063 15.7792778,59.4135938 18.2408333,59.4135938 C20.7023889,59.4135938 22.7075556,57.3889063 22.7075556,54.9070313 C22.7075556,52.4251563 20.7053333,50.4064063 18.2408333,50.4064063 Z M18.2408333,56.4448438 C17.4016667,56.4448438 16.7215,55.7560938 16.7215,54.9070313 C16.7215,54.0579688 17.4016667,53.3751563 18.2408333,53.3751563 C19.08,53.3751563 19.7631111,54.0579688 19.7631111,54.9070313 C19.7631111,55.7560938 19.08,56.4448438 18.2408333,56.4448438 Z" id="Shape"></path>
                <path d="M29.3207778,62.6673437 C26.1761111,62.6673437 23.6173889,65.2442187 23.6173889,68.4148437 C23.6173889,71.5854687 26.1761111,74.1653125 29.3207778,74.1653125 C32.4625,74.1653125 35.0212222,71.5854687 35.0212222,68.4148437 C35.0212222,65.2442187 32.4625,62.6673437 29.3207778,62.6673437 Z M29.3207778,71.1935937 C27.7985,71.1935937 26.5618333,69.9467187 26.5618333,68.411875 C26.5618333,66.88 27.7985,65.633125 29.3207778,65.633125 C30.8401111,65.633125 32.0767778,66.88 32.0767778,68.411875 C32.0738333,69.9496875 30.8371667,71.1935937 29.3207778,71.1935937 Z" id="Shape"></path>
            </g>
        </g>
    </g>
</svg>