<?xml version="1.0" encoding="UTF-8"?>
<svg width="95px" height="95px" viewBox="0 0 95 95" version="1.1" xmlns="http://www.w3.org/2000/svg" xmlns:xlink="http://www.w3.org/1999/xlink">
    <title>noun_Ticket_1393420</title>
    <g id="Project-images" stroke="none" stroke-width="1" fill="none" fill-rule="evenodd">
        <g id="Key-features-project-6" transform="translate(-458.000000, -22.000000)" fill="#262626" fill-rule="nonzero">
            <g id="noun_Ticket_1393420" transform="translate(458.000000, 22.000000)">
                <path d="M94.5360833,33.7139167 L61.2860833,0.463916667 C60.667,-0.155166667 59.6663333,-0.155166667 59.04725,0.463916667 L0.463916667,59.04725 C-0.155166667,59.6663333 -0.155166667,60.667 0.463916667,61.2860833 L8.6925,69.5146667 C9.28625,70.1084167 10.3375833,70.1084167 10.9313333,69.5146667 C14.1771667,66.26725 20.0085833,64.9404167 25.7766667,69.2233333 C30.0595833,74.993 28.7311667,80.8228333 25.4853333,84.0670833 C24.8646667,84.6893333 24.8678333,85.6931667 25.4853333,86.3059167 L33.7139167,94.5345 C34.3314167,95.1535833 35.33525,95.1535833 35.95275,94.5345 L94.5360833,35.9511667 C95.1551667,35.3336667 95.1551667,34.333 94.5360833,33.7139167 Z M51.4583333,74.5528333 L49.54725,72.64175 C48.9281667,72.0226667 47.9275,72.0226667 47.3084167,72.64175 C46.6893333,73.2608333 46.6893333,74.2615 47.3084167,74.8805833 L49.2195,76.7916667 L34.8333333,91.1778333 L28.7770833,85.1215833 C32.2303333,80.7373333 33.2705833,73.8403333 28.1469167,67.1095833 C28.0645833,67.00825 27.9664167,66.9116667 27.85875,66.8293333 L27.85875,66.8293333 C21.1565,61.7278333 14.2610833,62.7680833 9.87683333,66.2229167 L3.82216667,60.1666667 L18.2083333,45.7805 L20.1194167,47.6915833 C20.7385,48.3106667 21.7375833,48.3106667 22.35825,47.6915833 C22.9773333,47.0725 22.9773333,46.0718333 22.35825,45.45275 L20.4471667,43.5416667 L60.1666667,3.82216667 L91.1778333,34.8333333 L51.4583333,74.5528333 Z M32.8161667,55.91225 C33.43525,56.5313333 33.43525,57.5304167 32.8161667,58.1510833 C32.1955,58.7701667 31.198,58.7701667 30.5773333,58.1510833 L26.3941667,53.9663333 C25.7750833,53.34725 25.7750833,52.3465833 26.3941667,51.7275 C27.01325,51.1084167 28.0139167,51.1084167 28.633,51.7275 L32.8161667,55.91225 Z M43.2725,66.367 C43.8915833,66.9860833 43.8915833,67.98675 43.2725,68.6058333 C42.6534167,69.2249167 41.6511667,69.2265 41.0336667,68.6058333 L36.8505,64.4210833 C36.2314167,63.802 36.2314167,62.8029167 36.8505,62.18225 C37.4695833,61.5631667 38.47025,61.5631667 39.0893333,62.18225 L43.2725,66.367 Z M59.70275,19.4639167 C60.3218333,20.083 60.3218333,21.0836667 59.70275,21.70275 L35.95275,45.45275 C35.3336667,46.0718333 34.333,46.0718333 33.7139167,45.45275 C33.0948333,44.8336667 33.0948333,43.833 33.7139167,43.2139167 L57.4639167,19.4639167 C58.083,18.8448333 59.0836667,18.8448333 59.70275,19.4639167 Z M59.70275,32.1305833 C60.3218333,32.7496667 60.3218333,33.7503333 59.70275,34.3694167 L42.2860833,51.7860833 C41.6685833,52.4051667 40.66475,52.4051667 40.04725,51.7860833 C39.4281667,51.167 39.4281667,50.1663333 40.04725,49.54725 L57.4639167,32.1305833 C58.083,31.5115 59.0836667,31.5115 59.70275,32.1305833 Z" id="Shape"></path>
            </g>
        </g>
    </g>
</svg>